<svg width="60" height="60" viewBox="0 0 60 60" fill="none" xmlns="http://www.w3.org/2000/svg">
<path d="M41.4656 4.78118C40.53 4.74972 39.5507 4.91284 38.5687 5.23118C36.6049 5.86786 34.547 7.10859 32.4352 8.82649C31.6075 9.49974 30.7723 10.2693 29.9344 11.0859C29.1149 10.2901 28.2969 9.53878 27.4875 8.8804C25.3773 7.16388 23.325 5.92501 21.3656 5.28977C19.4063 4.65454 17.4567 4.63485 15.8555 5.5593C14.2543 6.48376 13.2967 8.18076 12.8672 10.1952C12.4376 12.2097 12.4826 14.6087 12.9141 17.2945C13.0639 18.2273 13.28 19.206 13.5234 20.2031C12.6085 20.4803 11.72 20.7719 10.8961 21.0937C8.40958 22.0649 6.35214 23.2267 4.85391 24.6093C3.35568 25.9919 2.38828 27.6699 2.38828 29.5124C2.38828 31.355 3.35568 33.0306 4.85391 34.4132C6.35214 35.7958 8.40958 36.96 10.8961 37.9312C11.7771 38.2753 12.7309 38.5851 13.7156 38.8781C13.3614 40.2015 13.0745 41.4857 12.8789 42.7031C12.4471 45.391 12.4015 47.7902 12.832 49.8093C13.2626 51.8284 14.2206 53.535 15.8297 54.464C17.4388 55.393 19.3971 55.3702 21.3609 54.7335C23.3248 54.0968 25.3803 52.8585 27.4922 51.1406C28.3122 50.4735 29.1417 49.7126 29.9719 48.9046C30.806 49.717 31.6396 50.4823 32.4633 51.1523C34.5735 52.8688 36.6281 54.1077 38.5875 54.7429C40.5469 55.3781 42.4941 55.3978 44.0953 54.4734C45.6965 53.5489 46.654 51.8519 47.0836 49.8374C47.5131 47.8229 47.4658 45.424 47.0344 42.7382C46.8383 41.5175 46.5511 40.2314 46.1953 38.9038C47.2125 38.6038 48.1965 38.2856 49.1039 37.9312C51.5904 36.96 53.6479 35.7958 55.1461 34.4132C56.6443 33.0306 57.6117 31.355 57.6117 29.5124C57.6117 27.6699 56.6443 25.9919 55.1461 24.6093C53.6479 23.2267 51.5904 22.0649 49.1039 21.0937C48.2682 20.7673 47.366 20.4719 46.4367 20.1913C46.6821 19.1882 46.9 18.2025 47.0508 17.264C47.4826 14.5761 47.5282 12.1745 47.0977 10.1554C46.6671 8.13634 45.7068 6.43208 44.0977 5.50305C43.2931 5.03854 42.4012 4.81264 41.4656 4.78118ZM41.3555 7.22337C41.9426 7.23942 42.4434 7.37914 42.8719 7.62649C43.7287 8.1212 44.3621 9.08404 44.7 10.6687C45.0379 12.2533 45.0262 14.3943 44.6273 16.8773C44.4908 17.7274 44.2925 18.6284 44.0672 19.5515C41.6133 18.9609 38.9244 18.5224 36.0586 18.2648C34.6189 16.2701 33.1391 14.4556 31.6477 12.8437C32.4362 12.0739 33.2197 11.354 33.9844 10.732C35.9352 9.14505 37.7822 8.06525 39.3234 7.56555C40.0941 7.31571 40.7684 7.20731 41.3555 7.22337ZM18.5836 7.2304C19.1741 7.21391 19.8498 7.32202 20.6227 7.57259C22.1684 8.07372 24.0185 9.15305 25.9711 10.7413C26.7203 11.3507 27.4865 12.055 28.2586 12.8062C26.7563 14.4309 25.2662 16.2644 23.8172 18.2765C20.9616 18.5389 18.2823 18.9816 15.8391 19.5749C15.6152 18.6562 15.4196 17.7588 15.2836 16.9124C14.8844 14.4273 14.8744 12.2837 15.2133 10.6945C15.5522 9.10525 16.1907 8.13749 17.0555 7.63821C17.4879 7.38857 17.9931 7.24688 18.5836 7.2304ZM29.9719 14.571C30.9493 15.6347 31.9273 16.7991 32.8969 18.0515C31.944 18.0118 30.9795 17.9882 30 17.9882C29.0009 17.9882 28.0181 18.0125 27.0469 18.0538C28.0168 16.8003 28.9941 15.6356 29.9719 14.571ZM30 20.4116C31.6319 20.4116 33.2224 20.4787 34.7695 20.5921C35.8341 22.1211 36.8744 23.7432 37.8656 25.4601C38.7366 26.9687 39.5248 28.4749 40.2422 29.9624C39.5172 31.4697 38.7158 32.9963 37.8328 34.5257C37.0555 35.872 36.2438 37.1507 35.4188 38.3835C33.6712 38.5296 31.8604 38.6109 30 38.6109C28.0949 38.6109 26.2434 38.5248 24.457 38.3718C23.6457 37.1567 22.8477 35.895 22.0828 34.5702C21.2018 33.0443 20.4043 31.5228 19.6805 30.0187C20.4073 28.506 21.2084 26.9737 22.0945 25.439C23.0806 23.7311 24.1178 22.1184 25.1766 20.5968C26.7403 20.4808 28.3493 20.4116 30 20.4116ZM37.8609 20.8921C39.8382 21.1389 41.6948 21.4818 43.4227 21.8929C42.9098 23.5743 42.278 25.3305 41.5125 27.1429C41.0155 26.1848 40.5007 25.2234 39.9445 24.2601C39.2709 23.0933 38.5704 21.9791 37.8609 20.8921ZM22.0125 20.9109C21.3176 21.978 20.6338 23.0694 19.9734 24.2132C19.4101 25.1889 18.8847 26.1632 18.382 27.1335C17.6232 25.332 16.9952 23.5858 16.4859 21.914C18.2016 21.502 20.0481 21.1605 22.0125 20.9109ZM45.7969 22.5304C46.6475 22.7878 47.4691 23.0564 48.2227 23.3507C50.5148 24.246 52.328 25.3061 53.5031 26.3906C54.6783 27.475 55.1883 28.5092 55.1883 29.5124C55.1883 30.5157 54.6783 31.5499 53.5031 32.6343C52.328 33.7187 50.5148 34.7789 48.2227 35.6742C47.3852 36.0012 46.4652 36.2978 45.5086 36.5788C44.8262 34.4683 43.9553 32.2665 42.9188 30.0187C44.1105 27.438 45.0733 24.9219 45.7969 22.5304ZM14.1633 22.5421C14.8786 24.9096 15.829 27.401 17.0039 29.9554C15.9606 32.2163 15.0853 34.4306 14.4 36.5531C13.4772 36.2794 12.5883 35.9909 11.7773 35.6742C9.48516 34.7789 7.67202 33.7187 6.49688 32.6343C5.32173 31.5499 4.81172 30.5157 4.81172 29.5124C4.81172 28.5092 5.32173 27.475 6.49688 26.3906C7.67202 25.3061 9.48516 24.246 11.7773 23.3507C12.5193 23.0609 13.3271 22.7961 14.1633 22.5421ZM30 23.9999C26.7005 23.9999 24 26.7004 24 29.9999C24 33.2994 26.7005 35.9999 30 35.9999C33.2995 35.9999 36 33.2994 36 29.9999C36 26.7004 33.2995 23.9999 30 23.9999ZM30 26.3999C32.0024 26.3999 33.6 27.9975 33.6 29.9999C33.6 32.0024 32.0024 33.5999 30 33.5999C27.9976 33.5999 26.4 32.0024 26.4 29.9999C26.4 27.9975 27.9976 26.3999 30 26.3999ZM41.543 32.8359C42.1723 34.3253 42.7194 35.7828 43.1789 37.1882C41.7358 37.5228 40.1992 37.8048 38.5828 38.0273C39.0481 37.2849 39.5076 36.5286 39.9562 35.7515C40.5187 34.7774 41.041 33.8045 41.543 32.8359ZM18.4102 32.8382C18.9148 33.8129 19.4403 34.79 20.0063 35.7702C20.4493 36.5376 20.9017 37.2868 21.3609 38.0202C19.7494 37.7968 18.2175 37.5139 16.7789 37.1788C17.2364 35.7777 17.7837 34.3233 18.4102 32.8382ZM16.0875 39.5085C18.2593 40.023 20.6133 40.4182 23.1094 40.6757C24.776 43.0862 26.5112 45.2511 28.2586 47.1445C27.4774 47.9062 26.7031 48.621 25.9453 49.2374C23.9945 50.8243 22.1452 51.9018 20.6039 52.4015C19.0626 52.9012 17.9123 52.8353 17.0555 52.3406C16.1986 51.8458 15.5676 50.883 15.2297 49.2984C14.8918 47.7137 14.9011 45.5751 15.3 43.0921C15.481 41.9657 15.7514 40.7596 16.0875 39.5085ZM43.8727 39.5179C44.2113 40.7759 44.4829 41.9877 44.6648 43.1202C45.0641 45.6053 45.074 47.7467 44.7352 49.3359C44.3963 50.9251 43.7601 51.8952 42.8953 52.3945C42.0305 52.8937 40.8715 52.9612 39.3258 52.4601C37.78 51.959 35.9299 50.8773 33.9773 49.289C33.2141 48.6682 32.4345 47.9498 31.6477 47.182C33.4064 45.2814 35.1546 43.1048 36.832 40.6804C39.3344 40.4246 41.6949 40.0318 43.8727 39.5179ZM26.2406 40.9218C27.4727 40.989 28.7211 41.0343 30 41.0343C31.2366 41.0343 32.4445 40.9917 33.6375 40.9288C32.418 42.5742 31.1748 44.0701 29.9367 45.4171C28.6994 44.0672 27.4586 42.5687 26.2406 40.9218Z" fill="black"/>
</svg>
