<svg width="271" height="271" viewBox="0 0 271 271" fill="none" xmlns="http://www.w3.org/2000/svg">
<path d="M135 73.8472C127.995 83.5308 124.222 95.1949 124.222 107.167V163.833C124.222 171.016 121.958 178.015 117.756 183.825C113.553 189.635 107.627 193.958 100.828 196.175C94.0286 198.391 86.7057 198.386 79.9094 196.161C73.1131 193.936 67.1926 189.606 62.997 183.79C58.8015 177.975 56.5465 170.973 56.5555 163.79C56.5646 156.607 58.8372 149.612 63.0473 143.807C67.2575 138.002 73.1889 133.686 79.9908 131.479C86.7926 129.271 94.1155 129.285 100.909 131.519L107.922 109.976C96.6 106.253 84.3952 106.23 73.0587 109.909C61.7222 113.589 51.8366 120.781 44.8196 130.456C37.8027 140.131 34.0151 151.79 34 163.762C33.985 175.733 37.7432 187.402 44.7358 197.095C51.7284 206.787 61.5959 214.005 72.9231 217.713C84.2503 221.421 96.4551 221.429 107.787 217.735C119.119 214.042 128.995 206.836 136 197.153C143.005 187.469 146.778 175.805 146.778 163.833V107.167C146.778 99.9836 149.042 92.9851 153.244 87.175C157.447 81.3649 163.373 77.0416 170.172 74.8254C176.971 72.6092 184.294 72.6139 191.091 74.8387C197.887 77.0636 203.807 81.3944 208.003 87.2098C212.199 93.0252 214.453 100.027 214.444 107.21C214.435 114.393 212.163 121.388 207.953 127.193C203.743 132.998 197.811 137.314 191.009 139.521C184.207 141.729 176.884 141.715 170.091 139.481L163.078 161.024C174.4 164.747 186.605 164.77 197.941 161.091C209.278 157.411 219.163 150.219 226.18 140.544C233.197 130.869 236.985 119.21 237 107.238C237.015 95.2666 233.257 83.5976 226.264 73.9052C219.272 64.2128 209.404 56.9948 198.077 53.2868C186.75 49.5787 174.545 49.5709 163.213 53.2646C151.881 56.9583 142.005 64.1637 135 73.8472Z" fill="black"/>
</svg>
