<svg width="60" height="59" viewBox="0 0 60 59" fill="none" xmlns="http://www.w3.org/2000/svg">
<path d="M29.989 5.53125C29.3046 5.53125 28.6204 5.69632 28.0298 6.0282L9.44824 16.5757C8.24824 17.2579 7.5 18.5496 7.5 19.9139V39.05C7.5 40.4329 8.24824 41.7061 9.44824 42.3882L14.3262 45.1539C16.6887 46.297 17.5311 46.2954 18.5999 46.2954C22.1061 46.2954 24.1113 44.2123 24.1113 40.5985V20.8538C24.1113 20.5588 23.8693 20.3173 23.5693 20.3173H21.2256C20.9068 20.3173 20.6799 20.5588 20.6799 20.8538V40.5805C20.6799 42.203 18.9757 43.7882 16.2195 42.4423L11.1182 39.547C10.9307 39.4548 10.8179 39.2529 10.8179 39.05V19.9319C10.8179 19.7107 10.9307 19.524 11.1182 19.4134L29.6997 8.86945C29.8685 8.75882 30.0945 8.75882 30.282 8.86945L48.8635 19.4134C49.051 19.524 49.1638 19.7111 49.1638 19.9139V39.05C49.1638 39.2529 49.0506 39.4548 48.8818 39.547L30.282 50.1125C30.1132 50.2047 29.8685 50.2047 29.6997 50.1125L24.917 47.3289C24.7857 47.2367 24.6015 47.2192 24.4702 47.2929C23.139 48.0304 22.8952 48.122 21.6577 48.5461C21.3577 48.6383 20.8887 48.8221 21.8262 49.3383L28.0298 52.9538C28.6298 53.2857 29.3067 53.4688 29.9817 53.4688C30.6754 53.4688 31.3482 53.2857 31.9482 52.9538L50.5518 42.3882C51.7518 41.7061 52.5 40.4329 52.5 39.05V19.9319C52.5 18.5491 51.7518 17.2759 50.5518 16.5938L31.9482 6.0282C31.3576 5.69632 30.6734 5.53125 29.989 5.53125ZM34.9878 20.2921C29.6815 20.2921 26.5137 22.5031 26.5137 26.1906C26.5137 30.1916 29.6607 31.2961 34.7607 31.7939C40.8545 32.3839 41.3232 33.2715 41.3232 34.4515C41.3232 36.4796 39.6573 37.3467 35.7385 37.3467C30.8073 37.3467 29.719 36.1281 29.3628 33.7313C29.3253 33.4731 29.1016 33.2883 28.8391 33.2883H26.4185C26.1185 33.2883 25.8948 33.5303 25.8948 33.8069C25.8948 36.8859 27.601 40.5517 35.7385 40.5517C41.626 40.5517 45 38.2683 45 34.2858C45 30.3402 42.2808 29.2872 36.5808 28.5313C30.7871 27.7938 30.2051 27.4065 30.2051 26.079C30.2051 24.9727 30.7128 23.5186 34.9878 23.5186C38.794 23.5186 40.2183 24.3273 40.7996 26.8532C40.8558 27.0929 41.0607 27.2781 41.3232 27.2781H43.7439C43.8939 27.2781 44.0232 27.2051 44.1357 27.0945C44.2295 27.0023 44.2863 26.8535 44.2676 26.6876C43.8926 22.3363 40.9503 20.2921 34.9878 20.2921Z" fill="black"/>
</svg>
