<?xml version="1.0" encoding="utf-8"?>
<!-- Generator: Adobe Illustrator 19.0.0, SVG Export Plug-In . SVG Version: 6.00 Build 0)  -->
<svg version="1.1" id="Layer_1" xmlns="http://www.w3.org/2000/svg" xmlns:xlink="http://www.w3.org/1999/xlink" x="0px" y="0px"
	 viewBox="-846 403 226.4 275" style="enable-background:new -846 403 226.4 275;" xml:space="preserve">
<style type="text/css">
	.st0{fill:#19F0D1;}
	.st1{fill:#D1D2D1;}
	.st2{fill:none;}
	.st3{font-family:'ArialMT';}
	.st4{font-size:9px;}
</style>
<path id="XMLID_32_" class="st0" d="M-710.3,491.9c-12.1-11.7-28.6-18.9-46.8-18.9v12.5c14.7,0,28.1,5.8,38,15.2L-710.3,491.9z"/>
<path id="XMLID_38_" class="st0" d="M-697.9,479.5c-15.3-14.9-36.2-24-59.2-24v15c18.9,0,36,7.5,48.6,19.6L-697.9,479.5z"/>
<path id="XMLID_39_" class="st0" d="M-685.5,467.1c-18.5-18-43.7-29.1-71.6-29.1v15c23.7,0,45.2,9.4,61,24.8L-685.5,467.1z"/>
<path id="XMLID_40_" class="st0" d="M-673.1,454.8c-21.6-21.2-51.3-34.3-84-34.3v15c28.5,0,54.4,11.4,73.4,29.9L-673.1,454.8z"/>
<path id="XMLID_41_" class="st0" d="M-660.8,442.4c-24.8-24.4-58.8-39.4-96.3-39.4v15c33.4,0,63.6,13.4,85.7,35L-660.8,442.4z"/>
<path id="XMLID_42_" class="st0" d="M-733.3,514.9c-6.3-5.8-14.6-9.4-23.8-9.4v15c5.1,0,9.7,1.9,13.2,5L-733.3,514.9z"/>
<path id="XMLID_43_" class="st0" d="M-720.9,502.5c-9.4-9-22.1-14.5-36.2-14.5v15c9.9,0,18.9,3.8,25.6,10.1L-720.9,502.5z"/>
<path id="XMLID_44_" class="st0" d="M-742.1,527.3c2.9,3.2,4.7,7.4,5,12h15c-0.3-8.7-3.8-16.6-9.4-22.6L-742.1,527.3z"/>
<path id="XMLID_45_" class="st0" d="M-722.1,541.8h-15c-0.3,4.6-2.1,8.7-4.9,12l10.6,10.6C-725.9,558.4-722.4,550.5-722.1,541.8z"/>
<path id="XMLID_46_" class="st0" d="M-743.9,555.5c-3.5,3.1-8.1,5-13.2,5v15c9.2,0,17.6-3.6,23.8-9.4L-743.9,555.5z"/>
<path id="XMLID_47_" class="st0" d="M-729.7,514.9c6,6.4,9.8,15,10.1,24.4h15c-0.3-13.6-5.8-25.8-14.5-35L-729.7,514.9z"/>
<path id="XMLID_48_" class="st0" d="M-717.3,502.5c9.2,9.6,14.9,22.5,15.2,36.7h12.5c-0.3-17.7-7.4-33.7-18.9-45.6L-717.3,502.5z"/>
<path id="XMLID_49_" class="st0" d="M-706.7,491.9c11.9,12.3,19.3,29,19.6,47.3h15c-0.3-22.5-9.4-42.9-24-57.9L-706.7,491.9z"/>
<path id="XMLID_50_" class="st0" d="M-654.6,539.3c-0.3-27.4-11.4-52.1-29.1-70.3l-10.6,10.6c15,15.5,24.4,36.5,24.7,59.7H-654.6z"
	/>
<path id="XMLID_51_" class="st0" d="M-671.4,456.5l-10.6,10.6c18.2,18.6,29.5,44.1,29.9,72.1h15
	C-637.4,507.1-650.4,477.9-671.4,456.5z"/>
<path id="XMLID_52_" class="st0" d="M-634.6,539.3h15c-0.3-37-15.3-70.5-39.4-95.1l-10.6,10.6C-648.2,476.6-634.9,506.4-634.6,539.3
	z"/>
<path id="XMLID_53_" class="st0" d="M-689.6,541.8h-12.5c-0.3,14.2-6.1,27.1-15.2,36.7l8.8,8.8C-697.1,575.5-690,559.4-689.6,541.8z
	"/>
<path id="XMLID_54_" class="st1" d="M-719.1,580.3c-9.9,9.4-23.2,15.2-38,15.2V608c18.2,0,34.7-7.2,46.8-18.9L-719.1,580.3z"/>
<path id="XMLID_55_" class="st1" d="M-672.1,541.8h-15c-0.3,18.4-7.7,35-19.6,47.3l10.6,10.6C-681.6,584.7-672.5,564.3-672.1,541.8z
	"/>
<path id="XMLID_56_" class="st1" d="M-708.5,590.9c-12.6,12.2-29.7,19.6-48.6,19.6v15c23,0,43.9-9.2,59.2-24L-708.5,590.9z"/>
<path id="XMLID_57_" class="st1" d="M-654.6,541.8h-15c-0.3,23.2-9.7,44.2-24.8,59.7l10.6,10.6C-666,593.9-654.9,569.1-654.6,541.8z
	"/>
<path id="XMLID_58_" class="st1" d="M-696.1,603.2c-15.8,15.3-37.3,24.8-61,24.8v15c27.9,0,53.1-11.1,71.6-29.1L-696.1,603.2z"/>
<path id="XMLID_59_" class="st0" d="M-637.1,541.8h-15c-0.3,28-11.7,53.5-29.9,72.1l10.6,10.6C-650.4,603.1-637.4,573.9-637.1,541.8
	z"/>
<path id="XMLID_60_" class="st0" d="M-683.7,615.6c-18.9,18.5-44.8,29.9-73.4,29.9v15c32.7,0,62.3-13.1,84-34.3L-683.7,615.6z"/>
<path id="XMLID_61_" class="st0" d="M-669.6,626.2l10.6,10.6c24.1-24.5,39.1-58.1,39.4-95.1h-15
	C-634.9,574.6-648.2,604.4-669.6,626.2z"/>
<path id="XMLID_62_" class="st0" d="M-757.1,663v15c37.5,0,71.5-15,96.3-39.4l-10.6-10.6C-693.5,649.6-723.7,663-757.1,663z"/>
<path id="XMLID_63_" class="st1" d="M-704.6,541.8h-15c-0.3,9.4-4.1,17.9-10.1,24.4l10.6,10.6C-710.4,567.6-704.9,555.3-704.6,541.8
	z"/>
<path id="XMLID_64_" class="st1" d="M-731.5,567.9c-6.7,6.3-15.7,10.1-25.6,10.1v15c14,0,26.8-5.5,36.2-14.5L-731.5,567.9z"/>
<rect id="XMLID_8_" x="-846" y="407.2" class="st2" width="81.4" height="6.6"/>
<text id="XMLID_22_" transform="matrix(1 0 0 1 -786.4081 413.5844)" class="st3 st4">HTML</text>
<rect id="XMLID_7_" x="-846" y="424.3" class="st2" width="81.4" height="6.6"/>
<text id="XMLID_20_" transform="matrix(1 0 0 1 -778.6771 430.6678)" class="st3 st4">CSS</text>
<rect id="XMLID_6_" x="-846" y="441.4" class="st2" width="81.4" height="6.6"/>
<text id="XMLID_18_" transform="matrix(1 0 0 1 -780.4862 447.7513)" class="st3 st4">Sass</text>
<rect id="XMLID_5_" x="-846" y="458.4" class="st2" width="81.4" height="6.6"/>
<text id="XMLID_16_" transform="matrix(1 0 0 1 -801.663 464.8347)" class="st3 st4">Javascript</text>
<rect id="XMLID_4_" x="-846" y="475.5" class="st2" width="81.4" height="6.6"/>
<text id="XMLID_14_" transform="matrix(1 0 0 1 -789.621 481.9181)" class="st3 st4">jQuery</text>
<rect id="XMLID_2_" x="-846" y="492.6" class="st2" width="81.4" height="6.6"/>
<text id="XMLID_12_" transform="matrix(1 0 0 1 -802.0946 499.001)" class="st3 st4">Angular.js</text>
<rect id="XMLID_3_" x="-846" y="509.7" class="st2" width="81.4" height="6.6"/>
<text id="XMLID_10_" transform="matrix(1 0 0 1 -801.267 516.0845)" class="st3 st4">Bootstrap</text>
</svg>
