<?xml version="1.0" encoding="utf-8"?>
<!-- Generator: Adobe Illustrator 19.0.0, SVG Export Plug-In . SVG Version: 6.00 Build 0)  -->
<svg version="1.1" id="arsenal" xmlns="http://www.w3.org/2000/svg" xmlns:xlink="http://www.w3.org/1999/xlink" x="0px" y="0px"
	 viewBox="0 113.8 1919.8 854.2" style="enable-background:new 0 113.8 1919.8 854.2;" xml:space="preserve">
<style type="text/css">
	.st0{fill:#A3A1A1;}
	.st1{fill:#C9C9C9;}
	.st2{fill:#525352;}
	.st3{fill:#ABABAB;}
	.st4{fill:#EAEAEA;}
	.st5{fill:#454545;}
	.st6{fill:#212121;}
	.st7{fill:#787878;}
	.st8{fill:#4B4A4B;}
	.st9{fill:#565656;}
	.st10{fill:#151515;}
	.st11{fill:#3B3B3E;}
	.st12{fill:#434343;}
	.st13{fill:#F2F2F2;}
	.st14{fill:#48DBBB;}
	.st15{fill:#177360;}
	.st16{fill:#FFFFFF;}
	.st17{fill:none;}
	.st18{font-family:'ArialMT';}
	.st19{font-size:21px;}
	.st20{font-size:30px;}
</style>
<g id="sketchbook">
	<path class="st0" d="M265,225.8H0v626h265c26.8,0,48.6-21.7,48.6-48.6V274.3C313.6,247.5,291.8,225.8,265,225.8z"/>
	<path class="st1" d="M258.2,843.8c26.1,0,47.3-21.2,47.3-47.3V281.1c0-26.1-21.2-47.3-47.3-47.3H0v610H258.2z"/>
	<path class="st2" d="M289.6,782.9V294.6c0-24.8-20.1-44.8-44.8-44.8H0v578h244.7C269.5,827.8,289.6,807.7,289.6,782.9z"/>
	<path class="st3" d="M287.6,781.3v-485c0-24.6-19.9-44.5-44.5-44.5H0v574h243C267.6,825.8,287.6,805.9,287.6,781.3z"/>
	<path class="st4" d="M284.6,778.7V298.8c0-24.3-19.7-44.1-44.1-44.1H0v568.1h240.5C264.8,822.8,284.6,803.1,284.6,778.7z"/>
	<path class="st5" d="M206,249.7h26v-15v-7v-0.6c0-3.1-2.5-5.6-5.6-5.6h-14.8c-3.1,0-5.6,2.5-5.6,5.6v0.6v7L206,249.7L206,249.7z"/>
	<path class="st5" d="M232,827.7h-26v16.9v9v0.2c0,3.6,2.5,6.5,5.6,6.5h14.8c3.1,0,5.6-2.9,5.6-6.5v-0.2v-9L232,827.7L232,827.7z"/>
</g>
<g id="pens">
	<path class="st2" d="M1487.2,523.7c0-0.8-0.7-1.5-1.5-1.5h-0.4c-0.8,0-1.5,0.7-1.5,1.5v4.2h3.4V523.7z"/>
	<path class="st6" d="M1485.5,551.6h11.6l-5.8-21.7h-1.5v-1.4c0-0.5-0.4-0.9-0.9-0.9h-1.9h-3.4h-1.5c-0.5,0-0.9,0.4-0.9,0.9v1.4
		h-1.5l-5.8,21.7H1485.5z"/>
	<rect x="1576.7" y="521.5" class="st2" width="0.7" height="2.9"/>
	<polygon class="st6" points="1576,524.4 1576,529.1 1576,529.1 1578.2,529.1 1578.2,529.1 1578.2,524.4 1577.4,524.4 1576.7,524.4 
			"/>
	<polygon class="st7" points="1571,863.8 1571,863.8 1583.3,863.8 1583.3,863.8 1583.3,848.6 1571,848.6 	"/>
	<path class="st2" d="M1470.9,553v2.2c0,0.1,0,0.1,0,0.2h-0.2c-1.4,0-2.6,1.1-2.6,2.6v317.3c0,0.7,0.3,1.4,0.8,1.9l26.4,25.4
		c2.7,2.6,7.3,0.7,7.3-3.1V558.1c0-1.4-1.1-2.6-2.6-2.6h-0.2c0-0.1,0-0.1,0-0.2v-2.2c0-1-0.8-1.8-1.8-1.8h-25.4
		C1471.8,551.2,1470.9,552,1470.9,553z"/>
	<path class="st6" d="M1501.4,578.4c0.4,0,0.8-0.1,1.2-0.2h0.1c1.6-0.5,2.7-2,2.7-3.8v-0.3c0-1.8-1.2-3.2-2.7-3.8h-0.1
		c-0.4-0.1-0.8-0.2-1.2-0.2h-0.1h-31.8c-0.5,0-0.9,0.1-1.3,0.2c-1.5,0.6-2.6,2-2.6,3.7v0.3c0,1.7,1.1,3.2,2.6,3.7
		c0.4,0.2,0.9,0.2,1.3,0.2h31.9V578.4z"/>
	<ellipse class="st6" cx="1485.5" cy="636.5" rx="7.4" ry="9.5"/>
	<ellipse class="st6" cx="1485.5" cy="611.9" rx="9.4" ry="10.6"/>
	<path class="st6" d="M1502.7,831.6L1502.7,831.6V818h-34.4v2.7h-0.1h-2.5v-71.9c1.4-0.7,2.4-3.8,2.4-7.4c0-3.8-1.1-6.9-2.6-7.5
		c-0.3-0.7-1-1.2-1.7-1.2c-1,0-1.9,0.8-1.9,1.9v96.2c0,1,0.8,1.9,1.9,1.9s1.9-0.8,1.9-1.9v-1.9h2.5h0.1v2.7l0,0H1502.7L1502.7,831.6
		z"/>
	<path class="st8" d="M1566.5,863.3v38.3c0,1.8,1.4,3.2,3.2,3.2h14.9c1.8,0,3.2-1.4,3.2-3.2v-38.3h-4.5H1571H1566.5z"/>
	<polygon class="st2" points="1576,529 1576,529 1574.8,529 1569.2,550 1585,550 1579.4,529 1578.2,529 1578.2,529 	"/>
	<polygon class="st5" points="1568.5,549.8 1568.4,549.8 1568.4,552.9 1585.7,552.9 1585.7,549.8 1585.7,549.8 1585,549.8 
		1569.2,549.8 	"/>
	<path class="st2" d="M1568.4,552.9c-0.6,0-1.1,0.5-1.1,1.1v15.5c0.8,2.1,1.4,9.3,1.4,18c0,8.6-0.6,15.9-1.4,18v242.8
		c0,0.6,0.5,1.1,1.1,1.1h2.6h12.3h2.8c0.6,0,1.1-0.5,1.1-1.1V605.4c-0.8-2.1-1.4-9.3-1.4-18c0-8.6,0.6-15.9,1.4-18v-15.5
		c0-0.6-0.5-1.1-1.1-1.1h-0.3h-17.4V552.9z"/>
	<path class="st6" d="M1587.1,834.1h-19.8v0.8h-3.1c-1.3-6.8-2.5-17.3-2.5-30.6c0-11.8,1.1-21.8,2.1-28.5c1.3,0.2,2.7-2.3,3.1-5.6
		c0.5-3.3-0.2-6.1-1.5-6.3c-1.1-0.2-2.4,1.8-3,4.5c-1.8,6.5-3,19.9-3,35.4c0,21.9,2.9,39.3,5.4,39.7c0.5,0.1,1.5-0.3,1.2-1.2
		c-0.3-0.7-0.6-1.7-1-3.1h2.1v1h19.8v-6.1H1587.1z"/>
</g>
<g id="laptop">
	<path class="st5" d="M477.9,113.8l51.6,135.8c5.2,13.4,18.2,22.3,32.6,22.3h795.7c14.4,0,27.3-8.8,32.6-22.3l51.5-135.8H477.9z"/>
	<path class="st2" d="M1349.8,789.9H570c-27.7,0-50.1-22.4-50.1-50.1V312c0-27.7,22.4-50.1,50.1-50.1h779.8
		c27.7,0,50.1,22.4,50.1,50.1v427.9C1399.9,767.5,1377.5,789.9,1349.8,789.9z"/>
	<path class="st2" d="M1096.8,757.3c0,4.7-3.8,8.5-8.5,8.5h-259c-4.7,0-8.5-3.8-8.5-8.5V628.1c0-4.7,3.8-8.5,8.5-8.5h259
		c4.7,0,8.5,3.8,8.5,8.5V757.3z"/>
	<path class="st2" d="M1344.9,580.6c0,11.1-9,20.2-20.2,20.2H595.1c-11.1,0-20.2-9-20.2-20.2V336.5c0-11.1,9-20.2,20.2-20.2h729.7
		c11.1,0,20.2,9,20.2,20.2L1344.9,580.6L1344.9,580.6z"/>
	<path class="st6" d="M1324.7,316.3H595.1c-11.1,0-20.2,9-20.2,20.2v244.2c0,11.1,9,20.2,20.2,20.2h729.7c11.1,0,20.2-9,20.2-20.2
		V336.5C1344.9,325.3,1335.9,316.3,1324.7,316.3z"/>
	<path class="st6" d="M1292,332.9c0-1.4,1.1-2.5,2.5-2.5h28.7c1.4,0,2.5,1.1,2.5,2.5v13.6c0,1.4-1.1,2.5-2.5,2.5h-28.7
		c-1.4,0-2.5-1.1-2.5-2.5V332.9z"/>
	<path class="st6" d="M1248.5,332.9c0-1.4,1.1-2.5,2.5-2.5h28.7c1.4,0,2.5,1.1,2.5,2.5v13.6c0,1.4-1.1,2.5-2.5,2.5H1251
		c-1.4,0-2.5-1.1-2.5-2.5V332.9z"/>
	<path class="st6" d="M1010,393.1c0,1.9-1.6,3.5-3.5,3.5h-31.7c-1.9,0-3.5-1.6-3.5-3.5v-31.7c0-1.9,1.6-3.5,3.5-3.5h31.7
		c1.9,0,3.5,1.6,3.5,3.5V393.1z"/>
	<path class="st6" d="M1021.5,404.8c1.9,0,3.5,1.6,3.5,3.5V440c0,1.9-1.6,3.5-3.5,3.5h-31.7c-1.9,0-3.5-1.6-3.5-3.5v-31.7
		c0-1.9,1.6-3.5,3.5-3.5H1021.5z"/>
	<path class="st6" d="M974.4,404.8c1.9,0,3.5,1.6,3.5,3.5V440c0,1.9-1.6,3.5-3.5,3.5h-31.7c-1.9,0-3.5-1.6-3.5-3.5v-31.7
		c0-1.9,1.6-3.5,3.5-3.5H974.4z"/>
	<path class="st6" d="M963,393.1c0,1.9-1.6,3.5-3.5,3.5h-31.7c-1.9,0-3.5-1.6-3.5-3.5v-31.7c0-1.9,1.6-3.5,3.5-3.5h31.7
		c1.9,0,3.5,1.6,3.5,3.5V393.1z"/>
	<path class="st6" d="M927.3,404.8c1.9,0,3.5,1.6,3.5,3.5V440c0,1.9-1.6,3.5-3.5,3.5h-31.7c-1.9,0-3.5-1.6-3.5-3.5v-31.7
		c0-1.9,1.6-3.5,3.5-3.5H927.3z"/>
	<path class="st6" d="M916.1,393.1c0,1.9-1.6,3.5-3.5,3.5h-31.7c-1.9,0-3.5-1.6-3.5-3.5v-31.7c0-1.9,1.6-3.5,3.5-3.5h31.7
		c1.9,0,3.5,1.6,3.5,3.5V393.1z"/>
	<path class="st6" d="M880.2,404.8c1.9,0,3.5,1.6,3.5,3.5V440c0,1.9-1.6,3.5-3.5,3.5h-31.7c-1.9,0-3.5-1.6-3.5-3.5v-31.7
		c0-1.9,1.6-3.5,3.5-3.5H880.2z"/>
	<path class="st6" d="M869.1,393.1c0,1.9-1.6,3.5-3.5,3.5h-31.7c-1.9,0-3.5-1.6-3.5-3.5v-31.7c0-1.9,1.6-3.5,3.5-3.5h31.7
		c1.9,0,3.5,1.6,3.5,3.5V393.1z"/>
	<path class="st6" d="M833.1,404.8c1.9,0,3.5,1.6,3.5,3.5V440c0,1.9-1.6,3.5-3.5,3.5h-31.7c-1.9,0-3.5-1.6-3.5-3.5v-31.7
		c0-1.9,1.6-3.5,3.5-3.5H833.1z"/>
	<path class="st6" d="M822.1,393.1c0,1.9-1.6,3.5-3.5,3.5h-31.7c-1.9,0-3.5-1.6-3.5-3.5v-31.7c0-1.9,1.6-3.5,3.5-3.5h31.7
		c1.9,0,3.5,1.6,3.5,3.5V393.1z"/>
	<path class="st6" d="M786,404.8c1.9,0,3.5,1.6,3.5,3.5V440c0,1.9-1.6,3.5-3.5,3.5h-31.7c-1.9,0-3.5-1.6-3.5-3.5v-31.7
		c0-1.9,1.6-3.5,3.5-3.5H786z"/>
	<path class="st6" d="M775.2,393.1c0,1.9-1.6,3.5-3.5,3.5H740c-1.9,0-3.5-1.6-3.5-3.5v-31.7c0-1.9,1.6-3.5,3.5-3.5h31.7
		c1.9,0,3.5,1.6,3.5,3.5V393.1z"/>
	<path class="st6" d="M738.9,404.8c1.9,0,3.5,1.6,3.5,3.5V440c0,1.9-1.6,3.5-3.5,3.5h-31.7c-1.9,0-3.5-1.6-3.5-3.5v-31.7
		c0-1.9,1.6-3.5,3.5-3.5H738.9z"/>
	<path class="st6" d="M729.2,497.9c1.9,0,3.5,1.6,3.5,3.5v31.7c0,1.9-1.6,3.5-3.5,3.5h-31.7c-1.9,0-3.5-1.6-3.5-3.5v-31.7
		c0-1.9,1.6-3.5,3.5-3.5H729.2z"/>
	<path class="st6" d="M716.2,489.8c-1.9,0-3.5-1.6-3.5-3.5v-31.7c0-1.9,1.6-3.5,3.5-3.5h31.7c1.9,0,3.5,1.6,3.5,3.5v31.7
		c0,1.9-1.6,3.5-3.5,3.5H716.2z"/>
	<path class="st6" d="M741.1,501.4c0-1.9,1.6-3.5,3.5-3.5h31.7c1.9,0,3.5,1.6,3.5,3.5v31.7c0,1.9-1.6,3.5-3.5,3.5h-31.7
		c-1.9,0-3.5-1.6-3.5-3.5V501.4z"/>
	<path class="st6" d="M763.2,489.8c-1.9,0-3.5-1.6-3.5-3.5v-31.7c0-1.9,1.6-3.5,3.5-3.5H795c1.9,0,3.5,1.6,3.5,3.5v31.7
		c0,1.9-1.6,3.5-3.5,3.5H763.2z"/>
	<path class="st6" d="M788.2,501.4c0-1.9,1.6-3.5,3.5-3.5h31.7c1.9,0,3.5,1.6,3.5,3.5v31.7c0,1.9-1.6,3.5-3.5,3.5h-31.7
		c-1.9,0-3.5-1.6-3.5-3.5V501.4z"/>
	<path class="st6" d="M810.3,489.8c-1.9,0-3.5-1.6-3.5-3.5v-31.7c0-1.9,1.6-3.5,3.5-3.5H842c1.9,0,3.5,1.6,3.5,3.5v31.7
		c0,1.9-1.6,3.5-3.5,3.5H810.3z"/>
	<path class="st6" d="M835.3,501.4c0-1.9,1.6-3.5,3.5-3.5h31.7c1.9,0,3.5,1.6,3.5,3.5v31.7c0,1.9-1.6,3.5-3.5,3.5h-31.7
		c-1.9,0-3.5-1.6-3.5-3.5V501.4z"/>
	<path class="st6" d="M857.4,489.8c-1.9,0-3.5-1.6-3.5-3.5v-31.7c0-1.9,1.6-3.5,3.5-3.5h31.7c1.9,0,3.5,1.6,3.5,3.5v31.7
		c0,1.9-1.6,3.5-3.5,3.5H857.4z"/>
	<path class="st6" d="M882.4,501.4c0-1.9,1.6-3.5,3.5-3.5h31.7c1.9,0,3.5,1.6,3.5,3.5v31.7c0,1.9-1.6,3.5-3.5,3.5h-31.7
		c-1.9,0-3.5-1.6-3.5-3.5V501.4z"/>
	<path class="st6" d="M904.5,489.8c-1.9,0-3.5-1.6-3.5-3.5v-31.7c0-1.9,1.6-3.5,3.5-3.5h31.7c1.9,0,3.5,1.6,3.5,3.5v31.7
		c0,1.9-1.6,3.5-3.5,3.5H904.5z"/>
	<path class="st6" d="M929.4,501.4c0-1.9,1.6-3.5,3.5-3.5h31.7c1.9,0,3.5,1.6,3.5,3.5v31.7c0,1.9-1.6,3.5-3.5,3.5h-31.7
		c-1.9,0-3.5-1.6-3.5-3.5V501.4z"/>
	<path class="st6" d="M951.6,489.8c-1.9,0-3.5-1.6-3.5-3.5v-31.7c0-1.9,1.6-3.5,3.5-3.5h31.7c1.9,0,3.5,1.6,3.5,3.5v31.7
		c0,1.9-1.6,3.5-3.5,3.5H951.6z"/>
	<path class="st6" d="M976.5,501.4c0-1.9,1.6-3.5,3.5-3.5h31.7c1.9,0,3.5,1.6,3.5,3.5v31.7c0,1.9-1.6,3.5-3.5,3.5H980
		c-1.9,0-3.5-1.6-3.5-3.5V501.4z"/>
	<path class="st6" d="M998.7,489.8c-1.9,0-3.5-1.6-3.5-3.5v-31.7c0-1.9,1.6-3.5,3.5-3.5h31.7c1.9,0,3.5,1.6,3.5,3.5v31.7
		c0,1.9-1.6,3.5-3.5,3.5H998.7z"/>
	<path class="st6" d="M1033.3,440.1v-31.7c0-1.9,1.6-3.5,3.5-3.5h31.7c1.9,0,3.5,1.6,3.5,3.5v31.7c0,1.9-1.6,3.5-3.5,3.5h-31.7
		C1034.9,443.6,1033.3,442,1033.3,440.1z"/>
	<path class="st6" d="M1023.6,501.4c0-1.9,1.6-3.5,3.5-3.5h31.7c1.9,0,3.5,1.6,3.5,3.5v31.7c0,1.9-1.6,3.5-3.5,3.5h-31.7
		c-1.9,0-3.5-1.6-3.5-3.5V501.4z"/>
	<path class="st6" d="M1045.8,489.8c-1.9,0-3.5-1.6-3.5-3.5v-31.7c0-1.9,1.6-3.5,3.5-3.5h31.7c1.9,0,3.5,1.6,3.5,3.5v31.7
		c0,1.9-1.6,3.5-3.5,3.5H1045.8z"/>
	<path class="st6" d="M1080.4,440.1v-31.7c0-1.9,1.6-3.5,3.5-3.5h31.7c1.9,0,3.5,1.6,3.5,3.5v31.7c0,1.9-1.6,3.5-3.5,3.5h-31.7
		C1082,443.6,1080.4,442,1080.4,440.1z"/>
	<path class="st6" d="M1089.4,454.5c0-1.9,1.6-3.5,3.5-3.5h31.7c1.9,0,3.5,1.6,3.5,3.5v31.7c0,1.9-1.6,3.5-3.5,3.5h-31.7
		c-1.9,0-3.5-1.6-3.5-3.5V454.5z"/>
	<path class="st6" d="M1127.5,440.1v-31.7c0-1.9,1.6-3.5,3.5-3.5h31.7c1.9,0,3.5,1.6,3.5,3.5v31.7c0,1.9-1.6,3.5-3.5,3.5H1131
		C1129.1,443.6,1127.5,442,1127.5,440.1z"/>
	<path class="st6" d="M1136.5,454.5c0-1.9,1.6-3.5,3.5-3.5h31.7c1.9,0,3.5,1.6,3.5,3.5v31.7c0,1.9-1.6,3.5-3.5,3.5H1140
		c-1.9,0-3.5-1.6-3.5-3.5V454.5z"/>
	<path class="st6" d="M1174.6,440.1v-31.7c0-1.9,1.6-3.5,3.5-3.5h31.7c1.9,0,3.5,1.6,3.5,3.5v31.7c0,1.9-1.6,3.5-3.5,3.5h-31.7
		C1176.2,443.6,1174.6,442,1174.6,440.1z"/>
	<path class="st6" d="M1183.6,454.5c0-1.9,1.6-3.5,3.5-3.5h31.7c1.9,0,3.5,1.6,3.5,3.5v31.7c0,1.9-1.6,3.5-3.5,3.5h-31.7
		c-1.9,0-3.5-1.6-3.5-3.5V454.5z"/>
	<path class="st6" d="M1212.9,501.4c0-1.9,1.6-3.5,3.5-3.5h105.3c1.9,0,3.5,1.6,3.5,3.5v31.7c0,1.9-1.6,3.5-3.5,3.5h-105.3
		c-1.9,0-3.5-1.6-3.5-3.5V501.4z"/>
	<path class="st6" d="M1325.2,486.6c0,1.7-1.4,3.1-3.1,3.1h-41.4c-1.7,0-3.1-1.4-3.1-3.1v-40.1c0-1.7-1.4-3.1-3.1-3.1h-3.3
		c-1.7,0-3.1-1.4-3.1-3.1v-32.5c0-1.7,1.4-3.1,3.1-3.1h51c1.7,0,3.1,1.4,3.1,3.1L1325.2,486.6L1325.2,486.6z"/>
	<path class="st6" d="M1269.4,454.5v31.7c0,1.9-1.6,3.5-3.5,3.5h-31.7c-1.9,0-3.5-1.6-3.5-3.5v-31.7c0-1.9,1.6-3.5,3.5-3.5h31.7
		C1267.8,451,1269.4,452.6,1269.4,454.5z"/>
	<path class="st6" d="M1260.4,440.1c0,1.9-1.6,3.5-3.5,3.5h-31.7c-1.9,0-3.5-1.6-3.5-3.5v-31.7c0-1.9,1.6-3.5,3.5-3.5h31.7
		c1.9,0,3.5,1.6,3.5,3.5V440.1z"/>
	<path class="st6" d="M1244.8,361.3V393c0,1.9-1.6,3.5-3.5,3.5h-31.7c-1.9,0-3.5-1.6-3.5-3.5v-31.7c0-1.9,1.6-3.5,3.5-3.5h31.7
		C1243.2,357.8,1244.8,359.4,1244.8,361.3z"/>
	<path class="st6" d="M1205,332.9c0-1.4,1.1-2.5,2.5-2.5h28.7c1.4,0,2.5,1.1,2.5,2.5v13.6c0,1.4-1.1,2.5-2.5,2.5h-28.7
		c-1.4,0-2.5-1.1-2.5-2.5V332.9z"/>
	<path class="st6" d="M1161.5,332.9c0-1.4,1.1-2.5,2.5-2.5h28.7c1.4,0,2.5,1.1,2.5,2.5v13.6c0,1.4-1.1,2.5-2.5,2.5H1164
		c-1.4,0-2.5-1.1-2.5-2.5V332.9z"/>
	<path class="st6" d="M1159.1,361.3c0-1.9,1.6-3.5,3.5-3.5h31.7c1.9,0,3.5,1.6,3.5,3.5V393c0,1.9-1.6,3.5-3.5,3.5h-31.7
		c-1.9,0-3.5-1.6-3.5-3.5V361.3z"/>
	<path class="st6" d="M1118,332.9c0-1.4,1.1-2.5,2.5-2.5h28.7c1.4,0,2.5,1.1,2.5,2.5v13.6c0,1.4-1.1,2.5-2.5,2.5h-28.7
		c-1.4,0-2.5-1.1-2.5-2.5V332.9z"/>
	<path class="st6" d="M1112.1,361.3c0-1.9,1.6-3.5,3.5-3.5h31.7c1.9,0,3.5,1.6,3.5,3.5V393c0,1.9-1.6,3.5-3.5,3.5h-31.7
		c-1.9,0-3.5-1.6-3.5-3.5V361.3z"/>
	<path class="st6" d="M1074.5,332.9c0-1.4,1.1-2.5,2.5-2.5h28.7c1.4,0,2.5,1.1,2.5,2.5v13.6c0,1.4-1.1,2.5-2.5,2.5H1077
		c-1.4,0-2.5-1.1-2.5-2.5V332.9z"/>
	<path class="st6" d="M1065.2,361.3c0-1.9,1.6-3.5,3.5-3.5h31.7c1.9,0,3.5,1.6,3.5,3.5V393c0,1.9-1.6,3.5-3.5,3.5h-31.7
		c-1.9,0-3.5-1.6-3.5-3.5V361.3z"/>
	<path class="st6" d="M1031,332.9c0-1.4,1.1-2.5,2.5-2.5h28.7c1.4,0,2.5,1.1,2.5,2.5v13.6c0,1.4-1.1,2.5-2.5,2.5h-28.7
		c-1.4,0-2.5-1.1-2.5-2.5V332.9z"/>
	<path class="st6" d="M1053.4,357.8c1.9,0,3.5,1.6,3.5,3.5V393c0,1.9-1.6,3.5-3.5,3.5h-31.7c-1.9,0-3.5-1.6-3.5-3.5v-31.7
		c0-1.9,1.6-3.5,3.5-3.5H1053.4L1053.4,357.8z"/>
	<path class="st6" d="M987.5,332.9c0-1.4,1.1-2.5,2.5-2.5h28.7c1.4,0,2.5,1.1,2.5,2.5v13.6c0,1.4-1.1,2.5-2.5,2.5H990
		c-1.4,0-2.5-1.1-2.5-2.5V332.9z"/>
	<path class="st6" d="M944,332.9c0-1.4,1.1-2.5,2.5-2.5h28.7c1.4,0,2.5,1.1,2.5,2.5v13.6c0,1.4-1.1,2.5-2.5,2.5h-28.7
		c-1.4,0-2.5-1.1-2.5-2.5V332.9z"/>
	<path class="st6" d="M900.5,332.9c0-1.4,1.1-2.5,2.5-2.5h28.7c1.4,0,2.5,1.1,2.5,2.5v13.6c0,1.4-1.1,2.5-2.5,2.5H903
		c-1.4,0-2.5-1.1-2.5-2.5V332.9z"/>
	<path class="st6" d="M857,332.9c0-1.4,1.1-2.5,2.5-2.5h28.7c1.4,0,2.5,1.1,2.5,2.5v13.6c0,1.4-1.1,2.5-2.5,2.5h-28.7
		c-1.4,0-2.5-1.1-2.5-2.5V332.9z"/>
	<path class="st6" d="M813.5,332.9c0-1.4,1.1-2.5,2.5-2.5h28.7c1.4,0,2.5,1.1,2.5,2.5v13.6c0,1.4-1.1,2.5-2.5,2.5H816
		c-1.4,0-2.5-1.1-2.5-2.5V332.9z"/>
	<path class="st6" d="M770,332.9c0-1.4,1.1-2.5,2.5-2.5h28.7c1.4,0,2.5,1.1,2.5,2.5v13.6c0,1.4-1.1,2.5-2.5,2.5h-28.7
		c-1.4,0-2.5-1.1-2.5-2.5V332.9z"/>
	<path class="st6" d="M726.5,332.9c0-1.4,1.1-2.5,2.5-2.5h28.7c1.4,0,2.5,1.1,2.5,2.5v13.6c0,1.4-1.1,2.5-2.5,2.5H729
		c-1.4,0-2.5-1.1-2.5-2.5V332.9z"/>
	<path class="st6" d="M728.2,361.3V393c0,1.9-1.6,3.5-3.5,3.5H693c-1.9,0-3.5-1.6-3.5-3.5v-31.7c0-1.9,1.6-3.5,3.5-3.5h31.7
		C726.7,357.8,728.2,359.4,728.2,361.3z"/>
	<path class="st6" d="M683.1,332.9c0-1.4,1.1-2.5,2.5-2.5h28.7c1.4,0,2.5,1.1,2.5,2.5v13.6c0,1.4-1.1,2.5-2.5,2.5h-28.7
		c-1.4,0-2.5-1.1-2.5-2.5V332.9z"/>
	<path class="st6" d="M681.3,361.3V393c0,1.9-1.6,3.5-3.5,3.5H646c-1.9,0-3.5-1.6-3.5-3.5v-31.7c0-1.9,1.6-3.5,3.5-3.5h31.7
		C679.7,357.8,681.3,359.4,681.3,361.3z"/>
	<path class="st6" d="M639.6,332.9c0-1.4,1.1-2.5,2.5-2.5h28.7c1.4,0,2.5,1.1,2.5,2.5v13.6c0,1.4-1.1,2.5-2.5,2.5h-28.7
		c-1.4,0-2.5-1.1-2.5-2.5V332.9z"/>
	<path class="st6" d="M595.4,332.9c0-1.4,1.1-2.5,2.5-2.5h28.7c1.4,0,2.5,1.1,2.5,2.5v13.6c0,1.4-1.1,2.5-2.5,2.5h-28.7
		c-1.4,0-2.5-1.1-2.5-2.5V332.9z"/>
	<path class="st6" d="M595.4,361.3c0-1.9,1.6-3.5,3.5-3.5h31.7c1.9,0,3.5,1.6,3.5,3.5V393c0,1.9-1.6,3.5-3.5,3.5h-31.7
		c-1.9,0-3.5-1.6-3.5-3.5V361.3z"/>
	<path class="st6" d="M595.4,408.5c0-1.9,1.6-3.5,3.5-3.5h91.7c1.9,0,3.5,1.6,3.5,3.5v31.7c0,1.9-1.6,3.5-3.5,3.5h-91.7
		c-1.9,0-3.5-1.6-3.5-3.5V408.5z"/>
	<path class="st6" d="M595.4,454.5c0-1.9,1.6-3.5,3.5-3.5h101.2c1.9,0,3.5,1.6,3.5,3.5v31.7c0,1.9-1.6,3.5-3.5,3.5H598.9
		c-1.9,0-3.5-1.6-3.5-3.5V454.5z"/>
	<path class="st6" d="M595.4,501.4c0-1.9,1.6-3.5,3.5-3.5h82.4c1.9,0,3.5,1.6,3.5,3.5v31.7c0,1.9-1.6,3.5-3.5,3.5h-82.4
		c-1.9,0-3.5-1.6-3.5-3.5V501.4z"/>
	<path class="st6" d="M658.9,583.1c0,1.9-1.6,3.5-3.5,3.5h-56.6c-1.9,0-3.5-1.6-3.5-3.5v-34.8c0-1.9,1.6-3.5,3.5-3.5h56.6
		c1.9,0,3.5,1.6,3.5,3.5V583.1z"/>
	<path class="st6" d="M706.1,583.1c0,1.9-1.6,3.5-3.5,3.5h-31.7c-1.9,0-3.5-1.6-3.5-3.5v-34.8c0-1.9,1.6-3.5,3.5-3.5h31.7
		c1.9,0,3.5,1.6,3.5,3.5V583.1z"/>
	<path class="st6" d="M752.6,583.1c0,1.9-1.6,3.5-3.5,3.5h-31.7c-1.9,0-3.5-1.6-3.5-3.5v-34.8c0-1.9,1.6-3.5,3.5-3.5h31.7
		c1.9,0,3.5,1.6,3.5,3.5V583.1z"/>
	<path class="st6" d="M800.2,583.1c0,1.9-1.6,3.5-3.5,3.5H765c-1.9,0-3.5-1.6-3.5-3.5v-34.8c0-1.9,1.6-3.5,3.5-3.5h31.7
		c1.9,0,3.5,1.6,3.5,3.5V583.1z"/>
	<path class="st6" d="M1063.2,583.1c0,1.9-1.6,3.5-3.5,3.5H812.6c-1.9,0-3.5-1.6-3.5-3.5v-34.8c0-1.9,1.6-3.5,3.5-3.5h247.1
		c1.9,0,3.5,1.6,3.5,3.5V583.1z"/>
	<path class="st6" d="M1070.7,501.4c0-1.9,1.6-3.5,3.5-3.5h31.7c1.9,0,3.5,1.6,3.5,3.5v31.7c0,1.9-1.6,3.5-3.5,3.5h-31.7
		c-1.9,0-3.5-1.6-3.5-3.5V501.4z"/>
	<path class="st6" d="M1109.6,583.1c0,1.9-1.6,3.5-3.5,3.5h-31.7c-1.9,0-3.5-1.6-3.5-3.5v-34.8c0-1.9,1.6-3.5,3.5-3.5h31.7
		c1.9,0,3.5,1.6,3.5,3.5V583.1z"/>
	<path class="st6" d="M1117.8,501.4c0-1.9,1.6-3.5,3.5-3.5h31.7c1.9,0,3.5,1.6,3.5,3.5v31.7c0,1.9-1.6,3.5-3.5,3.5h-31.7
		c-1.9,0-3.5-1.6-3.5-3.5V501.4z"/>
	<path class="st6" d="M1156.7,583.1c0,1.9-1.6,3.5-3.5,3.5h-31.7c-1.9,0-3.5-1.6-3.5-3.5v-34.8c0-1.9,1.6-3.5,3.5-3.5h31.7
		c1.9,0,3.5,1.6,3.5,3.5V583.1z"/>
	<path class="st6" d="M1164.9,501.4c0-1.9,1.6-3.5,3.5-3.5h31.7c1.9,0,3.5,1.6,3.5,3.5v31.7c0,1.9-1.6,3.5-3.5,3.5h-31.7
		c-1.9,0-3.5-1.6-3.5-3.5V501.4z"/>
	<path class="st6" d="M1203.8,583.1c0,1.9-1.6,3.5-3.5,3.5h-31.7c-1.9,0-3.5-1.6-3.5-3.5v-34.8c0-1.9,1.6-3.5,3.5-3.5h31.7
		c1.9,0,3.5,1.6,3.5,3.5V583.1z"/>
	<path class="st6" d="M1246.6,584c0,1.4-1.1,2.5-2.5,2.5h-28.7c-1.4,0-2.5-1.1-2.5-2.5v-13.6c0-1.4,1.1-2.5,2.5-2.5h28.7
		c1.4,0,2.5,1.1,2.5,2.5V584z"/>
	<path class="st6" d="M1286,584c0,1.4-1.1,2.5-2.5,2.5h-28.7c-1.4,0-2.5-1.1-2.5-2.5v-13.6c0-1.4,1.1-2.5,2.5-2.5h28.7
		c1.4,0,2.5,1.1,2.5,2.5V584z"/>
	<path class="st6" d="M1286.3,561.1c0,1.4-1.1,2.5-2.5,2.5h-28.7c-1.4,0-2.5-1.1-2.5-2.5v-13.6c0-1.4,1.1-2.5,2.5-2.5h28.7
		c1.4,0,2.5,1.1,2.5,2.5V561.1z"/>
	<path class="st6" d="M1325.4,584c0,1.4-1.1,2.5-2.5,2.5h-28.7c-1.4,0-2.5-1.1-2.5-2.5v-13.6c0-1.4,1.1-2.5,2.5-2.5h28.7
		c1.4,0,2.5,1.1,2.5,2.5V584z"/>
	<path class="st6" d="M1325.8,393.1c0,1.9-1.6,3.5-3.5,3.5h-65.9c-1.9,0-3.5-1.6-3.5-3.5v-31.7c0-1.9,1.6-3.5,3.5-3.5h65.9
		c1.9,0,3.5,1.6,3.5,3.5V393.1z"/>
	<path class="st6" d="M1089.4,619.6h-259c-4.7,0-8.5,3.8-8.5,8.5v129.2c0,4.7,3.8,8.5,8.5,8.5h259c4.7,0,8.5-3.8,8.5-8.5V628.1
		C1097.9,623.5,1094.1,619.6,1089.4,619.6z"/>
	<path class="st9" d="M597.9,349h28.7c1.4,0,2.5-1.1,2.5-2.5v-13.6c0-1.4-1.1-2.5-2.5-2.5h-28.7c-1.4,0-2.5,1.1-2.5,2.5v13.6
		C595.4,347.8,596.5,349,597.9,349z"/>
	<path class="st9" d="M1251,349h28.7c1.4,0,2.5-1.1,2.5-2.5v-13.6c0-1.4-1.1-2.5-2.5-2.5H1251c-1.4,0-2.5,1.1-2.5,2.5v13.6
		C1248.5,347.8,1249.6,349,1251,349z"/>
	<path class="st9" d="M1207.5,349h28.7c1.4,0,2.5-1.1,2.5-2.5v-13.6c0-1.4-1.1-2.5-2.5-2.5h-28.7c-1.4,0-2.5,1.1-2.5,2.5v13.6
		C1205,347.8,1206.1,349,1207.5,349z"/>
	<path class="st9" d="M1164,349h28.7c1.4,0,2.5-1.1,2.5-2.5v-13.6c0-1.4-1.1-2.5-2.5-2.5H1164c-1.4,0-2.5,1.1-2.5,2.5v13.6
		C1161.5,347.8,1162.6,349,1164,349z"/>
	<path class="st9" d="M1120.5,349h28.7c1.4,0,2.5-1.1,2.5-2.5v-13.6c0-1.4-1.1-2.5-2.5-2.5h-28.7c-1.4,0-2.5,1.1-2.5,2.5v13.6
		C1118,347.8,1119.1,349,1120.5,349z"/>
	<path class="st9" d="M1077,349h28.7c1.4,0,2.5-1.1,2.5-2.5v-13.6c0-1.4-1.1-2.5-2.5-2.5H1077c-1.4,0-2.5,1.1-2.5,2.5v13.6
		C1074.5,347.8,1075.6,349,1077,349z"/>
	<path class="st9" d="M1033.5,349h28.7c1.4,0,2.5-1.1,2.5-2.5v-13.6c0-1.4-1.1-2.5-2.5-2.5h-28.7c-1.4,0-2.5,1.1-2.5,2.5v13.6
		C1031,347.8,1032.1,349,1033.5,349z"/>
	<path class="st9" d="M990.1,349h28.7c1.4,0,2.5-1.1,2.5-2.5v-13.6c0-1.4-1.1-2.5-2.5-2.5h-28.7c-1.4,0-2.5,1.1-2.5,2.5v13.6
		C987.5,347.8,988.6,349,990.1,349z"/>
	<path class="st9" d="M946.6,349h28.7c1.4,0,2.5-1.1,2.5-2.5v-13.6c0-1.4-1.1-2.5-2.5-2.5h-28.7c-1.4,0-2.5,1.1-2.5,2.5v13.6
		C944,347.8,945.2,349,946.6,349z"/>
	<path class="st9" d="M903.1,349h28.7c1.4,0,2.5-1.1,2.5-2.5v-13.6c0-1.4-1.1-2.5-2.5-2.5h-28.7c-1.4,0-2.5,1.1-2.5,2.5v13.6
		C900.5,347.8,901.7,349,903.1,349z"/>
	<path class="st9" d="M859.6,349h28.7c1.4,0,2.5-1.1,2.5-2.5v-13.6c0-1.4-1.1-2.5-2.5-2.5h-28.7c-1.4,0-2.5,1.1-2.5,2.5v13.6
		C857,347.8,858.2,349,859.6,349z"/>
	<path class="st9" d="M816.1,349h28.7c1.4,0,2.5-1.1,2.5-2.5v-13.6c0-1.4-1.1-2.5-2.5-2.5h-28.7c-1.4,0-2.5,1.1-2.5,2.5v13.6
		C813.5,347.8,814.7,349,816.1,349z"/>
	<path class="st9" d="M772.6,349h28.7c1.4,0,2.5-1.1,2.5-2.5v-13.6c0-1.4-1.1-2.5-2.5-2.5h-28.7c-1.4,0-2.5,1.1-2.5,2.5v13.6
		C770,347.8,771.2,349,772.6,349z"/>
	<path class="st9" d="M729.1,349h28.7c1.4,0,2.5-1.1,2.5-2.5v-13.6c0-1.4-1.1-2.5-2.5-2.5h-28.7c-1.4,0-2.5,1.1-2.5,2.5v13.6
		C726.5,347.8,727.7,349,729.1,349z"/>
	<path class="st9" d="M685.6,349h28.7c1.4,0,2.5-1.1,2.5-2.5v-13.6c0-1.4-1.1-2.5-2.5-2.5h-28.7c-1.4,0-2.5,1.1-2.5,2.5v13.6
		C683.1,347.8,684.2,349,685.6,349z"/>
	<path class="st9" d="M642.1,349h28.7c1.4,0,2.5-1.1,2.5-2.5v-13.6c0-1.4-1.1-2.5-2.5-2.5h-28.7c-1.4,0-2.5,1.1-2.5,2.5v13.6
		C639.6,347.8,640.7,349,642.1,349z"/>
	<path class="st9" d="M1294.5,349h28.7c1.4,0,2.5-1.1,2.5-2.5v-13.6c0-1.4-1.1-2.5-2.5-2.5h-28.7c-1.4,0-2.5,1.1-2.5,2.5v13.6
		C1292,347.8,1293.1,349,1294.5,349z"/>
	<path class="st9" d="M598.9,396.6h31.7c1.9,0,3.5-1.6,3.5-3.5v-31.7c0-1.9-1.6-3.5-3.5-3.5h-31.7c-1.9,0-3.5,1.6-3.5,3.5v31.7
		C595.4,395,596.9,396.6,598.9,396.6z"/>
	<path class="st9" d="M1162.6,396.6h31.7c1.9,0,3.5-1.6,3.5-3.5v-31.7c0-1.9-1.6-3.5-3.5-3.5h-31.7c-1.9,0-3.5,1.6-3.5,3.5v31.7
		C1159.1,395,1160.6,396.6,1162.6,396.6z"/>
	<path class="st9" d="M1115.6,396.6h31.7c1.9,0,3.5-1.6,3.5-3.5v-31.7c0-1.9-1.6-3.5-3.5-3.5h-31.7c-1.9,0-3.5,1.6-3.5,3.5v31.7
		C1112.1,395,1113.7,396.6,1115.6,396.6z"/>
	<path class="st9" d="M1068.7,396.6h31.7c1.9,0,3.5-1.6,3.5-3.5v-31.7c0-1.9-1.6-3.5-3.5-3.5h-31.7c-1.9,0-3.5,1.6-3.5,3.5v31.7
		C1065.2,395,1066.7,396.6,1068.7,396.6z"/>
	<path class="st9" d="M1018.2,361.3V393c0,1.9,1.6,3.5,3.5,3.5h31.7c1.9,0,3.5-1.6,3.5-3.5v-31.7c0-1.9-1.6-3.5-3.5-3.5h-31.7
		C1019.8,357.8,1018.2,359.4,1018.2,361.3z"/>
	<path class="st9" d="M1006.5,357.8h-31.7c-1.9,0-3.5,1.6-3.5,3.5V393c0,1.9,1.6,3.5,3.5,3.5h31.7c1.9,0,3.5-1.6,3.5-3.5v-31.7
		C1010,359.4,1008.4,357.8,1006.5,357.8z"/>
	<path class="st9" d="M959.5,357.8h-31.7c-1.9,0-3.5,1.6-3.5,3.5V393c0,1.9,1.6,3.5,3.5,3.5h31.7c1.9,0,3.5-1.6,3.5-3.5v-31.7
		C963,359.4,961.5,357.8,959.5,357.8z"/>
	<path class="st9" d="M912.6,357.8h-31.7c-1.9,0-3.5,1.6-3.5,3.5V393c0,1.9,1.6,3.5,3.5,3.5h31.7c1.9,0,3.5-1.6,3.5-3.5v-31.7
		C916.1,359.4,914.5,357.8,912.6,357.8z"/>
	<path class="st9" d="M865.6,357.8h-31.7c-1.9,0-3.5,1.6-3.5,3.5V393c0,1.9,1.6,3.5,3.5,3.5h31.7c1.9,0,3.5-1.6,3.5-3.5v-31.7
		C869.1,359.4,867.5,357.8,865.6,357.8z"/>
	<path class="st9" d="M818.6,357.8h-31.7c-1.9,0-3.5,1.6-3.5,3.5V393c0,1.9,1.6,3.5,3.5,3.5h31.7c1.9,0,3.5-1.6,3.5-3.5v-31.7
		C822.1,359.4,820.6,357.8,818.6,357.8z"/>
	<path class="st9" d="M771.7,357.8H740c-1.9,0-3.5,1.6-3.5,3.5V393c0,1.9,1.6,3.5,3.5,3.5h31.7c1.9,0,3.5-1.6,3.5-3.5v-31.7
		C775.2,359.4,773.6,357.8,771.7,357.8z"/>
	<path class="st9" d="M689.5,361.3V393c0,1.9,1.6,3.5,3.5,3.5h31.7c1.9,0,3.5-1.6,3.5-3.5v-31.7c0-1.9-1.6-3.5-3.5-3.5H693
		C691.1,357.8,689.5,359.4,689.5,361.3z"/>
	<path class="st9" d="M642.5,361.3V393c0,1.9,1.6,3.5,3.5,3.5h31.7c1.9,0,3.5-1.6,3.5-3.5v-31.7c0-1.9-1.6-3.5-3.5-3.5H646
		C644.1,357.8,642.5,359.4,642.5,361.3z"/>
	<path class="st9" d="M1206,361.3V393c0,1.9,1.6,3.5,3.5,3.5h31.7c1.9,0,3.5-1.6,3.5-3.5v-31.7c0-1.9-1.6-3.5-3.5-3.5h-31.7
		C1207.6,357.8,1206,359.4,1206,361.3z"/>
	<path class="st9" d="M1322.3,357.8h-65.9c-1.9,0-3.5,1.6-3.5,3.5V393c0,1.9,1.6,3.5,3.5,3.5h65.9c1.9,0,3.5-1.6,3.5-3.5v-31.7
		C1325.8,359.4,1324.2,357.8,1322.3,357.8z"/>
	<path class="st9" d="M598.9,443.7h91.7c1.9,0,3.5-1.6,3.5-3.5v-31.7c0-1.9-1.6-3.5-3.5-3.5h-91.7c-1.9,0-3.5,1.6-3.5,3.5v31.7
		C595.4,442.2,596.9,443.7,598.9,443.7z"/>
	<path class="st9" d="M703.7,408.3V440c0,1.9,1.6,3.5,3.5,3.5h31.7c1.9,0,3.5-1.6,3.5-3.5v-31.7c0-1.9-1.6-3.5-3.5-3.5h-31.7
		C705.3,404.8,703.7,406.4,703.7,408.3z"/>
	<path class="st9" d="M1178.1,443.6h31.7c1.9,0,3.5-1.6,3.5-3.5v-31.7c0-1.9-1.6-3.5-3.5-3.5h-31.7c-1.9,0-3.5,1.6-3.5,3.5v31.7
		C1174.6,442,1176.2,443.6,1178.1,443.6z"/>
	<path class="st9" d="M1131,443.6h31.7c1.9,0,3.5-1.6,3.5-3.5v-31.7c0-1.9-1.6-3.5-3.5-3.5H1131c-1.9,0-3.5,1.6-3.5,3.5v31.7
		C1127.5,442,1129.1,443.6,1131,443.6z"/>
	<path class="st9" d="M1083.9,443.6h31.7c1.9,0,3.5-1.6,3.5-3.5v-31.7c0-1.9-1.6-3.5-3.5-3.5h-31.7c-1.9,0-3.5,1.6-3.5,3.5v31.7
		C1080.4,442,1082,443.6,1083.9,443.6z"/>
	<path class="st9" d="M1036.8,443.6h31.7c1.9,0,3.5-1.6,3.5-3.5v-31.7c0-1.9-1.6-3.5-3.5-3.5h-31.7c-1.9,0-3.5,1.6-3.5,3.5v31.7
		C1033.3,442,1034.9,443.6,1036.8,443.6z"/>
	<path class="st9" d="M986.2,408.3V440c0,1.9,1.6,3.5,3.5,3.5h31.7c1.9,0,3.5-1.6,3.5-3.5v-31.7c0-1.9-1.6-3.5-3.5-3.5h-31.7
		C987.8,404.8,986.2,406.4,986.2,408.3z"/>
	<path class="st9" d="M939.1,408.3V440c0,1.9,1.6,3.5,3.5,3.5h31.7c1.9,0,3.5-1.6,3.5-3.5v-31.7c0-1.9-1.6-3.5-3.5-3.5h-31.7
		C940.7,404.8,939.1,406.4,939.1,408.3z"/>
	<path class="st9" d="M892.1,408.3V440c0,1.9,1.6,3.5,3.5,3.5h31.7c1.9,0,3.5-1.6,3.5-3.5v-31.7c0-1.9-1.6-3.5-3.5-3.5h-31.7
		C893.6,404.8,892.1,406.4,892.1,408.3z"/>
	<path class="st9" d="M845,408.3V440c0,1.9,1.6,3.5,3.5,3.5h31.7c1.9,0,3.5-1.6,3.5-3.5v-31.7c0-1.9-1.6-3.5-3.5-3.5h-31.7
		C846.5,404.8,845,406.4,845,408.3z"/>
	<path class="st9" d="M797.9,408.3V440c0,1.9,1.6,3.5,3.5,3.5h31.7c1.9,0,3.5-1.6,3.5-3.5v-31.7c0-1.9-1.6-3.5-3.5-3.5h-31.7
		C799.4,404.8,797.9,406.4,797.9,408.3z"/>
	<path class="st9" d="M750.8,408.3V440c0,1.9,1.6,3.5,3.5,3.5H786c1.9,0,3.5-1.6,3.5-3.5v-31.7c0-1.9-1.6-3.5-3.5-3.5h-31.7
		C752.4,404.8,750.8,406.4,750.8,408.3z"/>
	<path class="st9" d="M1256.9,404.8h-31.7c-1.9,0-3.5,1.6-3.5,3.5V440c0,1.9,1.6,3.5,3.5,3.5h31.7c1.9,0,3.5-1.6,3.5-3.5v-31.7
		C1260.4,406.4,1258.9,404.8,1256.9,404.8z"/>
	<path class="st9" d="M1322,404.6h-51c-1.7,0-3.1,1.4-3.1,3.1v32.5c0,1.7,1.4,3.1,3.1,3.1h3.3c1.7,0,3.1,1.4,3.1,3.1v40.1
		c0,1.7,1.4,3.1,3.1,3.1h41.4c1.7,0,3.1-1.4,3.1-3.1v-78.9C1325.2,406,1323.8,404.6,1322,404.6z"/>
	<path class="st9" d="M751.4,486.3v-31.7c0-1.9-1.6-3.5-3.5-3.5h-31.7c-1.9,0-3.5,1.6-3.5,3.5v31.7c0,1.9,1.6,3.5,3.5,3.5h31.7
		C749.8,489.8,751.4,488.2,751.4,486.3z"/>
	<path class="st9" d="M1187.1,489.8h31.7c1.9,0,3.5-1.6,3.5-3.5v-31.7c0-1.9-1.6-3.5-3.5-3.5h-31.7c-1.9,0-3.5,1.6-3.5,3.5v31.7
		C1183.6,488.2,1185.1,489.8,1187.1,489.8z"/>
	<path class="st9" d="M1140,489.8h31.7c1.9,0,3.5-1.6,3.5-3.5v-31.7c0-1.9-1.6-3.5-3.5-3.5H1140c-1.9,0-3.5,1.6-3.5,3.5v31.7
		C1136.5,488.2,1138,489.8,1140,489.8z"/>
	<path class="st9" d="M1092.9,489.8h31.7c1.9,0,3.5-1.6,3.5-3.5v-31.7c0-1.9-1.6-3.5-3.5-3.5h-31.7c-1.9,0-3.5,1.6-3.5,3.5v31.7
		C1089.4,488.2,1090.9,489.8,1092.9,489.8z"/>
	<path class="st9" d="M1081,486.3v-31.7c0-1.9-1.6-3.5-3.5-3.5h-31.7c-1.9,0-3.5,1.6-3.5,3.5v31.7c0,1.9,1.6,3.5,3.5,3.5h31.7
		C1079.5,489.8,1081,488.2,1081,486.3z"/>
	<path class="st9" d="M1033.9,486.3v-31.7c0-1.9-1.6-3.5-3.5-3.5h-31.7c-1.9,0-3.5,1.6-3.5,3.5v31.7c0,1.9,1.6,3.5,3.5,3.5h31.7
		C1032.4,489.8,1033.9,488.2,1033.9,486.3z"/>
	<path class="st9" d="M986.8,486.3v-31.7c0-1.9-1.6-3.5-3.5-3.5h-31.7c-1.9,0-3.5,1.6-3.5,3.5v31.7c0,1.9,1.6,3.5,3.5,3.5h31.7
		C985.3,489.8,986.8,488.2,986.8,486.3z"/>
	<path class="st9" d="M939.8,486.3v-31.7c0-1.9-1.6-3.5-3.5-3.5h-31.7c-1.9,0-3.5,1.6-3.5,3.5v31.7c0,1.9,1.6,3.5,3.5,3.5h31.7
		C938.2,489.8,939.8,488.2,939.8,486.3z"/>
	<path class="st9" d="M892.7,486.3v-31.7c0-1.9-1.6-3.5-3.5-3.5h-31.7c-1.9,0-3.5,1.6-3.5,3.5v31.7c0,1.9,1.6,3.5,3.5,3.5h31.7
		C891.1,489.8,892.7,488.2,892.7,486.3z"/>
	<path class="st9" d="M845.6,486.3v-31.7c0-1.9-1.6-3.5-3.5-3.5h-31.7c-1.9,0-3.5,1.6-3.5,3.5v31.7c0,1.9,1.6,3.5,3.5,3.5h31.7
		C844,489.8,845.6,488.2,845.6,486.3z"/>
	<path class="st9" d="M798.5,486.3v-31.7c0-1.9-1.6-3.5-3.5-3.5h-31.7c-1.9,0-3.5,1.6-3.5,3.5v31.7c0,1.9,1.6,3.5,3.5,3.5H795
		C796.9,489.8,798.5,488.2,798.5,486.3z"/>
	<path class="st9" d="M1234.2,451c-1.9,0-3.5,1.6-3.5,3.5v31.7c0,1.9,1.6,3.5,3.5,3.5h31.7c1.9,0,3.5-1.6,3.5-3.5v-31.7
		c0-1.9-1.6-3.5-3.5-3.5H1234.2z"/>
	<path class="st9" d="M598.9,489.8h101.2c1.9,0,3.5-1.6,3.5-3.5v-31.7c0-1.9-1.6-3.5-3.5-3.5H598.9c-1.9,0-3.5,1.6-3.5,3.5v31.7
		C595.4,488.2,596.9,489.8,598.9,489.8z"/>
	<path class="st9" d="M694,501.4v31.7c0,1.9,1.6,3.5,3.5,3.5h31.7c1.9,0,3.5-1.6,3.5-3.5v-31.7c0-1.9-1.6-3.5-3.5-3.5h-31.7
		C695.6,497.9,694,499.4,694,501.4z"/>
	<path class="st9" d="M1168.4,536.6h31.7c1.9,0,3.5-1.6,3.5-3.5v-31.7c0-1.9-1.6-3.5-3.5-3.5h-31.7c-1.9,0-3.5,1.6-3.5,3.5v31.7
		C1164.9,535,1166.5,536.6,1168.4,536.6z"/>
	<path class="st9" d="M1121.3,536.6h31.7c1.9,0,3.5-1.6,3.5-3.5v-31.7c0-1.9-1.6-3.5-3.5-3.5h-31.7c-1.9,0-3.5,1.6-3.5,3.5v31.7
		C1117.8,535,1119.4,536.6,1121.3,536.6z"/>
	<path class="st9" d="M1074.2,536.6h31.7c1.9,0,3.5-1.6,3.5-3.5v-31.7c0-1.9-1.6-3.5-3.5-3.5h-31.7c-1.9,0-3.5,1.6-3.5,3.5v31.7
		C1070.7,535,1072.3,536.6,1074.2,536.6z"/>
	<path class="st9" d="M1027.1,536.6h31.7c1.9,0,3.5-1.6,3.5-3.5v-31.7c0-1.9-1.6-3.5-3.5-3.5h-31.7c-1.9,0-3.5,1.6-3.5,3.5v31.7
		C1023.6,535,1025.2,536.6,1027.1,536.6z"/>
	<path class="st9" d="M980,536.6h31.7c1.9,0,3.5-1.6,3.5-3.5v-31.7c0-1.9-1.6-3.5-3.5-3.5H980c-1.9,0-3.5,1.6-3.5,3.5v31.7
		C976.5,535,978.1,536.6,980,536.6z"/>
	<path class="st9" d="M932.9,536.6h31.7c1.9,0,3.5-1.6,3.5-3.5v-31.7c0-1.9-1.6-3.5-3.5-3.5h-31.7c-1.9,0-3.5,1.6-3.5,3.5v31.7
		C929.4,535,931,536.6,932.9,536.6z"/>
	<path class="st9" d="M885.9,536.6h31.7c1.9,0,3.5-1.6,3.5-3.5v-31.7c0-1.9-1.6-3.5-3.5-3.5h-31.7c-1.9,0-3.5,1.6-3.5,3.5v31.7
		C882.4,535,883.9,536.6,885.9,536.6z"/>
	<path class="st9" d="M838.8,536.6h31.7c1.9,0,3.5-1.6,3.5-3.5v-31.7c0-1.9-1.6-3.5-3.5-3.5h-31.7c-1.9,0-3.5,1.6-3.5,3.5v31.7
		C835.3,535,836.8,536.6,838.8,536.6z"/>
	<path class="st9" d="M791.7,536.6h31.7c1.9,0,3.5-1.6,3.5-3.5v-31.7c0-1.9-1.6-3.5-3.5-3.5h-31.7c-1.9,0-3.5,1.6-3.5,3.5v31.7
		C788.2,535,789.7,536.6,791.7,536.6z"/>
	<path class="st9" d="M744.6,536.6h31.7c1.9,0,3.5-1.6,3.5-3.5v-31.7c0-1.9-1.6-3.5-3.5-3.5h-31.7c-1.9,0-3.5,1.6-3.5,3.5v31.7
		C741.1,535,742.6,536.6,744.6,536.6z"/>
	<path class="st9" d="M598.9,536.6h82.4c1.9,0,3.5-1.6,3.5-3.5v-31.7c0-1.9-1.6-3.5-3.5-3.5h-82.4c-1.9,0-3.5,1.6-3.5,3.5v31.7
		C595.4,535,596.9,536.6,598.9,536.6z"/>
	<path class="st9" d="M1216.4,536.6h105.3c1.9,0,3.5-1.6,3.5-3.5v-31.7c0-1.9-1.6-3.5-3.5-3.5h-105.3c-1.9,0-3.5,1.6-3.5,3.5v31.7
		C1212.9,535,1214.5,536.6,1216.4,536.6z"/>
	<path class="st9" d="M655.4,544.7h-56.6c-1.9,0-3.5,1.6-3.5,3.5V583c0,1.9,1.6,3.5,3.5,3.5h56.6c1.9,0,3.5-1.6,3.5-3.5v-34.8
		C658.9,546.3,657.4,544.7,655.4,544.7z"/>
	<path class="st9" d="M702.6,544.7h-31.7c-1.9,0-3.5,1.6-3.5,3.5V583c0,1.9,1.6,3.5,3.5,3.5h31.7c1.9,0,3.5-1.6,3.5-3.5v-34.8
		C706.1,546.3,704.5,544.7,702.6,544.7z"/>
	<path class="st9" d="M796.7,544.7H765c-1.9,0-3.5,1.6-3.5,3.5V583c0,1.9,1.6,3.5,3.5,3.5h31.7c1.9,0,3.5-1.6,3.5-3.5v-34.8
		C800.2,546.3,798.7,544.7,796.7,544.7z"/>
	<path class="st9" d="M749.1,544.7h-31.7c-1.9,0-3.5,1.6-3.5,3.5V583c0,1.9,1.6,3.5,3.5,3.5h31.7c1.9,0,3.5-1.6,3.5-3.5v-34.8
		C752.6,546.3,751,544.7,749.1,544.7z"/>
	<path class="st9" d="M1059.7,544.7H812.6c-1.9,0-3.5,1.6-3.5,3.5V583c0,1.9,1.6,3.5,3.5,3.5h247.1c1.9,0,3.5-1.6,3.5-3.5v-34.8
		C1063.2,546.3,1061.7,544.7,1059.7,544.7z"/>
	<path class="st9" d="M1106.1,544.7h-31.7c-1.9,0-3.5,1.6-3.5,3.5V583c0,1.9,1.6,3.5,3.5,3.5h31.7c1.9,0,3.5-1.6,3.5-3.5v-34.8
		C1109.6,546.3,1108,544.7,1106.1,544.7z"/>
	<path class="st9" d="M1200.3,544.7h-31.7c-1.9,0-3.5,1.6-3.5,3.5V583c0,1.9,1.6,3.5,3.5,3.5h31.7c1.9,0,3.5-1.6,3.5-3.5v-34.8
		C1203.8,546.3,1202.3,544.7,1200.3,544.7z"/>
	<path class="st9" d="M1153.2,544.7h-31.7c-1.9,0-3.5,1.6-3.5,3.5V583c0,1.9,1.6,3.5,3.5,3.5h31.7c1.9,0,3.5-1.6,3.5-3.5v-34.8
		C1156.7,546.3,1155.1,544.7,1153.2,544.7z"/>
	<path class="st9" d="M1283.8,545h-28.7c-1.4,0-2.5,1.1-2.5,2.5v13.6c0,1.4,1.1,2.5,2.5,2.5h28.7c1.4,0,2.5-1.1,2.5-2.5v-13.6
		C1286.3,546.1,1285.2,545,1283.8,545z"/>
	<path class="st9" d="M1322.9,567.9h-28.7c-1.4,0-2.5,1.1-2.5,2.5V584c0,1.4,1.1,2.5,2.5,2.5h28.7c1.4,0,2.5-1.1,2.5-2.5v-13.6
		C1325.4,569,1324.3,567.9,1322.9,567.9z"/>
	<path class="st9" d="M1244.1,567.9h-28.7c-1.4,0-2.5,1.1-2.5,2.5V584c0,1.4,1.1,2.5,2.5,2.5h28.7c1.4,0,2.5-1.1,2.5-2.5v-13.6
		C1246.6,569,1245.5,567.9,1244.1,567.9z"/>
	<path class="st9" d="M1283.5,567.9h-28.7c-1.4,0-2.5,1.1-2.5,2.5V584c0,1.4,1.1,2.5,2.5,2.5h28.7c1.4,0,2.5-1.1,2.5-2.5v-13.6
		C1286,569,1284.9,567.9,1283.5,567.9z"/>
	<rect x="658.6" y="240.4" class="st6" width="602.6" height="42.9"/>
	<path class="st10" d="M489.3,113.8l32.5,85.6c5.3,13.7,18.5,22.7,33.1,22.7h810c14.7,0,27.8-9,33.1-22.7l32.5-85.6H489.3z"/>
	<path class="st4" d="M501.4,113.8l25.3,67.5c0.9,2.5,3.3,4.1,6,4.1H1387c2.7,0,5-1.6,6-4.1l25.3-67.5H501.4z"/>
</g>
<g id="mouse_1_">
	<path class="st5" d="M1469.1,351.5c0-1.8-1.4-3.2-3.2-3.2h-11l0,0v30.3l0,0h11c1.8,0,3.2-1.4,3.2-3.2V351.5z"/>
	<path d="M1750,452.6v109h7.7V457.9c0-3.5,2.2-5.2,5.5-5.2h156.6V445h-162.2C1753.8,445,1750,448.6,1750,452.6z"/>
	<path d="M1469.1,360.3"/>
	<path class="st6" d="M1454.8,348.3L1454.8,348.3v-8.4c0-3.3-2.7-6-6-6h-49v59h49c3.3,0,6-2.7,6-6v-8.3l0,0V348.3z"/>
	<g id="_x3C_group_x3E_">
		<path id="XMLID_326_" class="st11" d="M1851.2,755c-0.8-30.9-8.6-34.4-11-51.3c-2.8-20.3,2.1-78-15.7-104
			c-11.6-17.1-33.5-38.6-71.2-38.6c-36.4,0-59.6,21.5-71.2,38.6c-17.7,26.1-12.9,83.7-15.7,104c-2.3,16.9-10.2,20.3-11,51.3
			c-1.5,59.9,12.4,148.5,97.7,148.8l0,0c0.1,0,0.1,0,0.2,0s0.1,0,0.2,0l0,0C1838.8,903.5,1852.7,814.9,1851.2,755z"/>
		<path id="XMLID_330_" class="st12" d="M1832.2,845.2c0,0-14.7-44.5-15.1-63.7s6.3-60.2,6.3-60.2s18-83.5,0-116
			c-24.4-44-63.2-43.5-70.2-43.5s-45.8-0.6-70.2,43.5c-18,32.5,0,116,0,116s6.7,41,6.3,60.2c-0.4,19.2-15.1,63.7-15.1,63.7
			s17.6,54.4,79,54.4C1814.6,899.6,1832.2,845.2,1832.2,845.2z"/>
		<path id="XMLID_324_" class="st6" d="M1824.6,701c0,0-18.6,8.4-34.4,13.7c-15,5-30.5,7.1-35.4,7.7V561.9h-1.7v160.5
			c-4.8-0.6-20.4-2.7-35.4-7.7c-15.9-5.3-34.4-13.7-34.4-13.7l-0.5,1.6c0,0,12.2,6.6,34.4,13.8c20.8,6.7,36.4,7.9,36.7,7.9l0,0l0,0
			l0,0l0,0c0.3,0,15.9-1.2,36.7-7.9c22.2-7.2,34.4-13.8,34.4-13.8L1824.6,701z"/>
		<g id="XMLID_323_">
			<path id="XMLID_325_" class="st6" d="M1836.7,769.8c-1.5-14.5,3.2-115.9-6-150.5c-11.8-44.1-58.2-55.2-58.2-55.2
				s43.9,15.4,52.2,56.9c6.5,32.5-10.4,128.5-9.3,163.8c0.9,29.3,16.7,60.9,16.7,60.9s4.7-9.8,7.4-18.9c2.7-9.2,4.7-22,4.7-22
				S1838.3,784.3,1836.7,769.8z"/>
			<path id="XMLID_329_" class="st6" d="M1675.9,619.4c-9.2,34.5-4.5,136-6,150.5s-7.5,35-7.5,35s2,12.8,4.7,22s7.4,18.9,7.4,18.9
				s15.8-31.6,16.7-60.9c1.1-35.3-15.8-131.3-9.3-163.8c8.3-41.5,52.2-56.9,52.2-56.9S1687.6,575.2,1675.9,619.4z"/>
		</g>
		<g id="XMLID_321_">
			<path id="XMLID_319_" d="M1759,678.1h-10c-4.1,0-7.5-3.3-7.5-7.5V613c0-4.1,3.3-7.5,7.5-7.5h10c4.1,0,7.5,3.3,7.5,7.5v57.6
				C1766.5,674.8,1763.1,678.1,1759,678.1z"/>
			<path id="XMLID_315_" class="st13" d="M1757.7,674.8h-7.5c-3.1,0-5.6-2.5-5.6-5.6v-54.7c0-3.1,2.5-5.6,5.6-5.6h7.5
				c3.1,0,5.6,2.5,5.6,5.6v54.7C1763.4,672.2,1760.8,674.8,1757.7,674.8z"/>
		</g>
	</g>
	<rect x="1469.1" y="359.7" width="450.7" height="7.5"/>
</g>
<circle id="circle-mouse" class="st14" cx="1755.5" cy="805.1" r="30"/>
<polygon id="circle-mouse-plus" class="st15" points="1768.5,804.1 1756.5,804.1 1756.5,792.1 1754.5,792.1 1754.5,804.1 
	1742.5,804.1 1742.5,806.1 1754.5,806.1 1754.5,818.1 1756.5,818.1 1756.5,806.1 1768.5,806.1 "/>
<circle id="circle-laptop" class="st14" cx="959.9" cy="789.9" r="30"/>
<polygon id="circle-laptop-plus" class="st15" points="972.9,788.9 960.9,788.9 960.9,776.9 958.9,776.9 958.9,788.9 946.9,788.9 
	946.9,790.9 958.9,790.9 958.9,802.9 960.9,802.9 960.9,790.9 972.9,790.9 "/>
<circle id="circle-pen" class="st14" cx="1535" cy="658.7" r="30"/>
<polygon id="circle-pen-plus" class="st15" points="1548,657.7 1536,657.7 1536,645.7 1534,645.7 1534,657.7 1522,657.7 1522,659.7 
	1534,659.7 1534,671.7 1536,671.7 1536,659.7 1548,659.7 "/>
<circle id="circle-sketchbook" class="st14" cx="305.6" cy="540.9" r="30"/>
<polygon id="circle-sketchbook-plus" class="st15" points="318.6,539.9 306.6,539.9 306.6,527.9 304.6,527.9 304.6,539.9 
	292.6,539.9 292.6,541.9 304.6,541.9 304.6,553.9 306.6,553.9 306.6,541.9 318.6,541.9 "/>
<g id="pen-popover">
	<polygon class="st16" points="1356.9,325.8 1356.9,606.2 1512.4,606.2 1534.9,628.7 1557.3,606.2 1707.8,606.2 1707.8,325.8 	"/>
	<rect x="1368.1" y="441.5" class="st17" width="328.5" height="128.9"/>
	<text transform="matrix(1 0 0 1 1398.573 456.4171)" class="st18 st19">Drawing directly on the screen</text>
	<text transform="matrix(1 0 0 1 1427.473 481.6171)" class="st18 st19">has many advantages. If</text>
	<text transform="matrix(1 0 0 1 1403.473 506.8171)" class="st18 st19">there are no writing materials</text>
	<text transform="matrix(1 0 0 1 1406.873 532.0171)" class="st18 st19">are not available I can still be</text>
	<text transform="matrix(1 0 0 1 1482.2729 557.2171)" class="st18 st19">productive.</text>
	<rect x="1399.7" y="353.6" class="st17" width="265.3" height="77.2"/>
	<text transform="matrix(1 0 0 1 1440.3566 374.9283)" class="st18 st20">Digitizer Pen &amp; </text>
	<text transform="matrix(1 0 0 1 1494.7566 410.9283)" class="st18 st20">Pencil</text>
</g>
<g id="laptop-popover">
	<polygon class="st16" points="773.4,505.9 773.4,737.5 937.4,737.5 959.8,759.9 982.3,737.5 1124.3,737.5 1124.3,505.9 	"/>
	<rect x="784.6" y="601.6" class="st17" width="328.5" height="113.9"/>
	<text transform="matrix(1 0 0 1 802.6843 616.5105)" class="st18 st19">Once the final design is approved</text>
	<text transform="matrix(1 0 0 1 824.3843 641.7105)" class="st18 st19">then a detailed layout with a</text>
	<text transform="matrix(1 0 0 1 799.8843 666.9105)" class="st18 st19">graphical editor like photoshop or</text>
	<text transform="matrix(1 0 0 1 869.7843 692.1105)" class="st18 st19">a preferred editor.</text>
	<rect x="816.1" y="532.7" class="st17" width="265.3" height="49.9"/>
	<text id="title_2_" transform="matrix(1 0 0 1 904.2314 554.0215)" class="st18 st20">Laptop</text>
</g>
<g id="sketchbook-popover">
	<polygon class="st16" points="358,398.4 358,519.8 335.6,542.2 358,564.7 358,686 708.9,686 708.9,398.4 	"/>
	<rect x="369.2" y="494.2" class="st17" width="328.5" height="156.9"/>
	<text transform="matrix(1 0 0 1 387.6407 509.0607)" class="st18 st19">The quickest way to get out ideas</text>
	<text transform="matrix(1 0 0 1 396.5407 534.2607)" class="st18 st19">is with pen and paper. Whether</text>
	<text transform="matrix(1 0 0 1 399.9407 559.4607)" class="st18 st19">its a webpage layout or a logo,</text>
	<text transform="matrix(1 0 0 1 385.9407 584.6607)" class="st18 st19">sketching out out a few variations</text>
	<text transform="matrix(1 0 0 1 391.7407 609.8607)" class="st18 st19">can speed up the developement</text>
	<text transform="matrix(1 0 0 1 497.8407 635.0607)" class="st18 st19">process.</text>
	<rect x="400.8" y="425.3" class="st17" width="265.3" height="49.9"/>
	<text id="title_3_" transform="matrix(1 0 0 1 459.4471 446.5719)" class="st18 st20">Sketchbook</text>
</g>
<g id="mouse-popover_1_">
	<polygon class="st16" points="1701.9,781.5 1701.9,690.9 1351,690.9 1351,919.4 1701.9,919.4 1701.9,828.8 1725.5,805.1 	"/>
	<rect x="1369.7" y="789.4" class="st17" width="314.4" height="113.9"/>
	<text transform="matrix(1 0 0 1 1405.9868 804.3576)" class="st18 st19">As accurate as a track pad is</text>
	<text transform="matrix(1 0 0 1 1391.2869 829.5576)" class="st18 st19">when working in photoshop or </text>
	<text transform="matrix(1 0 0 1 1401.8868 854.7576)" class="st18 st19">illustrator I need a mouse for </text>
	<text transform="matrix(1 0 0 1 1425.0868 879.9576)" class="st18 st19">zooming and selection.</text>
	<rect x="1393.8" y="719.6" class="st17" width="265.3" height="49.9"/>
	<text id="title_4_" transform="matrix(1 0 0 1 1484.4092 740.8624)" class="st18 st20">Mouse</text>
</g>
</svg>
