<?xml version="1.0" encoding="utf-8"?>
<!-- Generator: Adobe Illustrator 19.0.0, SVG Export Plug-In . SVG Version: 6.00 Build 0)  -->
<svg version="1.1" id="Layer_2" xmlns="http://www.w3.org/2000/svg" xmlns:xlink="http://www.w3.org/1999/xlink" x="0px" y="0px"
	 viewBox="0 0 35 52" style="enable-background:new 0 0 35 52;" xml:space="preserve">
<style type="text/css">
	.st0{fill:none;stroke:#FFFFFF;stroke-width:2;stroke-miterlimit:10;}
</style>
<g id="XMLID_2_">
	<circle id="XMLID_9_" class="st0" cx="19.8" cy="19.6" r="9"/>
	<g id="XMLID_6_">
		<path id="XMLID_8_" class="st0" d="M31.1,27.4c-0.9,0-1.6,0.4-2.1,1c-2.4,2.5-5.7,4.1-9.4,4.1c-7.1,0-12.9-5.8-12.9-12.9
			c0-7.1,5.8-12.9,12.9-12.9c3.5,0,6.6,1.4,8.9,3.6c0.5,0.6,1.3,1,2.1,1c1.6,0,2.8-1.3,2.8-2.8c0-0.8-0.3-1.5-0.8-2l0,0
			C29.3,3.1,24.6,1,19.6,1C9.3,1,1,9.3,1,19.5v28.4c0-0.7,0.2-2.2,1.1-3.7c0.7-1.1,2.1-2.5,3.5-3.5c4.6-3.2,9.4-2.7,13.9-2.7
			c5.3,0,10.1-2.2,13.5-5.8c0.5-0.5,0.9-1.2,0.9-2C33.9,28.7,32.7,27.4,31.1,27.4z"/>
		<path id="XMLID_7_" class="st0" d="M1,48.4v-0.2v-0.3C1,48.2,1,48.4,1,48.4z"/>
	</g>
	<path id="XMLID_5_" class="st0" d="M6.6,6.4V4.6c0-1.5-1.2-2.8-2.8-2.8h0C2.3,1.8,1,3,1,4.6v43.7C1,49.8,2.3,51,3.8,51h0
		c1.5,0,2.8-1.2,2.8-2.8v-8"/>
	<path id="XMLID_4_" class="st0" d="M31.6,27.6c1.5-2.2,2.4-4.9,2.4-7.8c0-3.4-1.2-6.5-3.1-8.9"/>
</g>
</svg>
