<?xml version="1.0" standalone="no"?>
<!DOCTYPE svg PUBLIC "-//W3C//DTD SVG 20010904//EN"
 "http://www.w3.org/TR/2001/REC-SVG-20010904/DTD/svg10.dtd">
<svg version="1.0" xmlns="http://www.w3.org/2000/svg"
 width="16.000000pt" height="16.000000pt" viewBox="0 0 16.000000 16.000000"
 preserveAspectRatio="xMidYMid meet">
<metadata>
Created by potrace 1.11, written by Peter Selinger 2001-2013
</metadata>
<g transform="translate(0.000000,16.000000) scale(0.002698,-0.002698)"
fill="#000000" stroke="none">
<path d="M1459 5896 c-2 -2 -33 -7 -68 -10 -95 -10 -298 -61 -343 -86 -10 -6
-22 -10 -28 -10 -6 0 -54 -21 -108 -47 -423 -202 -729 -569 -855 -1023 -56
-202 -55 -158 -55 -1810 0 -841 4 -1556 9 -1595 69 -544 392 -1003 878 -1250
l50 -25 2061 0 2062 0 76 41 c251 134 450 315 604 548 55 85 135 246 167 339
l21 62 0 1873 0 1872 -24 67 c-26 71 -92 212 -123 263 -153 250 -324 422 -566
568 -150 92 -382 179 -535 202 -21 3 -49 9 -62 12 -26 8 -3153 17 -3161 9z"/>
</g>
</svg>
