<svg version="1" xmlns="http://www.w3.org/2000/svg" width="21.333" height="21.333" viewBox="0 0 16.000000 16.000000"><path d="M3.864.009a.76.76 0 0 1-.157.026 5.716 5.716 0 0 0-.861.208c-.075.03-.174.064-.219.08a6.161 6.161 0 0 0-.739.398C1.061 1.283.421 2.164.163 3.102 0 3.682.005 3.55.01 8.066c.002 2.288.013 4.214.024 4.28.322 1.926 1.765 3.345 3.685 3.622.174.024 8.356.024 8.548 0a4.351 4.351 0 0 0 2.16-.925c.449-.355.945-.993 1.163-1.489l.104-.234a4.59 4.59 0 0 0 .163-.475.796.796 0 0 1 .021-.093c.019-.064.04-.171.083-.432.03-.187.035-.95.032-4.401-.005-2.296-.016-4.211-.027-4.254a17.89 17.89 0 0 1-.061-.285 4.174 4.174 0 0 0-.208-.696l-.104-.238C15.229 1.62 14.424.814 13.562.41a4.676 4.676 0 0 0-1.08-.344 2.16 2.16 0 0 1-.174-.035C12.252.011 3.883-.01 3.864.009z"/></svg>