<?xml version="1.0" standalone="no"?>
<!DOCTYPE svg PUBLIC "-//W3C//DTD SVG 20010904//EN"
 "http://www.w3.org/TR/2001/REC-SVG-20010904/DTD/svg10.dtd">
<svg version="1.0" xmlns="http://www.w3.org/2000/svg"
 width="16.000000pt" height="16.000000pt" viewBox="0 0 16.000000 16.000000"
 preserveAspectRatio="xMidYMid meet">
<metadata>
Created by potrace 1.11, written by Peter Selinger 2001-2013
</metadata>
<g transform="translate(0.000000,16.000000) scale(0.002667,-0.002667)"
fill="#000000" stroke="none">
<path d="M1449 5996 c-2 -2 -29 -7 -59 -10 -73 -9 -257 -53 -323 -78 -28 -11
-65 -24 -82 -30 -50 -19 -215 -107 -277 -149 -310 -211 -550 -541 -647 -893
-61 -217 -59 -168 -57 -1861 1 -858 5 -1580 9 -1605 121 -722 662 -1254 1382
-1358 65 -9 3133 -9 3205 0 296 39 572 157 810 347 168 133 354 372 436 558
14 32 32 72 39 88 16 36 56 153 61 178 2 10 5 26 8 35 7 24 15 64 31 162 11
70 13 356 12 1650 -2 861 -6 1579 -10 1595 -4 17 -14 64 -23 107 -16 80 -53
206 -78 261 -8 17 -25 57 -39 89 -137 310 -439 612 -762 764 -123 57 -291 111
-405 129 -25 4 -54 10 -65 13 -21 7 -3159 15 -3166 8z"/>
</g>
</svg>
