<svg width="40" height="40" viewBox="0 0 40 40" fill="none" xmlns="http://www.w3.org/2000/svg">
<g clip-path="url(#clip0_2_15)">
<mask id="mask0_2_15" style="mask-type:luminance" maskUnits="userSpaceOnUse" x="0" y="0" width="40" height="40">
<path d="M0 0H40V40H0V0Z" fill="white"/>
</mask>
<g mask="url(#mask0_2_15)">
<path d="M20.51 0.299999C21.51 0.299999 22.43 0.869999 22.87 1.77L31.09 18.19L39.74 35.5C39.9153 35.8484 40.0113 36.2312 40.021 36.6211C40.0307 37.011 39.9539 37.3981 39.7961 37.7548C39.6384 38.1114 39.4035 38.4287 39.1085 38.6838C38.8135 38.9388 38.4657 39.1254 38.09 39.23L37.92 39.27C37.8 39.3 37.68 39.31 37.56 39.32H37.38L20.5 35.99L9.94 18.19L18.14 1.77C18.3592 1.32664 18.6985 0.953758 19.1193 0.693858C19.5401 0.433958 20.0254 0.297488 20.52 0.299999H20.51Z" fill="#FFBB00"/>
<path d="M20.51 0.299999C21.51 0.299999 22.43 0.869999 22.87 1.77L31.09 18.19L20.5 35.98L3.65 39.33C3.19797 39.3323 2.75292 39.2185 2.35749 38.9995C1.96205 38.7805 1.62948 38.4636 1.39162 38.0792C1.15376 37.6948 1.01858 37.2558 0.999036 36.8042C0.979492 36.3526 1.07623 35.9035 1.28 35.5L9.94 18.2L18.14 1.77C18.3592 1.32664 18.6985 0.953758 19.1193 0.693858C19.5401 0.433958 20.0254 0.297488 20.52 0.299999H20.51Z" fill="url(#paint0_linear_2_15)"/>
<path d="M20.51 0.299995C21.51 0.299995 22.43 0.869995 22.87 1.77L31.09 18.19L20.5 35.98L9.94 18.19L18.14 1.77C18.3449 1.35306 18.6563 0.997593 19.0426 0.739488C19.4288 0.481382 19.8764 0.329781 20.34 0.299995H20.52H20.51Z" fill="url(#paint1_linear_2_15)"/>
</g>
</g>
<defs>
<linearGradient id="paint0_linear_2_15" x1="16.03" y1="18.01" x2="15.94" y2="39.33" gradientUnits="userSpaceOnUse">
<stop stop-color="#FFD748"/>
<stop offset="0.54" stop-color="#FFCD48"/>
<stop offset="1" stop-color="#FFCB48"/>
</linearGradient>
<linearGradient id="paint1_linear_2_15" x1="20.51" y1="34.72" x2="20.51" y2="15.01" gradientUnits="userSpaceOnUse">
<stop stop-color="#FFAD00"/>
<stop offset="1" stop-color="#FF7600"/>
</linearGradient>
<clipPath id="clip0_2_15">
<rect width="40" height="40" fill="white"/>
</clipPath>
</defs>
</svg>
