<svg width="42" height="42" viewBox="0 0 42 42" fill="none" xmlns="http://www.w3.org/2000/svg">
<path fill-rule="evenodd" clip-rule="evenodd" d="M21.5137 1.80316C20.7022 1.80316 19.9605 2.26213 19.5984 2.98836L11.5069 19.1713L21.8296 36.5286L38.4201 39.8276L38.5354 39.8235C38.6276 39.8168 38.719 39.8041 38.8091 39.7856L38.9656 39.7475C39.4733 39.6029 39.9174 39.2732 40.2022 38.8121C40.5924 38.1801 40.6276 37.3911 40.2952 36.7268L23.4293 2.98886C23.0672 2.26263 22.3252 1.80316 21.5137 1.80316ZM18.7034 2.54214C19.2347 1.47657 20.323 0.803162 21.5137 0.803162C22.7042 0.803162 23.7923 1.47638 24.3237 2.54168V2.54168L41.1895 36.2794V36.2794C41.6769 37.2535 41.6253 38.4107 41.053 39.3375C40.6333 40.0172 39.9773 40.5022 39.2278 40.7126L39.2194 40.715L39.0291 40.7613L39.021 40.763C38.8821 40.7919 38.7402 40.8118 38.5961 40.8217L38.5877 40.8223L38.3391 40.831L21.1978 37.4226L10.3681 19.2129L18.7034 2.54214Z" fill="#C4CCD8"/>
<path fill-rule="evenodd" clip-rule="evenodd" d="M21.512 1.80316C20.7005 1.80316 19.9588 2.26213 19.5967 2.98836L2.73061 36.7266C2.3982 37.3909 2.43332 38.1801 2.82359 38.8121C3.20576 39.431 3.87484 39.813 4.5995 39.8288L21.1961 36.5286L31.5189 19.1713L23.4276 2.98886C23.0655 2.26263 22.3235 1.80316 21.512 1.80316ZM18.7017 2.54214C19.233 1.47657 20.3213 0.803162 21.512 0.803162C22.7027 0.803162 23.791 1.47657 24.3223 2.54214L32.6577 19.2129L21.8279 37.4226L4.69541 40.8293H4.64618C3.55653 40.8293 2.54507 40.2643 1.97276 39.3375C1.40042 38.4107 1.34873 37.2537 1.83612 36.2796V36.2796L18.7017 2.54214Z" fill="#C4CCD8"/>
</svg>
