<svg width="40" height="40" viewBox="0 0 40 40" fill="none" xmlns="http://www.w3.org/2000/svg">
<g clip-path="url(#clip0_2_29)">
<path d="M23.95 14.05L14.21 16.17L2.03001 18.69C1.45413 18.8175 0.939025 19.1378 0.569895 19.5979C0.200765 20.0579 -0.000281794 20.6302 6.30598e-06 21.22V37.48C-0.00270365 37.8134 0.0612936 38.1439 0.188232 38.4522C0.315171 38.7605 0.502487 39.0403 0.739158 39.2751C0.975829 39.5099 1.25707 39.695 1.56634 39.8195C1.87561 39.944 2.20666 40.0053 2.54001 40H27V16.57C27.0029 16.1911 26.9213 15.8163 26.7612 15.4729C26.6011 15.1294 26.3664 14.826 26.0743 14.5847C25.7822 14.3433 25.4399 14.1701 25.0725 14.0776C24.705 13.9851 24.3216 13.9757 23.95 14.05Z" fill="url(#paint0_linear_2_29)"/>
<path d="M36.85 0.0500029L15.03 4.65C14.4574 4.77305 13.944 5.08797 13.5749 5.54262C13.2057 5.99726 13.0029 6.56436 13 7.15V40H37.46C38.88 39.8 40 38.7 40 37.3V2.55C40 0.950003 38.48 -0.249997 36.85 0.0500029Z" fill="url(#paint1_linear_2_29)"/>
<path d="M23.95 14.05C25.58 13.75 27 14.95 27 16.57V40H13V16.42L14.21 16.17L23.95 14.05Z" fill="url(#paint2_linear_2_29)"/>
</g>
<defs>
<linearGradient id="paint0_linear_2_29" x1="13.52" y1="36.35" x2="13.52" y2="18.21" gradientUnits="userSpaceOnUse">
<stop stop-color="#00D0E1"/>
<stop offset="1" stop-color="#00F5E7"/>
</linearGradient>
<linearGradient id="paint1_linear_2_29" x1="26.46" y1="2.94158e-06" x2="26.46" y2="40" gradientUnits="userSpaceOnUse">
<stop stop-color="#00D924"/>
<stop offset="1" stop-color="#00D924"/>
</linearGradient>
<linearGradient id="paint2_linear_2_29" x1="19.93" y1="40" x2="19.93" y2="14" gradientUnits="userSpaceOnUse">
<stop stop-color="#00D722"/>
<stop offset="0.85" stop-color="#00BD01"/>
</linearGradient>
<clipPath id="clip0_2_29">
<rect width="40" height="40" fill="white"/>
</clipPath>
</defs>
</svg>
