<svg width="42" height="42" viewBox="0 0 42 42" fill="none" xmlns="http://www.w3.org/2000/svg">
<g clip-path="url(#clip0_2_34)">
<path fill-rule="evenodd" clip-rule="evenodd" d="M24.8632 14.5551C26.7984 14.1941 28.5 15.6463 28.5 17.5713V41.5H3.53759C1.84282 41.5 0.5 40.1678 0.5 38.4754V22.2166C0.5 20.7636 1.47984 19.5623 2.90942 19.2068L2.91897 19.2044L15.109 16.6777L24.8559 14.5564L24.8632 14.5551ZM25.0536 15.5368L15.312 17.6569L3.14162 20.1795C2.14033 20.4325 1.5 21.2489 1.5 22.2166V38.4754C1.5 39.6106 2.39026 40.5 3.53759 40.5H27.5V17.5713C27.5 16.2671 26.3635 15.2967 25.0536 15.5368Z" fill="#C4CCD8"/>
<path fill-rule="evenodd" clip-rule="evenodd" d="M37.7625 0.554569C39.6698 0.201743 41.5 1.61094 41.5 3.5496V38.2964C41.5 39.9901 40.1553 41.2663 38.5322 41.4951L38.4975 41.5H13.5V8.1558C13.5 6.71002 14.483 5.51899 15.9104 5.16697L15.9186 5.16495L37.7625 0.554569ZM37.9502 1.53681L16.142 6.13983C15.1377 6.39087 14.5 7.20082 14.5 8.1558V40.5H38.4259C39.6279 40.3161 40.5 39.3962 40.5 38.2964V3.5496C40.5 2.28579 39.2885 1.2928 37.9502 1.53681Z" fill="#C4CCD8"/>
</g>
<defs>
<clipPath id="clip0_2_34">
<rect width="42" height="42" fill="white"/>
</clipPath>
</defs>
</svg>
