<svg width="42" height="42" viewBox="0 0 42 42" fill="none" xmlns="http://www.w3.org/2000/svg">
<path d="M32.5355 5H12.8373C11.9952 4.99965 11.2103 5.43011 10.7528 6.14328C10.2953 6.85645 10.2275 7.75502 10.5728 8.52983L15.6726 19.9861C15.9612 20.6307 15.9612 21.3693 15.6726 22.0139L9 37H32.5355C33.5124 36.9986 34.3976 36.4192 34.7969 35.5199L40.7839 22.0233C41.072 21.3731 41.072 20.63 40.7839 19.9799L34.7969 6.48015C34.3976 5.58077 33.5124 5.00138 32.5355 5Z" stroke="#C4CCD8"/>
<path d="M8.22789 37.0001C7.93071 37.0012 7.63602 36.9449 7.35956 36.834C6.81439 36.593 6.30809 36.0995 6.06014 35.55L1.21657 24.5326C0.874079 23.7577 0.941048 22.859 1.39446 22.1455C1.84788 21.4319 2.62596 21.0007 3.4613 21H22.968C23.9265 21.0007 24.7955 21.5732 25.1881 22.4625L29.9824 33.3108C30.1795 33.7618 30.5459 34.5823 30.666 34.8422C30.7692 35.0562 30.8985 35.2562 31.0509 35.4373C31.5396 36.0849 32.2527 36.7415 33.0283 36.953C33 36.9451 32.7342 37.0001 32.4828 37.0001C32.2733 37.0001 32.1873 36.9977 32.1331 36.9969H32.0777C32.0604 36.9974 32.0424 36.9983 32.0177 37.0001H8.22789Z" stroke="#C4CCD8"/>
</svg>
