<svg width="40" height="40" viewBox="0 0 40 40" fill="none" xmlns="http://www.w3.org/2000/svg">
<g clip-path="url(#clip0_2_125)">
<path d="M31.54 4H11.84C11 4 10.21 4.43 9.75 5.14C9.52393 5.49211 9.3891 5.89497 9.35767 6.31223C9.32625 6.72949 9.39922 7.148 9.57 7.53L14.67 18.99C14.97 19.63 14.97 20.37 14.67 21.01L8 36H31.54C32.51 36 33.4 35.42 33.8 34.52L39.78 21.02C40.08 20.37 40.08 19.63 39.78 18.98L33.8 5.48C33.6067 5.04125 33.2903 4.66794 32.8892 4.40527C32.4881 4.1426 32.0195 4.00183 31.54 4Z" fill="#9966FF"/>
<path d="M7.23 36C6.89112 35.9998 6.55647 35.9246 6.25 35.78H6.29C5.74228 35.5358 5.30418 35.0977 5.06 34.55L0.220004 23.53C0.0512515 23.1497 -0.0215008 22.7338 0.00814153 22.3188C0.0377839 21.9038 0.168913 21.5024 0.390004 21.15C0.609732 20.799 0.914845 20.5094 1.27684 20.3083C1.63883 20.1072 2.0459 20.0011 2.46 20H21.96C22.93 20 23.8 20.57 24.19 21.46L28.99 32.31L29.67 33.84C29.77 34.06 29.9 34.26 30.05 34.44C30.54 35.08 31.25 35.74 32.03 35.95C31.92 35.98 31.73 36 31.48 36H7.22H7.23Z" fill="url(#paint0_linear_2_125)"/>
<path d="M21.97 20C22.87 20 23.69 20.5 24.11 21.3L24.19 21.46L28.99 32.31L29.67 33.84C30.1741 34.7615 30.9893 35.4739 31.97 35.85L32.15 35.92C31.95 35.97 31.75 36 31.54 36H8L14.67 21C14.82 20.68 14.89 20.34 14.89 19.99H21.97V20Z" fill="url(#paint1_linear_2_125)"/>
</g>
<defs>
<linearGradient id="paint0_linear_2_125" x1="16.01" y1="35.59" x2="16.01" y2="21.16" gradientUnits="userSpaceOnUse">
<stop stop-color="#21CFE0"/>
<stop offset="0.17" stop-color="#20D1E0"/>
<stop offset="0.38" stop-color="#18E2E2"/>
<stop offset="0.61" stop-color="#13ECE3"/>
<stop offset="1" stop-color="#11EFE3"/>
</linearGradient>
<linearGradient id="paint1_linear_2_125" x1="21.07" y1="43" x2="21.07" y2="14.5" gradientUnits="userSpaceOnUse">
<stop stop-color="#0048E5"/>
<stop offset="1" stop-color="#9B66FF"/>
</linearGradient>
<clipPath id="clip0_2_125">
<rect width="40" height="40" fill="white"/>
</clipPath>
</defs>
</svg>
