<svg width="40" height="40" viewBox="0 0 40 40" fill="none" xmlns="http://www.w3.org/2000/svg">
<g clip-path="url(#clip0_2_52)">
<path d="M33.24 21.09C28.96 21.09 24.15 18.13 20 15.28C15.6 12.24 10.76 8.23 6.76 8.23C2.68 8.23 0 11.96 0 15.28V15.56C0 20.8643 2.10714 25.9514 5.85786 29.7021C9.60859 33.4529 14.6957 35.56 20 35.56C25.3043 35.56 30.3914 33.4529 34.1421 29.7021C37.8929 25.9514 40 20.8643 40 15.56C39.87 18.24 37.97 21.09 33.24 21.09Z" fill="url(#paint0_linear_2_52)"/>
<path d="M33.24 8.24C29.24 8.24 24.4 12.24 20 15.28C15.85 18.13 11.04 21.08 6.76 21.08C2.03 21.08 0.13 18.24 0 15.56C0 20.8643 2.10714 25.9514 5.85786 29.7021C9.60859 33.4529 14.6957 35.56 20 35.56C25.3043 35.56 30.3914 33.4529 34.1421 29.7021C37.8929 25.9514 40 20.8643 40 15.56V15.28C40 11.96 37.33 8.23 33.24 8.24Z" fill="url(#paint1_linear_2_52)"/>
<path d="M20 15.28C24.15 18.13 28.96 21.08 33.24 21.08C37.97 21.08 39.87 18.24 40 15.56C40 20.8643 37.8929 25.9514 34.1421 29.7021C30.3914 33.4529 25.3043 35.56 20 35.56C14.6957 35.56 9.60859 33.4529 5.85786 29.7021C2.10714 25.9514 0 20.8643 0 15.56C0.13 18.24 2.03 21.09 6.76 21.09C11.04 21.09 15.85 18.13 20 15.28Z" fill="url(#paint2_linear_2_52)"/>
</g>
<defs>
<linearGradient id="paint0_linear_2_52" x1="20" y1="20.63" x2="20" y2="9.57" gradientUnits="userSpaceOnUse">
<stop stop-color="#FFD748"/>
<stop offset="0.21" stop-color="#FFD644"/>
<stop offset="0.33" stop-color="#FFD438"/>
<stop offset="0.45" stop-color="#FFD024"/>
<stop offset="0.57" stop-color="#FFCB09"/>
<stop offset="1" stop-color="#FFC900"/>
</linearGradient>
<linearGradient id="paint1_linear_2_52" x1="20" y1="9.56" x2="20" y2="21.9" gradientUnits="userSpaceOnUse">
<stop stop-color="#009C00"/>
<stop offset="1" stop-color="#00BA18"/>
</linearGradient>
<linearGradient id="paint2_linear_2_52" x1="20" y1="35.28" x2="20" y2="15.28" gradientUnits="userSpaceOnUse">
<stop offset="0.13" stop-color="#00CB1B"/>
<stop offset="1" stop-color="#00D924"/>
</linearGradient>
<clipPath id="clip0_2_52">
<rect width="40" height="40" fill="white"/>
</clipPath>
</defs>
</svg>
