<svg width="42" height="42" viewBox="0 0 42 42" fill="none" xmlns="http://www.w3.org/2000/svg">
<path fill-rule="evenodd" clip-rule="evenodd" d="M0.5 15.275C0.5 11.7512 3.33816 7.72498 7.7625 7.72498C9.91046 7.72498 12.2219 8.79494 14.4923 10.1845C16.0324 11.1271 17.6066 12.2522 19.1367 13.3458C19.8651 13.8664 20.5835 14.3799 21.2835 14.8631C23.3539 16.285 25.5693 17.7205 27.7905 18.8003C30.0162 19.8823 32.2086 20.5875 34.2375 20.5875C36.4991 20.5875 38.0228 19.9105 38.9951 18.9709C39.9722 18.0265 40.4387 16.7722 40.5006 15.5375L41.5 15.5625C41.5 26.8843 32.3218 36.0625 21 36.0625C9.67816 36.0625 0.5 26.8843 0.5 15.5625V15.275ZM7.7625 8.72498C4.01184 8.72498 1.5 12.1738 1.5 15.275V15.5625C1.5 26.3321 10.2304 35.0625 21 35.0625C30.5374 35.0625 38.4756 28.2155 40.1672 19.1689C40.0212 19.3493 39.8624 19.5234 39.69 19.69C38.4974 20.8426 36.7071 21.5875 34.2375 21.5875C31.9914 21.5875 29.6401 20.8114 27.3533 19.6997C25.0621 18.5858 22.7964 17.1152 20.7169 15.6872L20.7159 15.6865C19.9861 15.1827 19.2519 14.6578 18.5155 14.1314C17.0024 13.0497 15.4805 11.9617 13.9702 11.0374C11.7218 9.66127 9.61454 8.72498 7.7625 8.72498Z" fill="#C4CCD8"/>
<path fill-rule="evenodd" clip-rule="evenodd" d="M34.2367 7.73745C38.6622 7.72442 41.5 11.7519 41.5 15.275V15.5625C41.5 26.8843 32.3218 36.0625 21 36.0625C9.67816 36.0625 0.5 26.8843 0.5 15.5625L1.49937 15.5375C1.56126 16.7722 2.02774 18.0265 3.00489 18.9709C3.97714 19.9105 5.50089 20.5875 7.7625 20.5875C9.79136 20.5875 11.9838 19.8823 14.2095 18.8003C16.4307 17.7205 18.6461 16.285 20.7165 14.8631C21.4079 14.3858 22.1172 13.8794 22.8363 13.366C24.375 12.2674 25.9585 11.1367 27.5082 10.1904C29.7784 8.8041 32.0894 7.73771 34.2367 7.73745ZM40.5 15.275C40.5 12.1733 37.9882 8.72601 34.239 8.73745L34.2375 8.73746C32.3851 8.73746 30.2776 9.67099 28.0293 11.0439C26.5102 11.9716 24.9787 13.0652 23.4564 14.1523C22.7294 14.6715 22.0045 15.1891 21.2841 15.6865L21.2831 15.6872C19.2036 17.1152 16.9379 18.5858 14.6467 19.6997C12.3599 20.8114 10.0086 21.5875 7.7625 21.5875C5.29286 21.5875 3.50255 20.8426 2.30995 19.69C2.13763 19.5234 1.97876 19.3493 1.83283 19.1689C3.52443 28.2155 11.4626 35.0625 21 35.0625C31.7696 35.0625 40.5 26.3321 40.5 15.5625V15.275Z" fill="#C4CCD8"/>
</svg>
