<svg width="40" height="40" viewBox="0 0 40 40" fill="none" xmlns="http://www.w3.org/2000/svg">
<path fill-rule="evenodd" clip-rule="evenodd" d="M2 10.02C2 9.07 2.5 8.19 3.33 7.72L16.08 0.359996C16.4844 0.126533 16.9431 0.00362396 17.41 0.00362396C17.8769 0.00362396 18.3356 0.126533 18.74 0.359996L31.49 7.72C31.8938 7.95315 32.2293 8.28837 32.4627 8.69205C32.6962 9.09573 32.8194 9.55368 32.82 10.02V16.02L27.82 13.13C27.4156 12.8965 26.9569 12.7736 26.49 12.7736C26.0231 12.7736 25.5644 12.8965 25.16 13.13L15.65 18.61C15.2443 18.8419 14.9068 19.1766 14.6716 19.5803C14.4364 19.9841 14.3116 20.4427 14.31 20.91V31.86C14.31 32.76 14.76 33.58 15.5 34.07L3.33 27.05C2.92616 26.8168 2.59071 26.4816 2.35728 26.0779C2.12385 25.6743 2.00064 25.2163 2 24.75V10.02Z" fill="url(#paint0_linear_2_70)"/>
<path fill-rule="evenodd" clip-rule="evenodd" d="M15.5 34.07L16.08 34.41C16.9 34.89 17.92 34.89 18.74 34.41L31.49 27.05C31.8938 26.8168 32.2293 26.4816 32.4627 26.0779C32.6962 25.6743 32.8194 25.2163 32.82 24.75V16.03L37.29 18.61C37.6938 18.8432 38.0293 19.1784 38.2627 19.5821C38.4962 19.9857 38.6194 20.4437 38.62 20.91V31.86C38.62 32.81 38.12 33.69 37.29 34.16L27.81 39.64C26.99 40.12 25.98 40.12 25.16 39.64L15.65 34.17L15.5 34.07Z" fill="#9966FF"/>
<path fill-rule="evenodd" clip-rule="evenodd" d="M32.82 16.03L27.82 13.13C27.4156 12.8965 26.9569 12.7736 26.49 12.7736C26.0231 12.7736 25.5644 12.8965 25.16 13.13L15.65 18.61C15.2443 18.8419 14.9068 19.1766 14.6716 19.5803C14.4364 19.9841 14.3116 20.4427 14.31 20.91V31.86C14.31 32.76 14.76 33.58 15.5 34.07L16.08 34.41C16.9 34.89 17.92 34.89 18.74 34.41L31.49 27.05C31.8938 26.8168 32.2293 26.4816 32.4627 26.0779C32.6962 25.6743 32.8194 25.2163 32.82 24.75V16.03Z" fill="url(#paint1_linear_2_70)"/>
<defs>
<linearGradient id="paint0_linear_2_70" x1="17.41" y1="2.24" x2="17" y2="32.18" gradientUnits="userSpaceOnUse">
<stop stop-color="#11EFE3"/>
<stop offset="0.33" stop-color="#15E8E2"/>
<stop offset="0.74" stop-color="#1FD3E0"/>
<stop offset="1" stop-color="#21CFE0"/>
</linearGradient>
<linearGradient id="paint1_linear_2_70" x1="21.95" y1="40.81" x2="30.59" y2="9.56" gradientUnits="userSpaceOnUse">
<stop stop-color="#0048E5"/>
<stop offset="0.64" stop-color="#625AF5"/>
<stop offset="1" stop-color="#8A62FC"/>
</linearGradient>
</defs>
</svg>
