<svg width="42" height="42" viewBox="0 0 42 42" fill="none" xmlns="http://www.w3.org/2000/svg">
<path fill-rule="evenodd" clip-rule="evenodd" d="M16.2394 1.90905C17.1824 1.36461 18.3442 1.36461 19.2872 1.90905L31.5028 8.96195C32.4458 9.50636 33.0267 10.5124 33.0267 11.6013V25.7073C33.0267 26.7961 32.4458 27.8022 31.5028 28.3466L19.2872 35.3995C18.3442 35.9439 17.1824 35.9439 16.2394 35.3995L4.02383 28.3466C3.08089 27.8022 2.5 26.7961 2.5 25.7073V11.6013C2.5 10.5125 3.08088 9.50637 4.02382 8.96195L16.2394 1.90905ZM18.7872 2.77508C18.1536 2.40926 17.373 2.40926 16.7394 2.77508L4.52384 9.82796C3.89028 10.1938 3.5 10.8697 3.5 11.6013V25.7073C3.5 26.4389 3.89027 27.1148 4.52383 27.4806L16.7394 34.5335C17.373 34.8993 18.1536 34.8993 18.7872 34.5335L31.0028 27.4806C31.6364 27.1148 32.0267 26.4388 32.0267 25.7073V11.6013C32.0267 10.8697 31.6364 10.1938 31.0028 9.82797L18.7872 2.77508Z" fill="#C4CCD8"/>
<path fill-rule="evenodd" clip-rule="evenodd" d="M24.9344 14.147C25.8772 13.6039 27.0381 13.6047 27.9802 14.1489L37.0609 19.3951C38.0034 19.9396 38.5841 20.9454 38.5841 22.034V32.5267C38.5841 33.6152 38.0034 34.6211 37.0609 35.1656L27.9802 40.4117C27.0381 40.9559 25.8772 40.9568 24.9344 40.4137C24.9344 40.4137 24.9344 40.4137 24.9344 40.4137L15.8233 35.1655C14.8789 34.6214 14.2969 33.6144 14.2969 32.5245V22.0362C14.2969 20.9462 14.8789 19.9393 15.8233 19.3952L24.9344 14.147C24.9344 14.147 24.9344 14.147 24.9344 14.147ZM27.48 15.0148C26.8469 14.6491 26.067 14.6487 25.4336 15.0135L16.3225 20.2617C16.3225 20.2618 16.3225 20.2617 16.3225 20.2617C15.6879 20.6273 15.2969 21.3038 15.2969 22.0362V32.5245C15.2969 33.2568 15.6879 33.9334 16.3225 34.2989C16.3225 34.2989 16.3225 34.2989 16.3225 34.2989L25.4336 39.5471C26.0669 39.912 26.8469 39.9115 27.48 39.5459C27.48 39.5458 27.48 39.5459 27.48 39.5459L36.5607 34.2998C37.194 33.9339 37.5841 33.258 37.5841 32.5267V22.034C37.5841 21.3026 37.194 20.6268 36.5607 20.2609L27.48 15.0148Z" fill="#C4CCD8"/>
</svg>
