<svg width="42" height="42" viewBox="0 0 42 42" fill="none" xmlns="http://www.w3.org/2000/svg">
<path fill-rule="evenodd" clip-rule="evenodd" d="M0.5 3.46479C0.5 1.82638 1.83072 0.5 3.47002 0.5H24.53C26.1692 0.5 27.5 1.82638 27.5 3.46479V24.1814C27.5 25.3535 26.8084 26.4149 25.7362 26.8906L4.67632 36.2444C3.75787 36.6519 2.69515 36.5681 1.8522 36.0215C1.00912 35.4749 0.5 34.5393 0.5 33.5352V3.46479ZM3.47002 1.5C2.381 1.5 1.5 2.38066 1.5 3.46479V33.5352C1.5 34.1999 1.837 34.8199 2.39622 35.1825C2.95555 35.5451 3.66095 35.6009 4.2706 35.3304M4.2706 35.3304L25.3304 25.9767C26.042 25.661 26.5 24.9571 26.5 24.1814V3.46479C26.5 2.38066 25.619 1.5 24.53 1.5H3.47002" fill="#C4CCD8"/>
<path fill-rule="evenodd" clip-rule="evenodd" d="M13.5 26.5C13.5 18.7681 19.7681 12.5 27.5 12.5C35.2319 12.5 41.5 18.7681 41.5 26.5C41.5 34.2319 35.2319 40.5 27.5 40.5C19.7681 40.5 13.5 34.2319 13.5 26.5ZM27.5 13.5C20.3203 13.5 14.5 19.3203 14.5 26.5C14.5 33.6797 20.3203 39.5 27.5 39.5C34.6797 39.5 40.5 33.6797 40.5 26.5C40.5 19.3203 34.6797 13.5 27.5 13.5Z" fill="#C4CCD8"/>
</svg>
