<svg width="42" height="42" viewBox="0 0 42 42" fill="none" xmlns="http://www.w3.org/2000/svg">
<g clip-path="url(#clip0_2_57)">
<path fill-rule="evenodd" clip-rule="evenodd" d="M13.4466 0.510433C17.1237 0.366109 20.7011 1.72419 23.3532 4.27157C26.0052 6.81898 27.5028 10.3356 27.5 14.0101V24.5239C27.5 26.1684 26.1648 27.5 24.5196 27.5H13.9716C13.5694 27.5 13.1811 27.4738 12.8047 27.4426L12.801 27.4423C5.71189 26.8004 0.334014 20.7814 0.503916 13.6756C0.673816 6.56994 6.3332 0.813963 13.4449 0.510503L13.4466 0.510433ZM13.4867 1.50963C6.89989 1.79114 1.6609 7.12194 1.50363 13.6995C1.34636 20.2768 6.32408 25.8508 12.8894 26.4462C13.2563 26.4766 13.6116 26.5 13.9716 26.5H24.5196C25.6142 26.5 26.5 25.6144 26.5 24.5239V14.0097C26.5026 10.608 25.1162 7.35162 22.6604 4.99276C20.2049 2.63408 16.8921 1.3762 13.4867 1.50963Z" fill="#C4CCD8"/>
<path fill-rule="evenodd" clip-rule="evenodd" d="M14.5 17.4761C14.5 15.8316 15.8352 14.5 17.4804 14.5H28.0284C28.4306 14.5 28.8189 14.5261 29.1953 14.5574L29.199 14.5577C36.2882 15.1996 41.666 21.2186 41.4961 28.3244C41.3261 35.43 35.6668 41.1861 28.5551 41.4895L28.5534 41.4896C24.8763 41.6338 21.2989 40.2759 18.6468 37.7284C15.9948 35.1811 14.4973 31.6645 14.5 27.9901V27.9901V17.4761ZM17.4804 15.5C16.3858 15.5 15.5 16.3856 15.5 17.4761V27.9903C15.4974 31.392 16.8838 34.6484 19.3396 37.0072C21.7951 39.3659 25.1079 40.6238 28.5134 40.4904C35.1001 40.2089 40.3391 34.8781 40.4963 28.3004C40.6536 21.7232 35.676 16.1492 29.1106 15.5538C28.7437 15.5234 28.3884 15.5 28.0284 15.5H17.4804Z" fill="#C4CCD8"/>
</g>
<defs>
<clipPath id="clip0_2_57">
<rect width="42" height="42" fill="white"/>
</clipPath>
</defs>
</svg>
