<svg width="42" height="42" viewBox="0 0 42 42" fill="none" xmlns="http://www.w3.org/2000/svg">
<path fill-rule="evenodd" clip-rule="evenodd" d="M15.3981 7.03806C15.6935 5.64956 17.1132 4.5 18.5328 4.5ZM15.3981 7.03806L8.94514 37.5H32.2929C33.1606 37.5 34.0392 36.7885 34.2196 35.9397L40.407 6.8305C40.5507 6.15433 40.396 5.57784 40.0694 5.17454C39.7428 4.77125 39.2111 4.5 38.5198 4.5H18.5328M14.4199 6.83047C14.8133 4.98001 16.6409 3.5 18.5328 3.5H38.5198C39.4843 3.5 40.3129 3.88619 40.8465 4.54523C41.3802 5.20426 41.5857 6.09499 41.3852 7.03838L35.1978 36.1477C34.9192 37.4583 33.6328 38.5 32.2929 38.5H7.71111L14.4199 6.83047Z" fill="#C4CCD8"/>
<path fill-rule="evenodd" clip-rule="evenodd" d="M1.93043 21.1745C1.60385 21.5778 1.44908 22.1543 1.5928 22.8304L4.37926 35.9397C4.55967 36.7885 5.43826 37.5 6.306 37.5H30.1057C29.753 37.1188 29.4956 36.6532 29.3881 36.1477L26.6017 23.0384C26.6017 23.0384 26.6017 23.0384 26.6017 23.0384C26.3065 21.6498 24.8867 20.5 23.467 20.5H3.47998C2.78872 20.5 2.25701 20.7713 1.93043 21.1745ZM32.2929 37.5C31.4251 37.5 30.5467 36.7885 30.3663 35.9397L27.5799 22.8304C27.1865 20.98 25.3589 19.5 23.467 19.5H3.47998C2.5155 19.5 1.68696 19.8862 1.15328 20.5452C0.619609 21.2043 0.414121 22.095 0.614649 23.0384C0.614649 23.0384 0.61465 23.0384 0.614649 23.0384L3.40111 36.1477C3.67969 37.4583 4.96609 38.5 6.306 38.5H32.2929V37.5Z" fill="#C4CCD8"/>
</svg>
