<svg width="40" height="40" viewBox="0 0 40 40" fill="none" xmlns="http://www.w3.org/2000/svg">
<path d="M13.9 5.93C14.1045 5.11166 14.5708 4.38254 15.2279 3.85363C15.885 3.32471 16.6969 3.02496 17.54 3H37.53C39.19 3 40.25 4.31 39.91 5.93L33.71 35.04C33.5757 35.5841 33.2679 36.0697 32.833 36.4234C32.3982 36.777 31.8601 36.9794 31.3 37H7.32001L13.9 5.93Z" fill="url(#paint0_linear_2_75)"/>
<path d="M0.100001 21.93C-0.239999 20.31 0.820001 19 2.48 19H22.47C23.3097 19.0292 24.117 19.3309 24.7701 19.8595C25.4231 20.3881 25.8864 21.1149 26.09 21.93L28.88 35.04C29.0143 35.5841 29.3221 36.0697 29.757 36.4234C30.1918 36.777 30.7299 36.9794 31.29 37H5.31C4.21 37 3.12 36.12 2.89 35.04L0.100001 21.94V21.93Z" fill="#9A66FF"/>
<path d="M31.3 37C30.19 37 29.1 36.12 28.88 35.04L26.09 21.94C25.8883 21.123 25.4258 20.394 24.7726 19.8635C24.1193 19.333 23.311 19.0298 22.47 19H11.14L7.32999 37H31.29H31.3Z" fill="url(#paint1_linear_2_75)"/>
<defs>
<linearGradient id="paint0_linear_2_75" x1="23.65" y1="2.99" x2="23.65" y2="37" gradientUnits="userSpaceOnUse">
<stop stop-color="#FF5091"/>
<stop offset="1" stop-color="#E03071"/>
</linearGradient>
<linearGradient id="paint1_linear_2_75" x1="19.31" y1="19" x2="19.31" y2="37" gradientUnits="userSpaceOnUse">
<stop stop-color="#6E00F5"/>
<stop offset="1" stop-color="#9860FE"/>
</linearGradient>
</defs>
</svg>
