<svg width="42" height="42" viewBox="0 0 42 42" fill="none" xmlns="http://www.w3.org/2000/svg">
<path fill-rule="evenodd" clip-rule="evenodd" d="M10.5011 4.5C10.5011 2.84315 11.8442 1.5 13.5011 1.5H36.5011C38.1579 1.5 39.5011 2.84315 39.5011 4.5V29.8252C39.5011 31.183 38.5891 32.3716 37.2775 32.723L9.27791 40.1829L9.01895 39.2171C9.0192 39.217 9.0187 39.2171 9.01895 39.2171C9.90374 38.9795 10.5011 38.2252 10.5011 37.3314V4.5ZM11.1964 38.6369L37.0187 31.757C37.8931 31.5228 38.5011 30.7304 38.5011 29.8252V4.5C38.5011 3.39543 37.6056 2.5 36.5011 2.5H13.5011C12.3965 2.5 11.5011 3.39543 11.5011 4.5V37.3314C11.5011 37.8017 11.3921 38.2444 11.1964 38.6369Z" fill="#C4CCD8"/>
<path fill-rule="evenodd" clip-rule="evenodd" d="M26.0209 14.7127C26.0209 14.7128 26.0209 14.7127 26.0209 14.7127L36.5341 32.9219L9.75774 40.0968C9.75773 40.0968 9.75774 40.0968 9.75774 40.0968C8.44615 40.4482 7.06207 39.8749 6.38317 38.699L0.906291 29.2126C0.906289 29.2126 0.906294 29.2126 0.906291 29.2126C0.0777915 27.7777 0.569404 25.9431 2.00434 25.1146L21.9228 13.6146C21.9228 13.6146 21.9228 13.6146 21.9228 13.6146C23.3576 12.7861 25.1928 13.2777 26.0209 14.7127ZM25.1547 15.2125C24.6029 14.256 23.3795 13.9282 22.4228 14.4806L2.50434 25.9806C1.54768 26.5329 1.21997 27.756 1.77231 28.7126L7.24919 38.199C7.7018 38.9829 8.62453 39.3652 9.49888 39.1308L35.0165 32.2933L25.1547 15.2125Z" fill="#C4CCD8"/>
</svg>
