<svg width="40" height="40" viewBox="0 0 40 40" fill="none" xmlns="http://www.w3.org/2000/svg">
<path d="M7.61997 26.48L7.59997 26.45C7.20316 26.052 6.9559 25.5292 6.89997 24.97C6.86117 24.6162 6.89868 24.2581 7.00997 23.92C7.05997 23.64 7.13997 23.38 7.24997 23.15L7.32997 22.98L14.67 10H36.52C37.1562 10.009 37.7655 10.2583 38.2255 10.6979C38.6855 11.1375 38.9622 11.7348 39 12.37L39.01 12.53V35.45C39.0193 36.0935 38.7821 36.7161 38.347 37.1902C37.9119 37.6644 37.3119 37.9541 36.67 38L36.51 38.01H19C19.2412 37.7464 19.4232 37.4342 19.5336 37.0944C19.644 36.7546 19.6803 36.395 19.64 36.04C19.57 35.38 19.21 34.95 18.69 34.57L18.54 34.47L7.91997 26.74L7.77997 26.64V26.63L7.91997 26.73C7.82532 26.6662 7.73511 26.596 7.64997 26.52L7.61997 26.49V26.48Z" fill="url(#paint0_linear_2_112)"/>
<path d="M22.05 2.1C22.75 1.95 23.46 2.1 24.04 2.51L30.6 7.23C31.0302 7.53905 31.3512 7.97677 31.5165 8.48001C31.6819 8.98325 31.6831 9.52601 31.52 10.03V10L23.02 36L22.97 36.2L22.94 36.28L22.91 36.37L22.76 36.69L22.74 36.73L22.55 37.02L22.52 37.06C22.4483 37.1478 22.3715 37.2312 22.29 37.31L22.26 37.33C22.089 37.4931 21.8932 37.6281 21.68 37.73L21.65 37.76C21.55 37.81 21.45 37.86 21.34 37.89H21.29L20.96 37.97H20.91C20.791 37.9894 20.6706 37.9995 20.55 38H3.53002C3.19608 38 2.86545 37.9339 2.55719 37.8055C2.24892 37.6771 1.96913 37.489 1.73393 37.2519C1.49873 37.0149 1.31279 36.7336 1.18683 36.4243C1.06087 36.1151 0.997378 35.7839 1.00002 35.45V12.55C1.00002 11.14 2.13002 10 3.53002 10H16.6L20.4 3.3C20.7208 2.74329 21.2437 2.33147 21.86 2.15L22.04 2.1H22.05Z" fill="#0073E6"/>
<path d="M31.38 10L23.01 36L22.99 36.1L22.97 36.2L22.94 36.28L22.91 36.37L22.84 36.53L22.76 36.69L22.74 36.73L22.64 36.88L22.55 37.02L22.52 37.06L22.41 37.19L22.29 37.31L22.26 37.33C22.18 37.42 22.09 37.49 22 37.56L21.85 37.66L21.68 37.74L21.65 37.76L21.5 37.83L21.34 37.89H21.29L21.13 37.94L21.03 37.95L21.13 37.85C21.53 37.34 21.72 36.68 21.64 36.03C21.57 35.37 21.21 34.94 20.69 34.56L20.54 34.46L9.92002 26.73L9.78002 26.63C9.68719 26.5497 9.6003 26.4628 9.52003 26.37L9.48002 26.32C9.4383 26.2748 9.39828 26.2281 9.36002 26.18L9.34002 26.14L9.31003 26.1C9.24633 26.0042 9.18952 25.9039 9.14003 25.8L9.11002 25.74C9.04761 25.6047 8.99741 25.4642 8.96002 25.32L8.95002 25.25L8.93002 25.15L8.92002 25.09C8.868 24.7534 8.88501 24.4098 8.97002 24.08L8.99002 23.99C9.00264 23.9564 9.01597 23.923 9.03002 23.89C9.06002 23.64 9.13002 23.39 9.24002 23.15L9.34002 22.98L16.66 10H31.37H31.38Z" fill="url(#paint1_linear_2_112)"/>
<defs>
<linearGradient id="paint0_linear_2_112" x1="22.92" y1="11.68" x2="22.92" y2="39.68" gradientUnits="userSpaceOnUse">
<stop offset="0.1" stop-color="#FF80FF"/>
<stop offset="0.39" stop-color="#FF7BF9"/>
<stop offset="0.77" stop-color="#FF6EEA"/>
<stop offset="1" stop-color="#FF62DC"/>
</linearGradient>
<linearGradient id="paint1_linear_2_112" x1="31.38" y1="27.93" x2="11.62" y2="27.93" gradientUnits="userSpaceOnUse">
<stop stop-color="#0073E6"/>
<stop offset="1" stop-color="#00299C"/>
</linearGradient>
</defs>
</svg>
