<svg width="42" height="42" viewBox="0 0 42 42" fill="none" xmlns="http://www.w3.org/2000/svg">
<path d="M32.5139 11.0401L24.0144 36.9987L23.9931 37.0957L23.9671 37.1928L23.9356 37.2851C23.9276 37.3131 23.9181 37.3407 23.9073 37.3678L23.8404 37.5295L23.7623 37.686L23.7371 37.7305L23.6494 37.8772L23.5512 38.0169L23.5197 38.0582L23.41 38.1889L23.2928 38.3128L23.2644 38.3351C23.182 38.4161 23.0935 38.4905 22.9998 38.5578L22.8461 38.6555L22.6846 38.7392L22.6531 38.7582L22.4974 38.8279L22.338 38.8887H22.2908L22.1253 38.9362C22.0969 38.9421 22.0773 38.9088 22.096 38.8868L22.1273 38.85C22.5293 38.3355 22.7156 37.6814 22.641 37.0275C22.5657 36.3681 22.2056 35.9417 21.6863 35.5596L21.5409 35.4563L10.9159 27.7282L10.7794 27.6216C10.7308 27.5808 10.6841 27.5385 10.6392 27.4947C10.6297 27.4854 10.6193 27.4751 10.6089 27.4646C10.5779 27.4333 10.5481 27.4016 10.5193 27.3692L10.4797 27.3237C10.4563 27.2961 10.4339 27.2685 10.4121 27.2405C10.3958 27.2195 10.3794 27.1976 10.3633 27.1755L10.336 27.1371L10.3098 27.0987C10.2953 27.0771 10.2809 27.0549 10.2668 27.0324C10.2502 27.0058 10.2343 26.9792 10.2188 26.9522C10.2083 26.934 10.1981 26.9156 10.1881 26.8971C10.1696 26.863 10.1519 26.8283 10.135 26.7932L10.1092 26.7378C10.0957 26.7079 10.0825 26.6772 10.07 26.6463C10.0615 26.6252 10.0534 26.6044 10.0456 26.5836C10.0318 26.5467 10.0187 26.509 10.0066 26.4711C10.0014 26.4549 9.99655 26.4393 9.99185 26.4235C9.98148 26.3889 9.97174 26.3535 9.96277 26.3179L9.94711 26.252C9.94013 26.2208 9.93383 26.1898 9.92812 26.1587L9.91596 26.0868C9.90164 25.9938 9.89254 25.9 9.88874 25.8058C9.88573 25.731 9.88607 25.6558 9.88982 25.5806C9.89593 25.4634 9.90924 25.352 9.9302 25.2413C9.93616 25.2098 9.94279 25.1781 9.95005 25.1466C9.95552 25.1228 9.9613 25.0993 9.96744 25.0758L9.99101 24.9916C9.99969 24.9626 10.0089 24.9336 10.0187 24.9047L10.0253 24.8855C10.0608 24.6352 10.1331 24.3874 10.2442 24.1505L10.3348 23.975L17.6139 11.0001M32.5139 11.0401L32.5182 11.0375C32.8552 10.0035 32.485 8.87014 31.6026 8.23441L25.0401 3.51253C24.4664 3.10012 23.7449 2.94975 23.0542 3.09861L22.8683 3.1462C22.2572 3.32788 21.7359 3.73731 21.4151 4.29378L17.6094 10.9995M32.5139 11.0401L32.5297 11" stroke="#C4CCD8"/>
<path d="M37.5 11H4.5C3.11929 11 2 12.1193 2 13.5V36.5C2 37.8807 3.11929 39 4.5 39H37.5C38.8807 39 40 37.8807 40 36.5V13.5C40 12.1193 38.8807 11 37.5 11Z" stroke="#C4CCD8"/>
</svg>
