<svg width="40" height="40" viewBox="0 0 40 40" fill="none" xmlns="http://www.w3.org/2000/svg">
<path d="M34.61 11.28C34.3252 10.8117 33.8975 10.4471 33.39 10.24L8.53999 0.199997C8.14817 0.0402873 7.72299 -0.0202138 7.30218 0.0238643C6.88137 0.0679424 6.47795 0.215236 6.12773 0.45267C5.77752 0.690104 5.49134 1.01033 5.29461 1.38493C5.09788 1.75952 4.99668 2.1769 4.99999 2.6V15C4.99999 16.05 5.63999 17 6.60999 17.4L13.05 20L34.61 28.72C34.87 28.32 35.01 27.84 35 27.36V12.64C35 12.16 34.87 11.68 34.61 11.27V11.28Z" fill="url(#paint0_linear_2_47)"/>
<path d="M34.63 11.28L13.06 20L6.60999 22.6C6.13272 22.7936 5.72434 23.1257 5.43741 23.5534C5.15048 23.9811 4.99813 24.485 4.99999 25V37.42C5.00076 37.8414 5.10474 38.2562 5.30283 38.6281C5.50092 39 5.78709 39.3178 6.13633 39.5535C6.48558 39.7893 6.88726 39.936 7.30627 39.9807C7.72528 40.0254 8.14886 39.9668 8.53999 39.81L33.4 29.76C33.9 29.55 34.33 29.19 34.61 28.72C34.87 28.31 35.01 27.84 35 27.36V12.64C35 12.16 34.88 11.69 34.63 11.28Z" fill="#9966FF"/>
<path d="M34.62 11.28L34.72 11.45C34.9 11.82 35 12.22 35 12.64V12.61V27.36C35 27.84 34.87 28.31 34.61 28.72L13.06 20L34.62 11.28Z" fill="url(#paint1_linear_2_47)"/>
<defs>
<linearGradient id="paint0_linear_2_47" x1="20" y1="4.13" x2="20" y2="21.13" gradientUnits="userSpaceOnUse">
<stop stop-color="#11EFE3"/>
<stop offset="1" stop-color="#21CFE0"/>
</linearGradient>
<linearGradient id="paint1_linear_2_47" x1="35" y1="11.28" x2="35" y2="28.72" gradientUnits="userSpaceOnUse">
<stop stop-color="#0048E5"/>
<stop offset="1" stop-color="#9B66FF"/>
</linearGradient>
</defs>
</svg>
