<svg width="42" height="42" viewBox="0 0 42 42" fill="none" xmlns="http://www.w3.org/2000/svg">
<path d="M35.6131 12.2751C35.3256 11.8094 34.897 11.4481 34.3898 11.2438L9.54483 1.19071C8.7501 0.868453 7.84738 0.963061 7.13649 1.44311C6.4256 1.92316 5.99961 2.7258 6 3.58446V16.0001C5.99917 17.0531 6.63785 18.0007 7.61327 18.3938L14.0539 21.0001L35.6131 29.722C35.8673 29.3132 36.0014 28.841 36 28.3595V13.6376C36.0014 13.156 35.8673 12.6838 35.6131 12.2751Z" stroke="#C4CCD8"/>
<path d="M35.5 12.5L14.0603 21.0001L7.61394 23.6094C6.63917 24.0021 6.00045 24.9482 6 26.0001V38.4157C6 39.2735 6.42577 40.0753 7.13608 40.5552C7.84639 41.0351 8.74845 41.1304 9.54317 40.8094L34.4015 30.7563C34.9059 30.5493 35.3305 30.1856 35.6128 29.7188C35.8666 29.3099 36.0008 28.8378 36 28.3563V13.6407C36.005 13.1604 36 13 35.5 12.5Z" stroke="#C4CCD8"/>
</svg>
