<svg width="40" height="40" viewBox="0 0 40 40" fill="none" xmlns="http://www.w3.org/2000/svg">
<path d="M24.87 4.46001C24.7398 4.35229 24.5893 4.27186 24.4274 4.2235C24.2655 4.17513 24.0955 4.15982 23.9276 4.17848C23.7597 4.19714 23.5972 4.24939 23.4499 4.33211C23.3025 4.41483 23.1734 4.52634 23.07 4.66001L18.47 10.48L3.42 29.45C3.69 29.67 3.96 29.9 4.2 30.15C4.61653 30.5543 4.9948 30.9961 5.33 31.47L5.43 31.6C5.73889 32.0518 6.00663 32.5304 6.23 33.03C6.52 33.65 6.73 34.31 6.88 34.98C7.00919 35.5318 7.32199 36.0232 7.76713 36.3739C8.21227 36.7246 8.76334 36.9136 9.33 36.91H38.7C38.8693 36.9101 39.037 36.8762 39.193 36.8105C39.3491 36.7449 39.4905 36.6486 39.6088 36.5275C39.7271 36.4064 39.82 36.2628 39.8821 36.1052C39.9441 35.9477 39.974 35.7793 39.97 35.61C39.784 29.6481 38.3431 23.7924 35.7412 18.425C33.1393 13.0576 29.435 8.29914 24.87 4.46001Z" fill="#9A66FF"/>
<path d="M27.8 21.98C25.6408 17.635 22.5719 13.8055 18.8018 10.7515C15.0317 7.69741 10.6485 5.49031 5.95 4.28001C5.78314 4.24017 5.61001 4.23401 5.44074 4.26189C5.27147 4.28977 5.10946 4.35114 4.96419 4.44239C4.81893 4.53365 4.69332 4.65297 4.59473 4.79336C4.49613 4.93375 4.42653 5.09239 4.39 5.26001L0.099999 25.4C-0.0326791 25.9678 0.0340492 26.564 0.288979 27.0884C0.543909 27.6128 0.971516 28.0336 1.5 28.28C2.50904 28.7395 3.42966 29.3724 4.22 30.15L4.39 30.32C4.74 30.68 5.06 31.06 5.35 31.47L5.45 31.6C5.7589 32.0518 6.02664 32.5304 6.25 33.03L27.19 23.72C27.3464 23.6482 27.4869 23.5457 27.6031 23.4188C27.7194 23.2918 27.809 23.1429 27.8668 22.9807C27.9246 22.8186 27.9493 22.6465 27.9396 22.4746C27.9298 22.3028 27.8858 22.1346 27.81 21.98H27.8Z" fill="url(#paint0_linear_2_134)"/>
<path d="M18.46 10.48L18.93 10.86C22.6415 13.8959 25.6651 17.6864 27.8 21.98C27.8757 22.1346 27.9198 22.3027 27.9296 22.4746C27.9393 22.6465 27.9146 22.8185 27.8568 22.9807C27.799 23.1428 27.7094 23.2918 27.5931 23.4188C27.4769 23.5457 27.3364 23.6482 27.18 23.72L6.24999 33.03C6.02663 32.5304 5.75889 32.0518 5.44999 31.6L5.34999 31.47L5.11999 31.17C4.88999 30.87 4.64999 30.59 4.37999 30.32C4.08263 30.0127 3.76527 29.7254 3.42999 29.46L18.46 10.48Z" fill="url(#paint1_linear_2_134)"/>
<defs>
<linearGradient id="paint0_linear_2_134" x1="13.98" y1="4.24001" x2="13.98" y2="33.03" gradientUnits="userSpaceOnUse">
<stop offset="0.26" stop-color="#FF5091"/>
<stop offset="0.91" stop-color="#E03071"/>
</linearGradient>
<linearGradient id="paint1_linear_2_134" x1="15.68" y1="10.48" x2="15.68" y2="33.03" gradientUnits="userSpaceOnUse">
<stop stop-color="#6E00F5"/>
<stop offset="1" stop-color="#9860FE"/>
</linearGradient>
</defs>
</svg>
