<svg width="42" height="42" viewBox="0 0 42 42" fill="none" xmlns="http://www.w3.org/2000/svg">
<path fill-rule="evenodd" clip-rule="evenodd" d="M24.8821 4.68629C25.3542 4.63545 25.827 4.7772 26.1934 5.07936L26.1971 5.08237C35.5414 12.938 41.0992 24.4005 41.4803 36.6022L41.4805 36.6084C41.4894 37.0837 41.3072 37.5428 40.9741 37.8824C40.6412 38.222 40.1855 38.4135 39.7098 38.4135H10.3408C8.93962 38.4205 7.72033 37.4559 7.40504 36.0904L7.40319 36.0824C7.26842 35.4516 7.06526 34.8375 6.7972 34.2508L6.78704 34.2359L6.76921 34.1968C6.56111 33.74 6.31363 33.302 6.02961 32.8882L6.02853 32.8866L5.93888 32.7582L5.93797 32.7569C5.66427 32.3701 5.36016 32.0059 5.02852 31.6674L5.02266 31.6615C4.96471 31.6003 4.92092 31.554 4.87317 31.5087L4.86607 31.502C4.63036 31.2697 4.38236 31.0503 4.12303 30.8448L3.73121 30.5342L23.6843 5.34953C23.978 4.97661 24.4102 4.73708 24.8821 4.68629ZM7.7006 33.8218C8.00131 34.4774 8.22924 35.1638 8.38027 35.8691C8.59179 36.7774 9.40385 37.4186 10.3368 37.4135L10.3395 37.4135L39.7098 37.4135C39.9168 37.4135 40.1152 37.3302 40.26 37.1824C40.4044 37.0352 40.4839 36.8362 40.4807 36.6299C40.1075 24.7146 34.6801 13.5213 25.5556 5.84953C25.397 5.71949 25.1928 5.65861 24.9891 5.68054C24.7845 5.70257 24.5974 5.80617 24.4703 5.96778L24.4692 5.9691L5.12834 30.3812C5.27767 30.5119 5.42318 30.647 5.56467 30.7864C5.6308 30.8492 5.68958 30.9113 5.7412 30.9658L5.74576 30.9706C6.11377 31.3465 6.45135 31.751 6.75526 32.1806L6.75712 32.1833L6.85293 32.3206C7.164 32.7737 7.43577 33.2525 7.6653 33.7518C7.67854 33.7741 7.69075 33.7972 7.70187 33.8209L7.7006 33.8218Z" fill="#C4CCD8"/>
<path fill-rule="evenodd" clip-rule="evenodd" d="M5.70143 5.0162C6.10903 4.76023 6.60255 4.67928 7.07055 4.79161L7.08075 4.79406C11.6961 6.00479 16.0152 8.14615 19.773 11.0865L19.7746 11.0878C23.7578 14.2302 26.9947 18.2168 29.2523 22.7605L29.2544 22.7648C29.4646 23.1982 29.4914 23.6981 29.3281 24.1516C29.1651 24.6048 28.8262 24.9733 28.3879 25.1734L28.3835 25.1754L7.003 34.6892L6.80105 34.2592L6.78511 34.2359L6.76728 34.1967C6.55921 33.7399 6.31176 33.3021 6.02772 32.8882L6.02662 32.8866L5.93787 32.7593L5.93642 32.7573C5.66176 32.3718 5.35682 32.0088 5.0245 31.6716L5.0176 31.6646C4.95977 31.6035 4.91579 31.557 4.86814 31.5118L4.86104 31.5051C4.62562 31.2731 4.37791 31.0539 4.11887 30.8485C3.55387 30.4051 2.93771 30.0311 2.2836 29.7345L2.27942 29.7326C0.976323 29.1271 0.275008 27.6924 0.597316 26.2925L4.90416 6.1534L4.90448 6.15192C5.00655 5.68157 5.29382 5.27217 5.70143 5.0162ZM6.83266 5.76293C6.62756 5.71497 6.41173 5.75097 6.23325 5.86306C6.05367 5.97583 5.92702 6.15615 5.88187 6.36334L1.57256 26.514C1.35477 27.4537 1.8246 28.4175 2.69885 28.8248C3.42537 29.1544 4.10973 29.57 4.73728 30.0626L4.73921 30.0641C5.02541 30.2911 5.29927 30.5331 5.5596 30.7894C5.62567 30.8522 5.68441 30.9143 5.73597 30.9687L5.74026 30.9732C6.10908 31.3478 6.44755 31.7511 6.75245 32.1793L6.75533 32.1833L6.851 32.3206C7.08425 32.6603 7.29541 33.0145 7.48323 33.3809L27.9725 24.2638L27.9744 24.2629C28.1667 24.1745 28.3155 24.0124 28.3872 23.813C28.4589 23.6139 28.4475 23.3941 28.3556 23.2031C26.1639 18.7931 23.022 14.9237 19.1559 11.8734C15.5071 9.01855 11.3137 6.93925 6.83266 5.76293Z" fill="#C4CCD8"/>
</svg>
