<svg width="40" height="40" viewBox="0 0 40 40" fill="none" xmlns="http://www.w3.org/2000/svg">
<path d="M5 35V7C4.99959 6.35844 5.20486 5.73363 5.58569 5.21732C5.96651 4.70101 6.50283 4.32038 7.1159 4.13131C7.72898 3.94224 8.38652 3.95469 8.992 4.16683C9.59748 4.37898 10.119 4.77964 10.48 5.31L21.2 21L9.32 38H8C7.20435 38 6.44129 37.6839 5.87868 37.1213C5.31607 36.5587 5 35.7957 5 35Z" fill="url(#paint0_linear_2_148)"/>
<path d="M8.06 4H33.22C33.5099 4.00174 33.7932 4.08747 34.0354 4.24682C34.2776 4.40617 34.4685 4.63232 34.5849 4.89788C34.7013 5.16345 34.7382 5.45705 34.6912 5.74317C34.6442 6.02928 34.5152 6.29563 34.32 6.51L21.15 21L5.84 4.92C6.12549 4.62317 6.46904 4.3883 6.84926 4.23002C7.22947 4.07174 7.6382 3.99344 8.05 4H8.06Z" fill="url(#paint1_linear_2_148)"/>
<path d="M7.88 38H33.2C33.4908 38.0002 33.7754 37.9159 34.0191 37.7573C34.2628 37.5986 34.4552 37.3726 34.5728 37.1067C34.6904 36.8407 34.7282 36.5463 34.6815 36.2593C34.6349 35.9723 34.5058 35.705 34.31 35.49L21.11 21L7.14 36.33C7.01054 36.4734 6.92541 36.6513 6.8949 36.8421C6.86439 37.0329 6.88981 37.2285 6.96809 37.4051C7.04637 37.5818 7.17415 37.732 7.33599 37.8375C7.49782 37.9431 7.68677 37.9995 7.88 38Z" fill="#9A66FF"/>
<defs>
<linearGradient id="paint0_linear_2_148" x1="13.1" y1="38" x2="13.1" y2="12.99" gradientUnits="userSpaceOnUse">
<stop stop-color="#9860FE"/>
<stop offset="1" stop-color="#6E00F5"/>
</linearGradient>
<linearGradient id="paint1_linear_2_148" x1="20.28" y1="8.42" x2="20.28" y2="19.47" gradientUnits="userSpaceOnUse">
<stop stop-color="#FF5091"/>
<stop offset="1" stop-color="#E03071"/>
</linearGradient>
</defs>
</svg>
