<svg width="42" height="42" viewBox="0 0 42 42" fill="none" xmlns="http://www.w3.org/2000/svg">
<path fill-rule="evenodd" clip-rule="evenodd" d="M20.0036 1.5078C18.9495 1.40946 18.0469 2.278 18.0469 3.40011V22.9204C18.0469 24.56 19.9066 25.5075 21.233 24.5438L37.0253 13.0701C37.9331 12.4106 38.1052 11.1698 37.4061 10.3749C35.2026 7.86927 32.5395 5.79751 29.5534 4.27596C26.5672 2.75441 23.3258 1.81775 20.0036 1.5078ZM17.0469 3.40011C17.0469 1.75344 18.3937 0.353261 20.0964 0.512122C23.5444 0.833791 26.9082 1.80587 30.0074 3.38496C33.1064 4.96403 35.8702 7.11412 38.1571 9.71451C39.2864 10.9986 38.9453 12.9112 37.6131 13.8791L21.8208 25.3528V25.3528C19.8334 26.7968 17.0469 25.377 17.0469 22.9204V3.40011Z" fill="#C4CCD8"/>
<path fill-rule="evenodd" clip-rule="evenodd" d="M2.5 25.3334C2.5 16.4049 9.73806 9.1668 18.6666 9.1668C27.5951 9.1668 34.8332 16.4049 34.8332 25.3334C34.8332 34.2619 27.5951 41.5 18.6666 41.5C9.73806 41.5 2.5 34.2619 2.5 25.3334ZM18.6666 10.1668C10.2903 10.1668 3.5 16.9571 3.5 25.3334C3.5 33.7097 10.2903 40.5 18.6666 40.5C27.0429 40.5 33.8332 33.7097 33.8332 25.3334C33.8332 16.9571 27.0429 10.1668 18.6666 10.1668Z" fill="#C4CCD8"/>
</svg>
