<svg width="42" height="42" viewBox="0 0 42 42" fill="none" xmlns="http://www.w3.org/2000/svg">
<g clip-path="url(#clip0_2_157)">
<path fill-rule="evenodd" clip-rule="evenodd" d="M37.8765 14.5661C38.7632 14.376 39.6867 14.6008 40.3897 15.1762C41.0923 15.7513 41.4993 16.6149 41.5 17.5256V38.4722C41.5 40.1392 40.162 41.5 38.5 41.5H3.5C1.83795 41.5 0.5 40.1392 0.5 38.4722L0.5 25.0497C0.499392 23.6233 1.48667 22.3846 2.87617 22.0865L37.8765 14.5661ZM38.0861 15.5439C38.674 15.4179 39.2876 15.5664 39.7563 15.95C40.2253 16.3339 40.4995 16.9129 40.5 17.5264V38.4722C40.5 39.5974 39.5994 40.5 38.5 40.5H3.5C2.40063 40.5 1.5 39.5974 1.5 38.4722L1.5 25.0494C1.49951 24.0872 2.1647 23.2618 3.08613 23.0642L38.0861 15.5439Z" fill="#C4CCD8"/>
<path fill-rule="evenodd" clip-rule="evenodd" d="M9.5 3.5C9.5 1.82885 10.8924 0.5 12.5776 0.5H29.5899C31.1294 0.5 32.5 1.85042 32.5 3.5V28.5C32.5 30.1711 31.1076 31.5 29.4224 31.5H12.5776C10.8924 31.5 9.5 30.1711 9.5 28.5V3.5ZM12.5776 1.5C11.4156 1.5 10.5 2.40973 10.5 3.5V28.5C10.5 29.5903 11.4156 30.5 12.5776 30.5H29.4224C30.5844 30.5 31.5 29.5903 31.5 28.5V3.5C31.5 2.38816 30.5626 1.5 29.5899 1.5H12.5776Z" fill="#C4CCD8"/>
</g>
<defs>
<clipPath id="clip0_2_157">
<rect width="42" height="42" fill="white"/>
</clipPath>
</defs>
</svg>
