<svg width="40" height="40" viewBox="0 0 40 40" fill="none" xmlns="http://www.w3.org/2000/svg">
<g clip-path="url(#clip0_2_161)">
<path d="M36.98 14.05L30.67 15.41L9.33 20L1.98 21.58C1.41738 21.7034 0.914018 22.0159 0.55375 22.4653C0.193481 22.9147 -0.00195139 23.474 -7.97581e-07 24.05V37.47C-7.97581e-07 38.87 1.12 40 2.5 40H37.5C38.88 40 40 38.87 40 37.47V16.53C40 15.76 39.66 15.04 39.07 14.56C38.7814 14.3252 38.4438 14.1584 38.082 14.0719C37.7202 13.9853 37.3436 13.9813 36.98 14.06V14.05Z" fill="#9B66FF"/>
<path d="M28.59 -5.30534e-07H11.58C11.2464 -0.00529495 10.9151 0.0551741 10.6049 0.177953C10.2947 0.300732 10.0117 0.483416 9.77214 0.71557C9.53256 0.947725 9.34106 1.2248 9.20857 1.53098C9.07608 1.83715 9.00521 2.16643 9 2.5V27.5C9 28.88 10.15 30 11.58 30H28.42C28.7536 30.0053 29.0849 29.9448 29.3951 29.822C29.7053 29.6993 29.9883 29.5166 30.2279 29.2844C30.4674 29.0523 30.6589 28.7752 30.7914 28.469C30.9239 28.1628 30.9948 27.8336 31 27.5V2.5C31.0004 1.85226 30.7494 1.22964 30.2999 0.763306C29.8503 0.296969 29.2373 0.0233179 28.59 -5.30534e-07Z" fill="url(#paint0_linear_2_161)"/>
<path d="M31 15.34V27.5C31 28.88 29.85 30 28.42 30H11.58C11.2464 30.0053 10.9151 29.9448 10.6049 29.822C10.2947 29.6993 10.0117 29.5166 9.77214 29.2844C9.53256 29.0523 9.34106 28.7752 9.20857 28.469C9.07608 28.1628 9.00521 27.8336 9 27.5V20.07L9.33 20L30.67 15.41L31 15.34Z" fill="url(#paint1_linear_2_161)"/>
</g>
<defs>
<linearGradient id="paint0_linear_2_161" x1="20" y1="1.97" x2="20" y2="17.6" gradientUnits="userSpaceOnUse">
<stop stop-color="#11EFE3"/>
<stop offset="0.33" stop-color="#15E8E2"/>
<stop offset="0.74" stop-color="#1FD3E0"/>
<stop offset="1" stop-color="#21CFE0"/>
</linearGradient>
<linearGradient id="paint1_linear_2_161" x1="31" y1="22.67" x2="5.34" y2="22.67" gradientUnits="userSpaceOnUse">
<stop stop-color="#0048E5"/>
<stop offset="0.64" stop-color="#625AF5"/>
<stop offset="1" stop-color="#8A62FC"/>
</linearGradient>
<clipPath id="clip0_2_161">
<rect width="40" height="40" fill="white"/>
</clipPath>
</defs>
</svg>
