<svg width="42" height="42" viewBox="0 0 42 42" fill="none" xmlns="http://www.w3.org/2000/svg">
<path fill-rule="evenodd" clip-rule="evenodd" d="M0.5 6.55556C0.5 4.87432 1.84662 3.5 3.52174 3.5H23.557C24.7548 3.5 25.8357 4.21469 26.3191 5.31649L30.2404 14.2609C30.2404 14.2609 30.2403 14.2608 30.2404 14.2609C30.4116 14.6511 30.5 15.0734 30.5 15.5C30.5 15.9266 30.4116 16.3487 30.2404 16.739C30.2404 16.739 30.2404 16.7389 30.2404 16.739L26.3191 25.6834C25.8358 26.7853 24.7548 27.5 23.557 27.5H3.52174C1.84661 27.5 0.5 26.1256 0.5 24.4444V6.55556ZM3.52174 4.5C2.41142 4.5 1.5 5.414 1.5 6.55556V24.4444C1.5 25.586 2.41143 26.5 3.52174 26.5H23.557C24.352 26.5 25.077 26.0255 25.4033 25.2818C25.4033 25.2818 25.4033 25.2819 25.4033 25.2818L29.3246 16.3374C29.4401 16.0741 29.5 15.7887 29.5 15.5C29.5 15.2113 29.4402 14.926 29.3246 14.6627L25.4033 5.71823C25.0771 4.97459 24.352 4.5 23.557 4.5H3.52174Z" fill="#C4CCD8"/>
<path fill-rule="evenodd" clip-rule="evenodd" d="M15.6809 16.3165C16.1643 15.2146 17.2452 14.5 18.443 14.5H38.4783C40.1534 14.5 41.5 15.8744 41.5 17.5556V35.4444C41.5 37.1256 40.1534 38.5 38.4783 38.5H18.443C17.2452 38.5 16.1643 37.7854 15.6809 36.6835L11.7596 27.7391C11.7596 27.7391 11.7597 27.7392 11.7596 27.7391C11.5884 27.3489 11.5 26.9266 11.5 26.5C11.5 26.0734 11.5884 25.6513 11.7596 25.261C11.7596 25.261 11.7596 25.2611 11.7596 25.261L15.6809 16.3165ZM16.5967 16.7183C16.5967 16.7183 16.5967 16.7182 16.5967 16.7183L12.6754 25.6626C12.5599 25.9259 12.5 26.2113 12.5 26.5C12.5 26.7887 12.5598 27.074 12.6754 27.3373L16.5967 36.2817C16.5967 36.2818 16.5967 36.2817 16.5967 36.2817C16.9229 37.0254 17.648 37.5 18.443 37.5H38.4783C39.5886 37.5 40.5 36.586 40.5 35.4444V17.5556C40.5 16.414 39.5886 15.5 38.4783 15.5H18.443C17.648 15.5 16.9229 15.9746 16.5967 16.7183Z" fill="#C4CCD8"/>
</svg>
