<svg width="40" height="40" viewBox="0 0 40 40" fill="none" xmlns="http://www.w3.org/2000/svg">
<g clip-path="url(#clip0_2_103)">
<path d="M29 14.5C29 14.14 28.93 13.79 28.78 13.46L24.86 4.52C24.6657 4.0706 24.3448 3.68753 23.9363 3.41759C23.5278 3.14765 23.0496 3.00255 22.56 3H2.52002C2.18646 3.00262 1.85668 3.07091 1.54951 3.20098C1.24235 3.33105 0.963807 3.52035 0.729802 3.75807C0.495796 3.99579 0.310906 4.27727 0.185689 4.58645C0.0604728 4.89563 -0.00261847 5.22644 1.8329e-05 5.56V23.44C-0.00261847 23.7736 0.0604728 24.1044 0.185689 24.4136C0.310906 24.7227 0.495796 25.0042 0.729802 25.2419C0.963807 25.4797 1.24235 25.669 1.54951 25.799C1.85668 25.9291 2.18646 25.9974 2.52002 26H22.56C23.56 26 24.46 25.4 24.86 24.48L28.78 15.54C28.93 15.21 29 14.86 29 14.5Z" fill="url(#paint0_linear_2_103)"/>
<path d="M11 25.5C11 25.86 11.07 26.21 11.22 26.54L15.14 35.48C15.54 36.41 16.44 37 17.44 37H37.48C38.88 37 40 35.86 40 34.44V16.56C40.0026 16.2264 39.9395 15.8956 39.8143 15.5864C39.6891 15.2773 39.5042 14.9958 39.2702 14.7581C39.0362 14.5203 38.7577 14.331 38.4505 14.201C38.1433 14.0709 37.8136 14.0026 37.48 14H17.44C16.44 14 15.54 14.6 15.14 15.52L11.22 24.46C11.07 24.79 11 25.14 11 25.5Z" fill="#00D924"/>
<path d="M28.95 14C29.0518 14.5187 28.9925 15.056 28.78 15.54L24.86 24.48C24.46 25.41 23.56 26 22.56 26H11.05C10.9482 25.4813 11.0075 24.944 11.22 24.46L15.14 15.52C15.54 14.59 16.44 14 17.44 14H28.95Z" fill="url(#paint1_linear_2_103)"/>
</g>
<defs>
<linearGradient id="paint0_linear_2_103" x1="14.5" y1="6.13" x2="14.5" y2="28.22" gradientUnits="userSpaceOnUse">
<stop stop-color="#11EFE3"/>
<stop offset="0.35" stop-color="#14E8E2"/>
<stop offset="0.86" stop-color="#1ED6E1"/>
<stop offset="1" stop-color="#21CFE0"/>
</linearGradient>
<linearGradient id="paint1_linear_2_103" x1="25.31" y1="29.5" x2="25.31" y2="9" gradientUnits="userSpaceOnUse">
<stop stop-color="#00D924"/>
<stop offset="1" stop-color="#00A600"/>
</linearGradient>
<clipPath id="clip0_2_103">
<rect width="40" height="40" fill="white"/>
</clipPath>
</defs>
</svg>
