<svg width="61" height="60" viewBox="0 0 61 60" fill="none" xmlns="http://www.w3.org/2000/svg">
<g clip-path="url(#clip0_32_196)">
<path d="M52.4966 33.3624C50.3653 33.3732 48.5182 33.8772 46.97 34.6272C46.4039 33.516 45.8305 32.538 45.7341 31.8108C45.6219 30.9624 45.4914 30.456 45.6268 29.4444C45.7622 28.4328 46.3576 27.0012 46.3478 26.8944C46.3393 26.7876 46.2148 26.2728 44.9851 26.2632C43.7553 26.2548 42.7037 26.496 42.5792 26.8152C42.4548 27.1344 42.2181 27.8532 42.0717 28.6032C41.8558 29.7 39.6171 33.612 38.3446 35.658C37.9286 34.8588 37.5748 34.1556 37.5016 33.5988C37.3893 32.7504 37.2588 32.244 37.3942 31.2324C37.5296 30.2208 38.125 28.7892 38.1152 28.6824C38.1067 28.5756 37.9823 28.0608 36.7525 28.0512C35.5227 28.0428 34.4711 28.284 34.3467 28.6032C34.2222 28.9224 34.0905 29.6688 33.8391 30.3912C33.5866 31.1136 30.6098 37.638 29.8302 39.3288C29.4325 40.1904 29.0872 40.8828 28.8432 41.3556L28.842 41.3532C28.842 41.3532 28.8274 41.3844 28.8005 41.4384C28.5919 41.8404 28.4675 42.0636 28.4675 42.0636C28.4675 42.0636 28.4687 42.0672 28.4711 42.072C28.3052 42.3672 28.1283 42.642 28.0405 42.642C27.9795 42.642 27.8563 41.8548 28.0673 40.776C28.5102 38.5128 29.574 34.9824 29.5643 34.8612C29.5594 34.7988 29.7619 34.1844 28.8689 33.8616C28.0014 33.5496 27.6916 34.0704 27.6123 34.0716C27.5354 34.0728 27.4781 34.2552 27.4781 34.2552C27.4781 34.2552 28.4455 30.2856 25.6334 30.2856C23.8766 30.2856 21.4415 32.1768 20.241 33.8904C19.4846 34.296 17.8645 35.166 16.1455 36.0948C15.4855 36.4512 14.812 36.816 14.1727 37.1628C14.1288 37.116 14.0861 37.068 14.041 37.0212C10.6323 33.444 4.33222 30.9144 4.5994 26.106C4.697 24.3576 5.31432 19.7544 16.7067 14.1708C26.0385 9.5964 33.5097 10.8552 34.8005 13.6452C36.6451 17.6304 30.8074 25.038 21.117 26.106C17.424 26.5128 15.4806 25.1052 14.9962 24.5808C14.4875 24.0288 14.4119 24.0036 14.2215 24.108C13.9117 24.2772 14.1081 24.7644 14.2215 25.0548C14.5107 25.7952 15.6977 27.1092 17.7229 27.762C19.5041 28.3368 23.8388 28.6524 29.0824 26.658C34.9542 24.4236 39.539 18.2088 38.1933 13.014C36.8233 7.7304 27.9173 5.994 19.4883 8.9388C14.4716 10.692 9.04142 13.4436 5.1362 17.0352C0.49288 21.3072 -0.24644 25.0248 0.0585596 26.5776C1.14314 32.0976 8.87672 35.6916 11.9743 38.3556C11.8218 38.4384 11.6778 38.5164 11.5473 38.5872C9.99424 39.3432 4.0992 42.378 2.62422 45.5844C0.9516 49.2216 2.89018 51.8316 4.17484 52.1832C8.15204 53.2716 12.2342 51.3132 14.4277 48.0948C16.6213 44.8776 16.3529 40.6884 15.3464 38.7756C15.3342 38.7516 15.3195 38.7288 15.3073 38.7048C15.7087 38.4708 16.1174 38.2344 16.5225 38.0004C17.313 37.5444 18.0889 37.1184 18.7624 36.7572C18.3854 37.7724 18.1097 38.9892 17.9657 40.7472C17.7974 42.8124 18.6575 45.4812 19.7835 46.5312C20.2788 46.9932 20.8754 47.004 21.2536 47.004C22.5639 47.004 23.1617 45.9324 23.8193 44.664C24.6269 43.1088 25.3431 41.2992 25.3431 41.2992C25.3431 41.2992 24.4439 46.1892 26.8937 46.1892C27.7855 46.1892 28.6834 45.0504 29.0836 44.4708C29.0848 44.4768 29.0848 44.4804 29.0848 44.4804C29.0848 44.4804 29.108 44.4432 29.1531 44.3664C29.2458 44.2272 29.2983 44.1384 29.2983 44.1384C29.2983 44.1384 29.3007 44.1288 29.3032 44.1132C29.6619 43.5012 30.4573 42.1044 31.6505 39.8004C33.1913 36.8244 34.67 33.0972 34.67 33.0972C34.67 33.0972 34.8078 34.0092 35.258 35.5152C35.5227 36.402 36.0864 37.3824 36.5305 38.322C36.173 38.8104 35.9534 39.09 35.9534 39.09C35.9534 39.09 35.9558 39.0948 35.9595 39.1044C35.674 39.4776 35.3532 39.8796 35.0177 40.2732C33.8013 41.6988 32.352 43.326 32.158 43.7964C31.9298 44.3496 31.9835 44.7576 32.4252 45.084C32.7472 45.3228 33.3219 45.36 33.9221 45.3204C35.0152 45.2484 35.785 44.9808 36.1645 44.8188C36.7562 44.6136 37.4455 44.2896 38.0921 43.8216C39.2852 42.9588 40.005 41.724 39.9367 40.0884C39.8989 39.1872 39.6061 38.2944 39.2364 37.4508C39.345 37.2972 39.4536 37.1436 39.5622 36.9864C41.4434 34.2804 42.9025 31.308 42.9025 31.308C42.9025 31.308 43.0404 32.22 43.4906 33.726C43.7187 34.4892 44.1689 35.3208 44.5727 36.1368C42.8037 37.5504 41.7069 39.1932 41.3251 40.2708C40.6211 42.264 41.1726 43.1676 42.2071 43.3728C42.6756 43.4664 43.3381 43.2552 43.8358 43.0476C44.4556 42.846 45.1998 42.5088 45.8952 42.006C47.0883 41.1432 48.2364 39.9348 48.1668 38.2992C48.1351 37.5552 47.9301 36.816 47.652 36.1056C49.1514 35.4912 51.0936 35.1492 53.5665 35.4336C58.8723 36.0432 59.913 39.3012 59.7141 40.6644C59.5153 42.0288 58.4026 42.7776 58.0305 43.0044C57.6584 43.2312 57.545 43.3092 57.5767 43.4772C57.6218 43.722 57.7938 43.7124 58.111 43.6596C58.5478 43.5876 60.8963 42.5508 60.9976 40.0332C61.1244 36.8436 58.011 33.3336 52.4966 33.3624ZM11.6046 46.9224C9.84784 48.8076 7.39198 49.5204 6.33912 48.9204C5.20208 48.2724 5.65226 45.4956 7.80922 43.4952C9.12316 42.276 10.8202 41.1528 11.9462 40.4604C12.2024 40.3092 12.5782 40.086 13.0357 39.816C13.1113 39.774 13.154 39.75 13.154 39.75L13.1528 39.7476C13.2407 39.696 13.3322 39.642 13.4249 39.5868C14.2093 42.4356 13.4493 44.9436 11.6046 46.9224ZM24.4061 38.3616C23.7937 39.8292 22.5127 43.584 21.7331 43.3824C21.0633 43.2096 20.6558 40.3548 21.5989 37.5468C22.0735 36.1332 23.0873 34.4436 23.6839 33.7872C24.6428 32.7324 25.6993 32.3868 25.9555 32.8152C26.2837 33.36 24.7904 37.4412 24.4061 38.3616ZM34.9835 43.326C34.7236 43.4592 34.4857 43.5432 34.3759 43.4784C34.2942 43.4304 34.4833 43.2552 34.4833 43.2552C34.4833 43.2552 35.8058 41.8548 36.3279 41.2176C36.6305 40.8468 36.9831 40.4064 37.3649 39.9144C37.3686 39.9636 37.3698 40.0128 37.3698 40.0608C37.3649 41.7384 35.7179 42.87 34.9835 43.326ZM43.1319 41.4984C42.9379 41.3628 42.9708 40.9248 43.6065 39.5616C43.8566 39.0264 44.4263 38.124 45.4182 37.2624C45.5328 37.6164 45.6036 37.956 45.6012 38.2728C45.5877 40.3836 44.0566 41.172 43.1319 41.4984Z" fill="black"/>
</g>
<defs>
<clipPath id="clip0_32_196">
<rect width="61" height="60" fill="white"/>
</clipPath>
</defs>
</svg>
