<svg width="58" height="58" viewBox="0 0 58 58" fill="none" xmlns="http://www.w3.org/2000/svg">
<path d="M21.46 2.32007C16.0283 2.32007 11.6 6.74839 11.6 12.1801C11.6 16.0084 13.8619 19.2478 17.0624 20.8801C13.8619 22.5124 11.6 25.7517 11.6 29.5801C11.6 33.4084 13.8619 36.6478 17.0624 38.2801C13.8619 39.9124 11.6 43.1517 11.6 46.9801C11.6 52.4117 16.0283 56.8401 21.46 56.8401C26.8917 56.8401 31.32 52.4117 31.32 46.9801V38.2801V34.4013C32.876 37.3541 35.8812 39.4401 39.44 39.4401C44.5515 39.4401 48.72 35.2715 48.72 30.1601C48.72 25.9588 45.8504 22.5373 42.0092 21.4012C45.8821 20.07 48.72 16.4955 48.72 12.1801C48.72 6.74839 44.2917 2.32007 38.86 2.32007H30.16H21.46ZM21.46 4.64007H29V19.7201H21.46C17.2822 19.7201 13.92 16.3578 13.92 12.1801C13.92 8.0023 17.2822 4.64007 21.46 4.64007ZM31.32 4.64007H38.86C43.0378 4.64007 46.4 8.0023 46.4 12.1801C46.4 16.3578 43.0378 19.7201 38.86 19.7201H31.32V4.64007ZM21.46 22.0401H29V37.1201H21.46C17.2822 37.1201 13.92 33.7578 13.92 29.5801C13.92 25.4023 17.2822 22.0401 21.46 22.0401ZM31.32 22.0401H35.1988C33.5343 22.9172 32.1971 24.2543 31.32 25.9188V22.0401ZM39.44 23.2001C43.2977 23.2001 46.4 26.3024 46.4 30.1601C46.4 34.0177 43.2977 37.1201 39.44 37.1201C35.5824 37.1201 32.48 34.0177 32.48 30.1601C32.48 26.3024 35.5824 23.2001 39.44 23.2001ZM21.46 39.4401H29V46.9801C29 51.1578 25.6378 54.5201 21.46 54.5201C17.2822 54.5201 13.92 51.1578 13.92 46.9801C13.92 42.8023 17.2822 39.4401 21.46 39.4401Z" fill="black"/>
</svg>
