<svg width="60" height="60" viewBox="0 0 60 60" fill="none" xmlns="http://www.w3.org/2000/svg">
<path d="M10.8 8.3999L14.4 49.1999L31.2 53.9999L48 49.1999C49.2 35.6003 50.4 21.9995 51.6 8.3999H10.8ZM13.4203 10.7999H48.9797L45.7547 47.346L31.2 51.5038L16.6453 47.346L13.4203 10.7999ZM22.2609 17.9999L21.1078 32.3999H36.6961L36.2039 38.3999L31.2 39.1429L26.257 38.3999L26.039 35.9999H21.4078L21.8765 41.9999L31.1883 44.3999L40.5117 41.9999L41.7 27.5999H26.5078L26.8922 22.7999H36.9234L37.2 25.1999H41.639L40.8 17.9999H22.2609Z" fill="black"/>
</svg>
