<svg width="60" height="60" viewBox="0 0 60 60" fill="none" xmlns="http://www.w3.org/2000/svg">
<path d="M6 4.80005C5.68175 4.80008 5.37655 4.92652 5.15151 5.15156C4.92647 5.37659 4.80003 5.6818 4.8 6.00005V54C4.80003 54.3183 4.92647 54.6235 5.15151 54.8485C5.37655 55.0736 5.68175 55.2 6 55.2001H54C54.3183 55.2 54.6235 55.0736 54.8485 54.8485C55.0735 54.6235 55.2 54.3183 55.2 54V6.00005C55.2 5.6818 55.0735 5.37659 54.8485 5.15156C54.6235 4.92652 54.3183 4.80008 54 4.80005H6ZM7.2 7.20005H52.8V52.8H7.2V7.20005ZM18 27.6V31.7344H24V50.4001H28.8V31.7344H34.8V27.6H18ZM44.0297 27.6118C40.2921 27.5969 36.0211 28.7295 36.0211 33.9891C36.0211 40.8651 45.2859 40.8668 45.2859 43.9688C45.2859 44.2628 45.4106 46.3993 42.1406 46.3993C38.8706 46.3993 36.1453 44.3438 36.1453 44.3438V49.3336C36.1453 49.3336 50.4023 53.9449 50.4023 43.5469C50.4011 36.7969 41.0508 37.1345 41.0508 33.7805C41.0508 32.4809 41.9741 31.2657 44.5313 31.2657C47.0885 31.2657 49.3523 32.775 49.3523 32.775L49.5211 28.329C49.5211 28.329 46.9367 27.6233 44.0297 27.6118Z" fill="black"/>
</svg>
