<svg id="arsenal" xmlns="http://www.w3.org/2000/svg" viewBox="0 113.8 1919.8 854.2"><style>.st0{fill:#a3a1a1}.st1{fill:#c9c9c9}.st2{fill:#525352}.st3{fill:#ababab}.st4{fill:#eaeaea}.st5{fill:#454545}.st6{fill:#212121}.st7{fill:#787878}.st8{fill:#4b4a4b}.st9{fill:#565656}.st10{fill:#151515}.st11{fill:#3b3b3e}.st12{fill:#434343}.st13{fill:#f2f2f2}.st14{fill:#48dbbb}.st15{fill:#177360}.st16{fill:#fff}.st17{fill:none}.st18{font-family:&apos;ArialMT&apos;}.st19{font-size:21px}.st20{font-size:30px}</style><g id="sketchbook"><path class="st0" d="M265 225.8H0v626h265c26.8 0 48.6-21.7 48.6-48.6V274.3c0-26.8-21.8-48.5-48.6-48.5z"/><path class="st1" d="M258.2 843.8c26.1 0 47.3-21.2 47.3-47.3V281.1c0-26.1-21.2-47.3-47.3-47.3H0v610h258.2z"/><path class="st2" d="M289.6 782.9V294.6c0-24.8-20.1-44.8-44.8-44.8H0v578h244.7c24.8 0 44.9-20.1 44.9-44.9z"/><path class="st3" d="M287.6 781.3v-485c0-24.6-19.9-44.5-44.5-44.5H0v574h243c24.6 0 44.6-19.9 44.6-44.5z"/><path class="st4" d="M284.6 778.7V298.8c0-24.3-19.7-44.1-44.1-44.1H0v568.1h240.5c24.3 0 44.1-19.7 44.1-44.1z"/><path class="st5" d="M206 249.7h26v-22.6c0-3.1-2.5-5.6-5.6-5.6h-14.8c-3.1 0-5.6 2.5-5.6 5.6v22.6zm26 578h-26v26.1c0 3.6 2.5 6.5 5.6 6.5h14.8c3.1 0 5.6-2.9 5.6-6.5v-26.1z"/></g><g id="pens"><path class="st2" d="M1487.2 523.7c0-.8-.7-1.5-1.5-1.5h-.4c-.8 0-1.5.7-1.5 1.5v4.2h3.4v-4.2z"/><path class="st6" d="M1485.5 551.6h11.6l-5.8-21.7h-1.5v-1.4c0-.5-.4-.9-.9-.9h-6.8c-.5 0-.9.4-.9.9v1.4h-1.5l-5.8 21.7h11.6z"/><path class="st2" d="M1576.7 521.5h.7v2.9h-.7z"/><path class="st6" d="M1576 524.4v4.7h2.2v-4.7h-1.5z"/><path class="st7" d="M1571 863.8h12.3v-15.2H1571z"/><path class="st2" d="M1470.9 553v2.4h-.2c-1.4 0-2.6 1.1-2.6 2.6v317.3c0 .7.3 1.4.8 1.9l26.4 25.4c2.7 2.6 7.3.7 7.3-3.1V558.1c0-1.4-1.1-2.6-2.6-2.6h-.2v-2.4c0-1-.8-1.8-1.8-1.8h-25.4c-.8-.1-1.7.7-1.7 1.7z"/><path class="st6" d="M1501.4 578.4c.4 0 .8-.1 1.2-.2h.1c1.6-.5 2.7-2 2.7-3.8v-.3c0-1.8-1.2-3.2-2.7-3.8h-.1c-.4-.1-.8-.2-1.2-.2h-31.9c-.5 0-.9.1-1.3.2-1.5.6-2.6 2-2.6 3.7v.3c0 1.7 1.1 3.2 2.6 3.7.4.2.9.2 1.3.2h31.9v.2z"/><ellipse class="st6" cx="1485.5" cy="636.5" rx="7.4" ry="9.5"/><ellipse class="st6" cx="1485.5" cy="611.9" rx="9.4" ry="10.6"/><path class="st6" d="M1502.7 831.6V818h-34.4v2.7h-2.6v-71.9c1.4-.7 2.4-3.8 2.4-7.4 0-3.8-1.1-6.9-2.6-7.5-.3-.7-1-1.2-1.7-1.2-1 0-1.9.8-1.9 1.9v96.2c0 1 .8 1.9 1.9 1.9s1.9-.8 1.9-1.9v-1.9h2.6v2.7h34.4z"/><path class="st8" d="M1566.5 863.3v38.3c0 1.8 1.4 3.2 3.2 3.2h14.9c1.8 0 3.2-1.4 3.2-3.2v-38.3h-21.3z"/><path class="st2" d="M1576 529h-1.2l-5.6 21h15.8l-5.6-21h-1.2z"/><path class="st5" d="M1568.5 549.8h-.1v3.1h17.3v-3.1h-16.5z"/><path class="st2" d="M1568.4 552.9c-.6 0-1.1.5-1.1 1.1v15.5c.8 2.1 1.4 9.3 1.4 18 0 8.6-.6 15.9-1.4 18v242.8c0 .6.5 1.1 1.1 1.1h17.7c.6 0 1.1-.5 1.1-1.1V605.4c-.8-2.1-1.4-9.3-1.4-18 0-8.6.6-15.9 1.4-18v-15.5c0-.6-.5-1.1-1.1-1.1h-17.7v.1z"/><path class="st6" d="M1587.1 834.1h-19.8v.8h-3.1c-1.3-6.8-2.5-17.3-2.5-30.6 0-11.8 1.1-21.8 2.1-28.5 1.3.2 2.7-2.3 3.1-5.6.5-3.3-.2-6.1-1.5-6.3-1.1-.2-2.4 1.8-3 4.5-1.8 6.5-3 19.9-3 35.4 0 21.9 2.9 39.3 5.4 39.7.5.1 1.5-.3 1.2-1.2-.3-.7-.6-1.7-1-3.1h2.1v1h19.8v-6.1h.2z"/></g><g id="laptop"><path class="st5" d="M477.9 113.8l51.6 135.8c5.2 13.4 18.2 22.3 32.6 22.3h795.7c14.4 0 27.3-8.8 32.6-22.3l51.5-135.8h-964z"/><path class="st2" d="M1349.8 789.9H570c-27.7 0-50.1-22.4-50.1-50.1V312c0-27.7 22.4-50.1 50.1-50.1h779.8c27.7 0 50.1 22.4 50.1 50.1v427.9c0 27.6-22.4 50-50.1 50z"/><path class="st2" d="M1096.8 757.3c0 4.7-3.8 8.5-8.5 8.5h-259c-4.7 0-8.5-3.8-8.5-8.5V628.1c0-4.7 3.8-8.5 8.5-8.5h259c4.7 0 8.5 3.8 8.5 8.5v129.2zm248.1-176.7c0 11.1-9 20.2-20.2 20.2H595.1c-11.1 0-20.2-9-20.2-20.2V336.5c0-11.1 9-20.2 20.2-20.2h729.7c11.1 0 20.2 9 20.2 20.2l-.1 244.1z"/><path class="st6" d="M1324.7 316.3H595.1c-11.1 0-20.2 9-20.2 20.2v244.2c0 11.1 9 20.2 20.2 20.2h729.7c11.1 0 20.2-9 20.2-20.2V336.5c-.1-11.2-9.1-20.2-20.3-20.2z"/><path class="st6" d="M1292 332.9c0-1.4 1.1-2.5 2.5-2.5h28.7c1.4 0 2.5 1.1 2.5 2.5v13.6c0 1.4-1.1 2.5-2.5 2.5h-28.7c-1.4 0-2.5-1.1-2.5-2.5v-13.6zm-43.5 0c0-1.4 1.1-2.5 2.5-2.5h28.7c1.4 0 2.5 1.1 2.5 2.5v13.6c0 1.4-1.1 2.5-2.5 2.5H1251c-1.4 0-2.5-1.1-2.5-2.5v-13.6zM1010 393.1c0 1.9-1.6 3.5-3.5 3.5h-31.7c-1.9 0-3.5-1.6-3.5-3.5v-31.7c0-1.9 1.6-3.5 3.5-3.5h31.7c1.9 0 3.5 1.6 3.5 3.5v31.7zm11.5 11.7c1.9 0 3.5 1.6 3.5 3.5V440c0 1.9-1.6 3.5-3.5 3.5h-31.7c-1.9 0-3.5-1.6-3.5-3.5v-31.7c0-1.9 1.6-3.5 3.5-3.5h31.7zm-47.1 0c1.9 0 3.5 1.6 3.5 3.5V440c0 1.9-1.6 3.5-3.5 3.5h-31.7c-1.9 0-3.5-1.6-3.5-3.5v-31.7c0-1.9 1.6-3.5 3.5-3.5h31.7zM963 393.1c0 1.9-1.6 3.5-3.5 3.5h-31.7c-1.9 0-3.5-1.6-3.5-3.5v-31.7c0-1.9 1.6-3.5 3.5-3.5h31.7c1.9 0 3.5 1.6 3.5 3.5v31.7zm-35.7 11.7c1.9 0 3.5 1.6 3.5 3.5V440c0 1.9-1.6 3.5-3.5 3.5h-31.7c-1.9 0-3.5-1.6-3.5-3.5v-31.7c0-1.9 1.6-3.5 3.5-3.5h31.7zm-11.2-11.7c0 1.9-1.6 3.5-3.5 3.5h-31.7c-1.9 0-3.5-1.6-3.5-3.5v-31.7c0-1.9 1.6-3.5 3.5-3.5h31.7c1.9 0 3.5 1.6 3.5 3.5v31.7zm-35.9 11.7c1.9 0 3.5 1.6 3.5 3.5V440c0 1.9-1.6 3.5-3.5 3.5h-31.7c-1.9 0-3.5-1.6-3.5-3.5v-31.7c0-1.9 1.6-3.5 3.5-3.5h31.7zm-11.1-11.7c0 1.9-1.6 3.5-3.5 3.5h-31.7c-1.9 0-3.5-1.6-3.5-3.5v-31.7c0-1.9 1.6-3.5 3.5-3.5h31.7c1.9 0 3.5 1.6 3.5 3.5v31.7zm-36 11.7c1.9 0 3.5 1.6 3.5 3.5V440c0 1.9-1.6 3.5-3.5 3.5h-31.7c-1.9 0-3.5-1.6-3.5-3.5v-31.7c0-1.9 1.6-3.5 3.5-3.5h31.7zm-11-11.7c0 1.9-1.6 3.5-3.5 3.5h-31.7c-1.9 0-3.5-1.6-3.5-3.5v-31.7c0-1.9 1.6-3.5 3.5-3.5h31.7c1.9 0 3.5 1.6 3.5 3.5v31.7zM786 404.8c1.9 0 3.5 1.6 3.5 3.5V440c0 1.9-1.6 3.5-3.5 3.5h-31.7c-1.9 0-3.5-1.6-3.5-3.5v-31.7c0-1.9 1.6-3.5 3.5-3.5H786zm-10.8-11.7c0 1.9-1.6 3.5-3.5 3.5H740c-1.9 0-3.5-1.6-3.5-3.5v-31.7c0-1.9 1.6-3.5 3.5-3.5h31.7c1.9 0 3.5 1.6 3.5 3.5v31.7zm-36.3 11.7c1.9 0 3.5 1.6 3.5 3.5V440c0 1.9-1.6 3.5-3.5 3.5h-31.7c-1.9 0-3.5-1.6-3.5-3.5v-31.7c0-1.9 1.6-3.5 3.5-3.5h31.7zm-9.7 93.1c1.9 0 3.5 1.6 3.5 3.5v31.7c0 1.9-1.6 3.5-3.5 3.5h-31.7c-1.9 0-3.5-1.6-3.5-3.5v-31.7c0-1.9 1.6-3.5 3.5-3.5h31.7zm-13-8.1c-1.9 0-3.5-1.6-3.5-3.5v-31.7c0-1.9 1.6-3.5 3.5-3.5h31.7c1.9 0 3.5 1.6 3.5 3.5v31.7c0 1.9-1.6 3.5-3.5 3.5h-31.7zm24.9 11.6c0-1.9 1.6-3.5 3.5-3.5h31.7c1.9 0 3.5 1.6 3.5 3.5v31.7c0 1.9-1.6 3.5-3.5 3.5h-31.7c-1.9 0-3.5-1.6-3.5-3.5v-31.7zm22.1-11.6c-1.9 0-3.5-1.6-3.5-3.5v-31.7c0-1.9 1.6-3.5 3.5-3.5H795c1.9 0 3.5 1.6 3.5 3.5v31.7c0 1.9-1.6 3.5-3.5 3.5h-31.8zm25 11.6c0-1.9 1.6-3.5 3.5-3.5h31.7c1.9 0 3.5 1.6 3.5 3.5v31.7c0 1.9-1.6 3.5-3.5 3.5h-31.7c-1.9 0-3.5-1.6-3.5-3.5v-31.7zm22.1-11.6c-1.9 0-3.5-1.6-3.5-3.5v-31.7c0-1.9 1.6-3.5 3.5-3.5H842c1.9 0 3.5 1.6 3.5 3.5v31.7c0 1.9-1.6 3.5-3.5 3.5h-31.7zm25 11.6c0-1.9 1.6-3.5 3.5-3.5h31.7c1.9 0 3.5 1.6 3.5 3.5v31.7c0 1.9-1.6 3.5-3.5 3.5h-31.7c-1.9 0-3.5-1.6-3.5-3.5v-31.7zm22.1-11.6c-1.9 0-3.5-1.6-3.5-3.5v-31.7c0-1.9 1.6-3.5 3.5-3.5h31.7c1.9 0 3.5 1.6 3.5 3.5v31.7c0 1.9-1.6 3.5-3.5 3.5h-31.7zm25 11.6c0-1.9 1.6-3.5 3.5-3.5h31.7c1.9 0 3.5 1.6 3.5 3.5v31.7c0 1.9-1.6 3.5-3.5 3.5h-31.7c-1.9 0-3.5-1.6-3.5-3.5v-31.7zm22.1-11.6c-1.9 0-3.5-1.6-3.5-3.5v-31.7c0-1.9 1.6-3.5 3.5-3.5h31.7c1.9 0 3.5 1.6 3.5 3.5v31.7c0 1.9-1.6 3.5-3.5 3.5h-31.7zm24.9 11.6c0-1.9 1.6-3.5 3.5-3.5h31.7c1.9 0 3.5 1.6 3.5 3.5v31.7c0 1.9-1.6 3.5-3.5 3.5h-31.7c-1.9 0-3.5-1.6-3.5-3.5v-31.7zm22.2-11.6c-1.9 0-3.5-1.6-3.5-3.5v-31.7c0-1.9 1.6-3.5 3.5-3.5h31.7c1.9 0 3.5 1.6 3.5 3.5v31.7c0 1.9-1.6 3.5-3.5 3.5h-31.7zm24.9 11.6c0-1.9 1.6-3.5 3.5-3.5h31.7c1.9 0 3.5 1.6 3.5 3.5v31.7c0 1.9-1.6 3.5-3.5 3.5H980c-1.9 0-3.5-1.6-3.5-3.5v-31.7zm22.2-11.6c-1.9 0-3.5-1.6-3.5-3.5v-31.7c0-1.9 1.6-3.5 3.5-3.5h31.7c1.9 0 3.5 1.6 3.5 3.5v31.7c0 1.9-1.6 3.5-3.5 3.5h-31.7zm34.6-49.7v-31.7c0-1.9 1.6-3.5 3.5-3.5h31.7c1.9 0 3.5 1.6 3.5 3.5v31.7c0 1.9-1.6 3.5-3.5 3.5h-31.7c-1.9 0-3.5-1.6-3.5-3.5zm-9.7 61.3c0-1.9 1.6-3.5 3.5-3.5h31.7c1.9 0 3.5 1.6 3.5 3.5v31.7c0 1.9-1.6 3.5-3.5 3.5h-31.7c-1.9 0-3.5-1.6-3.5-3.5v-31.7zm22.2-11.6c-1.9 0-3.5-1.6-3.5-3.5v-31.7c0-1.9 1.6-3.5 3.5-3.5h31.7c1.9 0 3.5 1.6 3.5 3.5v31.7c0 1.9-1.6 3.5-3.5 3.5h-31.7zm34.6-49.7v-31.7c0-1.9 1.6-3.5 3.5-3.5h31.7c1.9 0 3.5 1.6 3.5 3.5v31.7c0 1.9-1.6 3.5-3.5 3.5h-31.7c-1.9 0-3.5-1.6-3.5-3.5zm9 14.4c0-1.9 1.6-3.5 3.5-3.5h31.7c1.9 0 3.5 1.6 3.5 3.5v31.7c0 1.9-1.6 3.5-3.5 3.5h-31.7c-1.9 0-3.5-1.6-3.5-3.5v-31.7zm38.1-14.4v-31.7c0-1.9 1.6-3.5 3.5-3.5h31.7c1.9 0 3.5 1.6 3.5 3.5v31.7c0 1.9-1.6 3.5-3.5 3.5H1131c-1.9 0-3.5-1.6-3.5-3.5zm9 14.4c0-1.9 1.6-3.5 3.5-3.5h31.7c1.9 0 3.5 1.6 3.5 3.5v31.7c0 1.9-1.6 3.5-3.5 3.5H1140c-1.9 0-3.5-1.6-3.5-3.5v-31.7zm38.1-14.4v-31.7c0-1.9 1.6-3.5 3.5-3.5h31.7c1.9 0 3.5 1.6 3.5 3.5v31.7c0 1.9-1.6 3.5-3.5 3.5h-31.7c-1.9 0-3.5-1.6-3.5-3.5zm9 14.4c0-1.9 1.6-3.5 3.5-3.5h31.7c1.9 0 3.5 1.6 3.5 3.5v31.7c0 1.9-1.6 3.5-3.5 3.5h-31.7c-1.9 0-3.5-1.6-3.5-3.5v-31.7zm29.3 46.9c0-1.9 1.6-3.5 3.5-3.5h105.3c1.9 0 3.5 1.6 3.5 3.5v31.7c0 1.9-1.6 3.5-3.5 3.5h-105.3c-1.9 0-3.5-1.6-3.5-3.5v-31.7zm112.3-14.8c0 1.7-1.4 3.1-3.1 3.1h-41.4c-1.7 0-3.1-1.4-3.1-3.1v-40.1c0-1.7-1.4-3.1-3.1-3.1h-3.3c-1.7 0-3.1-1.4-3.1-3.1v-32.5c0-1.7 1.4-3.1 3.1-3.1h51c1.7 0 3.1 1.4 3.1 3.1l-.1 78.8zm-55.8-32.1v31.7c0 1.9-1.6 3.5-3.5 3.5h-31.7c-1.9 0-3.5-1.6-3.5-3.5v-31.7c0-1.9 1.6-3.5 3.5-3.5h31.7c1.9 0 3.5 1.6 3.5 3.5zm-9-14.4c0 1.9-1.6 3.5-3.5 3.5h-31.7c-1.9 0-3.5-1.6-3.5-3.5v-31.7c0-1.9 1.6-3.5 3.5-3.5h31.7c1.9 0 3.5 1.6 3.5 3.5v31.7zm-15.6-78.8V393c0 1.9-1.6 3.5-3.5 3.5h-31.7c-1.9 0-3.5-1.6-3.5-3.5v-31.7c0-1.9 1.6-3.5 3.5-3.5h31.7c1.9 0 3.5 1.6 3.5 3.5zm-39.8-28.4c0-1.4 1.1-2.5 2.5-2.5h28.7c1.4 0 2.5 1.1 2.5 2.5v13.6c0 1.4-1.1 2.5-2.5 2.5h-28.7c-1.4 0-2.5-1.1-2.5-2.5v-13.6zm-43.5 0c0-1.4 1.1-2.5 2.5-2.5h28.7c1.4 0 2.5 1.1 2.5 2.5v13.6c0 1.4-1.1 2.5-2.5 2.5H1164c-1.4 0-2.5-1.1-2.5-2.5v-13.6zm-2.4 28.4c0-1.9 1.6-3.5 3.5-3.5h31.7c1.9 0 3.5 1.6 3.5 3.5V393c0 1.9-1.6 3.5-3.5 3.5h-31.7c-1.9 0-3.5-1.6-3.5-3.5v-31.7zm-41.1-28.4c0-1.4 1.1-2.5 2.5-2.5h28.7c1.4 0 2.5 1.1 2.5 2.5v13.6c0 1.4-1.1 2.5-2.5 2.5h-28.7c-1.4 0-2.5-1.1-2.5-2.5v-13.6zm-5.9 28.4c0-1.9 1.6-3.5 3.5-3.5h31.7c1.9 0 3.5 1.6 3.5 3.5V393c0 1.9-1.6 3.5-3.5 3.5h-31.7c-1.9 0-3.5-1.6-3.5-3.5v-31.7zm-37.6-28.4c0-1.4 1.1-2.5 2.5-2.5h28.7c1.4 0 2.5 1.1 2.5 2.5v13.6c0 1.4-1.1 2.5-2.5 2.5H1077c-1.4 0-2.5-1.1-2.5-2.5v-13.6zm-9.3 28.4c0-1.9 1.6-3.5 3.5-3.5h31.7c1.9 0 3.5 1.6 3.5 3.5V393c0 1.9-1.6 3.5-3.5 3.5h-31.7c-1.9 0-3.5-1.6-3.5-3.5v-31.7zm-34.2-28.4c0-1.4 1.1-2.5 2.5-2.5h28.7c1.4 0 2.5 1.1 2.5 2.5v13.6c0 1.4-1.1 2.5-2.5 2.5h-28.7c-1.4 0-2.5-1.1-2.5-2.5v-13.6zm22.4 24.9c1.9 0 3.5 1.6 3.5 3.5V393c0 1.9-1.6 3.5-3.5 3.5h-31.7c-1.9 0-3.5-1.6-3.5-3.5v-31.7c0-1.9 1.6-3.5 3.5-3.5h31.7zm-65.9-24.9c0-1.4 1.1-2.5 2.5-2.5h28.7c1.4 0 2.5 1.1 2.5 2.5v13.6c0 1.4-1.1 2.5-2.5 2.5H990c-1.4 0-2.5-1.1-2.5-2.5v-13.6zm-43.5 0c0-1.4 1.1-2.5 2.5-2.5h28.7c1.4 0 2.5 1.1 2.5 2.5v13.6c0 1.4-1.1 2.5-2.5 2.5h-28.7c-1.4 0-2.5-1.1-2.5-2.5v-13.6zm-43.5 0c0-1.4 1.1-2.5 2.5-2.5h28.7c1.4 0 2.5 1.1 2.5 2.5v13.6c0 1.4-1.1 2.5-2.5 2.5H903c-1.4 0-2.5-1.1-2.5-2.5v-13.6zm-43.5 0c0-1.4 1.1-2.5 2.5-2.5h28.7c1.4 0 2.5 1.1 2.5 2.5v13.6c0 1.4-1.1 2.5-2.5 2.5h-28.7c-1.4 0-2.5-1.1-2.5-2.5v-13.6zm-43.5 0c0-1.4 1.1-2.5 2.5-2.5h28.7c1.4 0 2.5 1.1 2.5 2.5v13.6c0 1.4-1.1 2.5-2.5 2.5H816c-1.4 0-2.5-1.1-2.5-2.5v-13.6zm-43.5 0c0-1.4 1.1-2.5 2.5-2.5h28.7c1.4 0 2.5 1.1 2.5 2.5v13.6c0 1.4-1.1 2.5-2.5 2.5h-28.7c-1.4 0-2.5-1.1-2.5-2.5v-13.6zm-43.5 0c0-1.4 1.1-2.5 2.5-2.5h28.7c1.4 0 2.5 1.1 2.5 2.5v13.6c0 1.4-1.1 2.5-2.5 2.5H729c-1.4 0-2.5-1.1-2.5-2.5v-13.6zm1.7 28.4V393c0 1.9-1.6 3.5-3.5 3.5H693c-1.9 0-3.5-1.6-3.5-3.5v-31.7c0-1.9 1.6-3.5 3.5-3.5h31.7c2 0 3.5 1.6 3.5 3.5zm-45.1-28.4c0-1.4 1.1-2.5 2.5-2.5h28.7c1.4 0 2.5 1.1 2.5 2.5v13.6c0 1.4-1.1 2.5-2.5 2.5h-28.7c-1.4 0-2.5-1.1-2.5-2.5v-13.6zm-1.8 28.4V393c0 1.9-1.6 3.5-3.5 3.5H646c-1.9 0-3.5-1.6-3.5-3.5v-31.7c0-1.9 1.6-3.5 3.5-3.5h31.7c2 0 3.6 1.6 3.6 3.5zm-41.7-28.4c0-1.4 1.1-2.5 2.5-2.5h28.7c1.4 0 2.5 1.1 2.5 2.5v13.6c0 1.4-1.1 2.5-2.5 2.5h-28.7c-1.4 0-2.5-1.1-2.5-2.5v-13.6zm-44.2 0c0-1.4 1.1-2.5 2.5-2.5h28.7c1.4 0 2.5 1.1 2.5 2.5v13.6c0 1.4-1.1 2.5-2.5 2.5h-28.7c-1.4 0-2.5-1.1-2.5-2.5v-13.6zm0 28.4c0-1.9 1.6-3.5 3.5-3.5h31.7c1.9 0 3.5 1.6 3.5 3.5V393c0 1.9-1.6 3.5-3.5 3.5h-31.7c-1.9 0-3.5-1.6-3.5-3.5v-31.7zm0 47.2c0-1.9 1.6-3.5 3.5-3.5h91.7c1.9 0 3.5 1.6 3.5 3.5v31.7c0 1.9-1.6 3.5-3.5 3.5h-91.7c-1.9 0-3.5-1.6-3.5-3.5v-31.7zm0 46c0-1.9 1.6-3.5 3.5-3.5h101.2c1.9 0 3.5 1.6 3.5 3.5v31.7c0 1.9-1.6 3.5-3.5 3.5H598.9c-1.9 0-3.5-1.6-3.5-3.5v-31.7zm0 46.9c0-1.9 1.6-3.5 3.5-3.5h82.4c1.9 0 3.5 1.6 3.5 3.5v31.7c0 1.9-1.6 3.5-3.5 3.5h-82.4c-1.9 0-3.5-1.6-3.5-3.5v-31.7zm63.5 81.7c0 1.9-1.6 3.5-3.5 3.5h-56.6c-1.9 0-3.5-1.6-3.5-3.5v-34.8c0-1.9 1.6-3.5 3.5-3.5h56.6c1.9 0 3.5 1.6 3.5 3.5v34.8zm47.2 0c0 1.9-1.6 3.5-3.5 3.5h-31.7c-1.9 0-3.5-1.6-3.5-3.5v-34.8c0-1.9 1.6-3.5 3.5-3.5h31.7c1.9 0 3.5 1.6 3.5 3.5v34.8zm46.5 0c0 1.9-1.6 3.5-3.5 3.5h-31.7c-1.9 0-3.5-1.6-3.5-3.5v-34.8c0-1.9 1.6-3.5 3.5-3.5h31.7c1.9 0 3.5 1.6 3.5 3.5v34.8zm47.6 0c0 1.9-1.6 3.5-3.5 3.5H765c-1.9 0-3.5-1.6-3.5-3.5v-34.8c0-1.9 1.6-3.5 3.5-3.5h31.7c1.9 0 3.5 1.6 3.5 3.5v34.8zm263 0c0 1.9-1.6 3.5-3.5 3.5H812.6c-1.9 0-3.5-1.6-3.5-3.5v-34.8c0-1.9 1.6-3.5 3.5-3.5h247.1c1.9 0 3.5 1.6 3.5 3.5v34.8zm7.5-81.7c0-1.9 1.6-3.5 3.5-3.5h31.7c1.9 0 3.5 1.6 3.5 3.5v31.7c0 1.9-1.6 3.5-3.5 3.5h-31.7c-1.9 0-3.5-1.6-3.5-3.5v-31.7zm38.9 81.7c0 1.9-1.6 3.5-3.5 3.5h-31.7c-1.9 0-3.5-1.6-3.5-3.5v-34.8c0-1.9 1.6-3.5 3.5-3.5h31.7c1.9 0 3.5 1.6 3.5 3.5v34.8zm8.2-81.7c0-1.9 1.6-3.5 3.5-3.5h31.7c1.9 0 3.5 1.6 3.5 3.5v31.7c0 1.9-1.6 3.5-3.5 3.5h-31.7c-1.9 0-3.5-1.6-3.5-3.5v-31.7zm38.9 81.7c0 1.9-1.6 3.5-3.5 3.5h-31.7c-1.9 0-3.5-1.6-3.5-3.5v-34.8c0-1.9 1.6-3.5 3.5-3.5h31.7c1.9 0 3.5 1.6 3.5 3.5v34.8zm8.2-81.7c0-1.9 1.6-3.5 3.5-3.5h31.7c1.9 0 3.5 1.6 3.5 3.5v31.7c0 1.9-1.6 3.5-3.5 3.5h-31.7c-1.9 0-3.5-1.6-3.5-3.5v-31.7zm38.9 81.7c0 1.9-1.6 3.5-3.5 3.5h-31.7c-1.9 0-3.5-1.6-3.5-3.5v-34.8c0-1.9 1.6-3.5 3.5-3.5h31.7c1.9 0 3.5 1.6 3.5 3.5v34.8zm42.8.9c0 1.4-1.1 2.5-2.5 2.5h-28.7c-1.4 0-2.5-1.1-2.5-2.5v-13.6c0-1.4 1.1-2.5 2.5-2.5h28.7c1.4 0 2.5 1.1 2.5 2.5V584zm39.4 0c0 1.4-1.1 2.5-2.5 2.5h-28.7c-1.4 0-2.5-1.1-2.5-2.5v-13.6c0-1.4 1.1-2.5 2.5-2.5h28.7c1.4 0 2.5 1.1 2.5 2.5V584zm.3-22.9c0 1.4-1.1 2.5-2.5 2.5h-28.7c-1.4 0-2.5-1.1-2.5-2.5v-13.6c0-1.4 1.1-2.5 2.5-2.5h28.7c1.4 0 2.5 1.1 2.5 2.5v13.6zm39.1 22.9c0 1.4-1.1 2.5-2.5 2.5h-28.7c-1.4 0-2.5-1.1-2.5-2.5v-13.6c0-1.4 1.1-2.5 2.5-2.5h28.7c1.4 0 2.5 1.1 2.5 2.5V584zm.4-190.9c0 1.9-1.6 3.5-3.5 3.5h-65.9c-1.9 0-3.5-1.6-3.5-3.5v-31.7c0-1.9 1.6-3.5 3.5-3.5h65.9c1.9 0 3.5 1.6 3.5 3.5v31.7zm-236.4 226.5h-259c-4.7 0-8.5 3.8-8.5 8.5v129.2c0 4.7 3.8 8.5 8.5 8.5h259c4.7 0 8.5-3.8 8.5-8.5V628.1c0-4.6-3.8-8.5-8.5-8.5z"/><path class="st9" d="M597.9 349h28.7c1.4 0 2.5-1.1 2.5-2.5v-13.6c0-1.4-1.1-2.5-2.5-2.5h-28.7c-1.4 0-2.5 1.1-2.5 2.5v13.6c0 1.3 1.1 2.5 2.5 2.5zm653.1 0h28.7c1.4 0 2.5-1.1 2.5-2.5v-13.6c0-1.4-1.1-2.5-2.5-2.5H1251c-1.4 0-2.5 1.1-2.5 2.5v13.6c0 1.3 1.1 2.5 2.5 2.5zm-43.5 0h28.7c1.4 0 2.5-1.1 2.5-2.5v-13.6c0-1.4-1.1-2.5-2.5-2.5h-28.7c-1.4 0-2.5 1.1-2.5 2.5v13.6c0 1.3 1.1 2.5 2.5 2.5zm-43.5 0h28.7c1.4 0 2.5-1.1 2.5-2.5v-13.6c0-1.4-1.1-2.5-2.5-2.5H1164c-1.4 0-2.5 1.1-2.5 2.5v13.6c0 1.3 1.1 2.5 2.5 2.5zm-43.5 0h28.7c1.4 0 2.5-1.1 2.5-2.5v-13.6c0-1.4-1.1-2.5-2.5-2.5h-28.7c-1.4 0-2.5 1.1-2.5 2.5v13.6c0 1.3 1.1 2.5 2.5 2.5zm-43.5 0h28.7c1.4 0 2.5-1.1 2.5-2.5v-13.6c0-1.4-1.1-2.5-2.5-2.5H1077c-1.4 0-2.5 1.1-2.5 2.5v13.6c0 1.3 1.1 2.5 2.5 2.5zm-43.5 0h28.7c1.4 0 2.5-1.1 2.5-2.5v-13.6c0-1.4-1.1-2.5-2.5-2.5h-28.7c-1.4 0-2.5 1.1-2.5 2.5v13.6c0 1.3 1.1 2.5 2.5 2.5zm-43.4 0h28.7c1.4 0 2.5-1.1 2.5-2.5v-13.6c0-1.4-1.1-2.5-2.5-2.5h-28.7c-1.4 0-2.5 1.1-2.5 2.5v13.6c-.1 1.3 1 2.5 2.5 2.5zm-43.5 0h28.7c1.4 0 2.5-1.1 2.5-2.5v-13.6c0-1.4-1.1-2.5-2.5-2.5h-28.7c-1.4 0-2.5 1.1-2.5 2.5v13.6c-.1 1.3 1.1 2.5 2.5 2.5zm-43.5 0h28.7c1.4 0 2.5-1.1 2.5-2.5v-13.6c0-1.4-1.1-2.5-2.5-2.5h-28.7c-1.4 0-2.5 1.1-2.5 2.5v13.6c-.1 1.3 1.1 2.5 2.5 2.5zm-43.5 0h28.7c1.4 0 2.5-1.1 2.5-2.5v-13.6c0-1.4-1.1-2.5-2.5-2.5h-28.7c-1.4 0-2.5 1.1-2.5 2.5v13.6c-.1 1.3 1.1 2.5 2.5 2.5zm-43.5 0h28.7c1.4 0 2.5-1.1 2.5-2.5v-13.6c0-1.4-1.1-2.5-2.5-2.5h-28.7c-1.4 0-2.5 1.1-2.5 2.5v13.6c-.1 1.3 1.1 2.5 2.5 2.5zm-43.5 0h28.7c1.4 0 2.5-1.1 2.5-2.5v-13.6c0-1.4-1.1-2.5-2.5-2.5h-28.7c-1.4 0-2.5 1.1-2.5 2.5v13.6c-.1 1.3 1.1 2.5 2.5 2.5zm-43.5 0h28.7c1.4 0 2.5-1.1 2.5-2.5v-13.6c0-1.4-1.1-2.5-2.5-2.5h-28.7c-1.4 0-2.5 1.1-2.5 2.5v13.6c-.1 1.3 1.1 2.5 2.5 2.5zm-43.5 0h28.7c1.4 0 2.5-1.1 2.5-2.5v-13.6c0-1.4-1.1-2.5-2.5-2.5h-28.7c-1.4 0-2.5 1.1-2.5 2.5v13.6c0 1.3 1.1 2.5 2.5 2.5zm-43.5 0h28.7c1.4 0 2.5-1.1 2.5-2.5v-13.6c0-1.4-1.1-2.5-2.5-2.5h-28.7c-1.4 0-2.5 1.1-2.5 2.5v13.6c0 1.3 1.1 2.5 2.5 2.5zm652.4 0h28.7c1.4 0 2.5-1.1 2.5-2.5v-13.6c0-1.4-1.1-2.5-2.5-2.5h-28.7c-1.4 0-2.5 1.1-2.5 2.5v13.6c0 1.3 1.1 2.5 2.5 2.5zm-695.6 47.6h31.7c1.9 0 3.5-1.6 3.5-3.5v-31.7c0-1.9-1.6-3.5-3.5-3.5h-31.7c-1.9 0-3.5 1.6-3.5 3.5v31.7c0 1.9 1.5 3.5 3.5 3.5zm563.7 0h31.7c1.9 0 3.5-1.6 3.5-3.5v-31.7c0-1.9-1.6-3.5-3.5-3.5h-31.7c-1.9 0-3.5 1.6-3.5 3.5v31.7c0 1.9 1.5 3.5 3.5 3.5zm-47 0h31.7c1.9 0 3.5-1.6 3.5-3.5v-31.7c0-1.9-1.6-3.5-3.5-3.5h-31.7c-1.9 0-3.5 1.6-3.5 3.5v31.7c0 1.9 1.6 3.5 3.5 3.5zm-46.9 0h31.7c1.9 0 3.5-1.6 3.5-3.5v-31.7c0-1.9-1.6-3.5-3.5-3.5h-31.7c-1.9 0-3.5 1.6-3.5 3.5v31.7c0 1.9 1.5 3.5 3.5 3.5zm-50.5-35.3V393c0 1.9 1.6 3.5 3.5 3.5h31.7c1.9 0 3.5-1.6 3.5-3.5v-31.7c0-1.9-1.6-3.5-3.5-3.5h-31.7c-1.9 0-3.5 1.6-3.5 3.5zm-11.7-3.5h-31.7c-1.9 0-3.5 1.6-3.5 3.5V393c0 1.9 1.6 3.5 3.5 3.5h31.7c1.9 0 3.5-1.6 3.5-3.5v-31.7c0-1.9-1.6-3.5-3.5-3.5zm-47 0h-31.7c-1.9 0-3.5 1.6-3.5 3.5V393c0 1.9 1.6 3.5 3.5 3.5h31.7c1.9 0 3.5-1.6 3.5-3.5v-31.7c0-1.9-1.5-3.5-3.5-3.5zm-46.9 0h-31.7c-1.9 0-3.5 1.6-3.5 3.5V393c0 1.9 1.6 3.5 3.5 3.5h31.7c1.9 0 3.5-1.6 3.5-3.5v-31.7c0-1.9-1.6-3.5-3.5-3.5zm-47 0h-31.7c-1.9 0-3.5 1.6-3.5 3.5V393c0 1.9 1.6 3.5 3.5 3.5h31.7c1.9 0 3.5-1.6 3.5-3.5v-31.7c0-1.9-1.6-3.5-3.5-3.5zm-47 0h-31.7c-1.9 0-3.5 1.6-3.5 3.5V393c0 1.9 1.6 3.5 3.5 3.5h31.7c1.9 0 3.5-1.6 3.5-3.5v-31.7c0-1.9-1.5-3.5-3.5-3.5zm-46.9 0H740c-1.9 0-3.5 1.6-3.5 3.5V393c0 1.9 1.6 3.5 3.5 3.5h31.7c1.9 0 3.5-1.6 3.5-3.5v-31.7c0-1.9-1.6-3.5-3.5-3.5zm-82.2 3.5V393c0 1.9 1.6 3.5 3.5 3.5h31.7c1.9 0 3.5-1.6 3.5-3.5v-31.7c0-1.9-1.6-3.5-3.5-3.5H693c-1.9 0-3.5 1.6-3.5 3.5zm-47 0V393c0 1.9 1.6 3.5 3.5 3.5h31.7c1.9 0 3.5-1.6 3.5-3.5v-31.7c0-1.9-1.6-3.5-3.5-3.5H646c-1.9 0-3.5 1.6-3.5 3.5zm563.5 0V393c0 1.9 1.6 3.5 3.5 3.5h31.7c1.9 0 3.5-1.6 3.5-3.5v-31.7c0-1.9-1.6-3.5-3.5-3.5h-31.7c-1.9 0-3.5 1.6-3.5 3.5zm116.3-3.5h-65.9c-1.9 0-3.5 1.6-3.5 3.5V393c0 1.9 1.6 3.5 3.5 3.5h65.9c1.9 0 3.5-1.6 3.5-3.5v-31.7c0-1.9-1.6-3.5-3.5-3.5zm-723.4 85.9h91.7c1.9 0 3.5-1.6 3.5-3.5v-31.7c0-1.9-1.6-3.5-3.5-3.5h-91.7c-1.9 0-3.5 1.6-3.5 3.5v31.7c0 2 1.5 3.5 3.5 3.5zm104.8-35.4V440c0 1.9 1.6 3.5 3.5 3.5h31.7c1.9 0 3.5-1.6 3.5-3.5v-31.7c0-1.9-1.6-3.5-3.5-3.5h-31.7c-1.9 0-3.5 1.6-3.5 3.5zm474.4 35.3h31.7c1.9 0 3.5-1.6 3.5-3.5v-31.7c0-1.9-1.6-3.5-3.5-3.5h-31.7c-1.9 0-3.5 1.6-3.5 3.5v31.7c0 1.9 1.6 3.5 3.5 3.5zm-47.1 0h31.7c1.9 0 3.5-1.6 3.5-3.5v-31.7c0-1.9-1.6-3.5-3.5-3.5H1131c-1.9 0-3.5 1.6-3.5 3.5v31.7c0 1.9 1.6 3.5 3.5 3.5zm-47.1 0h31.7c1.9 0 3.5-1.6 3.5-3.5v-31.7c0-1.9-1.6-3.5-3.5-3.5h-31.7c-1.9 0-3.5 1.6-3.5 3.5v31.7c0 1.9 1.6 3.5 3.5 3.5zm-47.1 0h31.7c1.9 0 3.5-1.6 3.5-3.5v-31.7c0-1.9-1.6-3.5-3.5-3.5h-31.7c-1.9 0-3.5 1.6-3.5 3.5v31.7c0 1.9 1.6 3.5 3.5 3.5zm-50.6-35.3V440c0 1.9 1.6 3.5 3.5 3.5h31.7c1.9 0 3.5-1.6 3.5-3.5v-31.7c0-1.9-1.6-3.5-3.5-3.5h-31.7c-1.9 0-3.5 1.6-3.5 3.5zm-47.1 0V440c0 1.9 1.6 3.5 3.5 3.5h31.7c1.9 0 3.5-1.6 3.5-3.5v-31.7c0-1.9-1.6-3.5-3.5-3.5h-31.7c-1.9 0-3.5 1.6-3.5 3.5zm-47 0V440c0 1.9 1.6 3.5 3.5 3.5h31.7c1.9 0 3.5-1.6 3.5-3.5v-31.7c0-1.9-1.6-3.5-3.5-3.5h-31.7c-2 0-3.5 1.6-3.5 3.5zm-47.1 0V440c0 1.9 1.6 3.5 3.5 3.5h31.7c1.9 0 3.5-1.6 3.5-3.5v-31.7c0-1.9-1.6-3.5-3.5-3.5h-31.7c-2 0-3.5 1.6-3.5 3.5zm-47.1 0V440c0 1.9 1.6 3.5 3.5 3.5h31.7c1.9 0 3.5-1.6 3.5-3.5v-31.7c0-1.9-1.6-3.5-3.5-3.5h-31.7c-2 0-3.5 1.6-3.5 3.5zm-47.1 0V440c0 1.9 1.6 3.5 3.5 3.5H786c1.9 0 3.5-1.6 3.5-3.5v-31.7c0-1.9-1.6-3.5-3.5-3.5h-31.7c-1.9 0-3.5 1.6-3.5 3.5zm506.1-3.5h-31.7c-1.9 0-3.5 1.6-3.5 3.5V440c0 1.9 1.6 3.5 3.5 3.5h31.7c1.9 0 3.5-1.6 3.5-3.5v-31.7c0-1.9-1.5-3.5-3.5-3.5zm65.1-.2h-51c-1.7 0-3.1 1.4-3.1 3.1v32.5c0 1.7 1.4 3.1 3.1 3.1h3.3c1.7 0 3.1 1.4 3.1 3.1v40.1c0 1.7 1.4 3.1 3.1 3.1h41.4c1.7 0 3.1-1.4 3.1-3.1v-78.9c.2-1.6-1.2-3-3-3zm-570.6 81.7v-31.7c0-1.9-1.6-3.5-3.5-3.5h-31.7c-1.9 0-3.5 1.6-3.5 3.5v31.7c0 1.9 1.6 3.5 3.5 3.5h31.7c1.9 0 3.5-1.6 3.5-3.5zm435.7 3.5h31.7c1.9 0 3.5-1.6 3.5-3.5v-31.7c0-1.9-1.6-3.5-3.5-3.5h-31.7c-1.9 0-3.5 1.6-3.5 3.5v31.7c0 1.9 1.5 3.5 3.5 3.5zm-47.1 0h31.7c1.9 0 3.5-1.6 3.5-3.5v-31.7c0-1.9-1.6-3.5-3.5-3.5H1140c-1.9 0-3.5 1.6-3.5 3.5v31.7c0 1.9 1.5 3.5 3.5 3.5zm-47.1 0h31.7c1.9 0 3.5-1.6 3.5-3.5v-31.7c0-1.9-1.6-3.5-3.5-3.5h-31.7c-1.9 0-3.5 1.6-3.5 3.5v31.7c0 1.9 1.5 3.5 3.5 3.5zm-11.9-3.5v-31.7c0-1.9-1.6-3.5-3.5-3.5h-31.7c-1.9 0-3.5 1.6-3.5 3.5v31.7c0 1.9 1.6 3.5 3.5 3.5h31.7c2 0 3.5-1.6 3.5-3.5zm-47.1 0v-31.7c0-1.9-1.6-3.5-3.5-3.5h-31.7c-1.9 0-3.5 1.6-3.5 3.5v31.7c0 1.9 1.6 3.5 3.5 3.5h31.7c2 0 3.5-1.6 3.5-3.5zm-47.1 0v-31.7c0-1.9-1.6-3.5-3.5-3.5h-31.7c-1.9 0-3.5 1.6-3.5 3.5v31.7c0 1.9 1.6 3.5 3.5 3.5h31.7c2 0 3.5-1.6 3.5-3.5zm-47 0v-31.7c0-1.9-1.6-3.5-3.5-3.5h-31.7c-1.9 0-3.5 1.6-3.5 3.5v31.7c0 1.9 1.6 3.5 3.5 3.5h31.7c1.9 0 3.5-1.6 3.5-3.5zm-47.1 0v-31.7c0-1.9-1.6-3.5-3.5-3.5h-31.7c-1.9 0-3.5 1.6-3.5 3.5v31.7c0 1.9 1.6 3.5 3.5 3.5h31.7c1.9 0 3.5-1.6 3.5-3.5zm-47.1 0v-31.7c0-1.9-1.6-3.5-3.5-3.5h-31.7c-1.9 0-3.5 1.6-3.5 3.5v31.7c0 1.9 1.6 3.5 3.5 3.5h31.7c1.9 0 3.5-1.6 3.5-3.5zm-47.1 0v-31.7c0-1.9-1.6-3.5-3.5-3.5h-31.7c-1.9 0-3.5 1.6-3.5 3.5v31.7c0 1.9 1.6 3.5 3.5 3.5H795c1.9 0 3.5-1.6 3.5-3.5zm435.7-35.3c-1.9 0-3.5 1.6-3.5 3.5v31.7c0 1.9 1.6 3.5 3.5 3.5h31.7c1.9 0 3.5-1.6 3.5-3.5v-31.7c0-1.9-1.6-3.5-3.5-3.5h-31.7zm-635.3 38.8h101.2c1.9 0 3.5-1.6 3.5-3.5v-31.7c0-1.9-1.6-3.5-3.5-3.5H598.9c-1.9 0-3.5 1.6-3.5 3.5v31.7c0 1.9 1.5 3.5 3.5 3.5zm95.1 11.6v31.7c0 1.9 1.6 3.5 3.5 3.5h31.7c1.9 0 3.5-1.6 3.5-3.5v-31.7c0-1.9-1.6-3.5-3.5-3.5h-31.7c-1.9 0-3.5 1.5-3.5 3.5zm474.4 35.2h31.7c1.9 0 3.5-1.6 3.5-3.5v-31.7c0-1.9-1.6-3.5-3.5-3.5h-31.7c-1.9 0-3.5 1.6-3.5 3.5v31.7c0 1.9 1.6 3.5 3.5 3.5zm-47.1 0h31.7c1.9 0 3.5-1.6 3.5-3.5v-31.7c0-1.9-1.6-3.5-3.5-3.5h-31.7c-1.9 0-3.5 1.6-3.5 3.5v31.7c0 1.9 1.6 3.5 3.5 3.5zm-47.1 0h31.7c1.9 0 3.5-1.6 3.5-3.5v-31.7c0-1.9-1.6-3.5-3.5-3.5h-31.7c-1.9 0-3.5 1.6-3.5 3.5v31.7c0 1.9 1.6 3.5 3.5 3.5zm-47.1 0h31.7c1.9 0 3.5-1.6 3.5-3.5v-31.7c0-1.9-1.6-3.5-3.5-3.5h-31.7c-1.9 0-3.5 1.6-3.5 3.5v31.7c0 1.9 1.6 3.5 3.5 3.5zm-47.1 0h31.7c1.9 0 3.5-1.6 3.5-3.5v-31.7c0-1.9-1.6-3.5-3.5-3.5H980c-1.9 0-3.5 1.6-3.5 3.5v31.7c0 1.9 1.6 3.5 3.5 3.5zm-47.1 0h31.7c1.9 0 3.5-1.6 3.5-3.5v-31.7c0-1.9-1.6-3.5-3.5-3.5h-31.7c-1.9 0-3.5 1.6-3.5 3.5v31.7c0 1.9 1.6 3.5 3.5 3.5zm-47 0h31.7c1.9 0 3.5-1.6 3.5-3.5v-31.7c0-1.9-1.6-3.5-3.5-3.5h-31.7c-1.9 0-3.5 1.6-3.5 3.5v31.7c0 1.9 1.5 3.5 3.5 3.5zm-47.1 0h31.7c1.9 0 3.5-1.6 3.5-3.5v-31.7c0-1.9-1.6-3.5-3.5-3.5h-31.7c-1.9 0-3.5 1.6-3.5 3.5v31.7c0 1.9 1.5 3.5 3.5 3.5zm-47.1 0h31.7c1.9 0 3.5-1.6 3.5-3.5v-31.7c0-1.9-1.6-3.5-3.5-3.5h-31.7c-1.9 0-3.5 1.6-3.5 3.5v31.7c0 1.9 1.5 3.5 3.5 3.5zm-47.1 0h31.7c1.9 0 3.5-1.6 3.5-3.5v-31.7c0-1.9-1.6-3.5-3.5-3.5h-31.7c-1.9 0-3.5 1.6-3.5 3.5v31.7c0 1.9 1.5 3.5 3.5 3.5zm-145.7 0h82.4c1.9 0 3.5-1.6 3.5-3.5v-31.7c0-1.9-1.6-3.5-3.5-3.5h-82.4c-1.9 0-3.5 1.6-3.5 3.5v31.7c0 1.9 1.5 3.5 3.5 3.5zm617.5 0h105.3c1.9 0 3.5-1.6 3.5-3.5v-31.7c0-1.9-1.6-3.5-3.5-3.5h-105.3c-1.9 0-3.5 1.6-3.5 3.5v31.7c0 1.9 1.6 3.5 3.5 3.5zm-561 8.1h-56.6c-1.9 0-3.5 1.6-3.5 3.5V583c0 1.9 1.6 3.5 3.5 3.5h56.6c1.9 0 3.5-1.6 3.5-3.5v-34.8c0-1.9-1.5-3.5-3.5-3.5zm47.2 0h-31.7c-1.9 0-3.5 1.6-3.5 3.5V583c0 1.9 1.6 3.5 3.5 3.5h31.7c1.9 0 3.5-1.6 3.5-3.5v-34.8c0-1.9-1.6-3.5-3.5-3.5zm94.1 0H765c-1.9 0-3.5 1.6-3.5 3.5V583c0 1.9 1.6 3.5 3.5 3.5h31.7c1.9 0 3.5-1.6 3.5-3.5v-34.8c0-1.9-1.5-3.5-3.5-3.5zm-47.6 0h-31.7c-1.9 0-3.5 1.6-3.5 3.5V583c0 1.9 1.6 3.5 3.5 3.5h31.7c1.9 0 3.5-1.6 3.5-3.5v-34.8c0-1.9-1.6-3.5-3.5-3.5zm310.6 0H812.6c-1.9 0-3.5 1.6-3.5 3.5V583c0 1.9 1.6 3.5 3.5 3.5h247.1c1.9 0 3.5-1.6 3.5-3.5v-34.8c0-1.9-1.5-3.5-3.5-3.5zm46.4 0h-31.7c-1.9 0-3.5 1.6-3.5 3.5V583c0 1.9 1.6 3.5 3.5 3.5h31.7c1.9 0 3.5-1.6 3.5-3.5v-34.8c0-1.9-1.6-3.5-3.5-3.5zm94.2 0h-31.7c-1.9 0-3.5 1.6-3.5 3.5V583c0 1.9 1.6 3.5 3.5 3.5h31.7c1.9 0 3.5-1.6 3.5-3.5v-34.8c0-1.9-1.5-3.5-3.5-3.5zm-47.1 0h-31.7c-1.9 0-3.5 1.6-3.5 3.5V583c0 1.9 1.6 3.5 3.5 3.5h31.7c1.9 0 3.5-1.6 3.5-3.5v-34.8c0-1.9-1.6-3.5-3.5-3.5zm130.6.3h-28.7c-1.4 0-2.5 1.1-2.5 2.5v13.6c0 1.4 1.1 2.5 2.5 2.5h28.7c1.4 0 2.5-1.1 2.5-2.5v-13.6c0-1.4-1.1-2.5-2.5-2.5zm39.1 22.9h-28.7c-1.4 0-2.5 1.1-2.5 2.5V584c0 1.4 1.1 2.5 2.5 2.5h28.7c1.4 0 2.5-1.1 2.5-2.5v-13.6c0-1.4-1.1-2.5-2.5-2.5zm-78.8 0h-28.7c-1.4 0-2.5 1.1-2.5 2.5V584c0 1.4 1.1 2.5 2.5 2.5h28.7c1.4 0 2.5-1.1 2.5-2.5v-13.6c0-1.4-1.1-2.5-2.5-2.5zm39.4 0h-28.7c-1.4 0-2.5 1.1-2.5 2.5V584c0 1.4 1.1 2.5 2.5 2.5h28.7c1.4 0 2.5-1.1 2.5-2.5v-13.6c0-1.4-1.1-2.5-2.5-2.5z"/><path class="st6" d="M658.6 240.4h602.6v42.9H658.6z"/><path class="st10" d="M489.3 113.8l32.5 85.6c5.3 13.7 18.5 22.7 33.1 22.7h810c14.7 0 27.8-9 33.1-22.7l32.5-85.6H489.3z"/><path class="st4" d="M501.4 113.8l25.3 67.5c.9 2.5 3.3 4.1 6 4.1H1387c2.7 0 5-1.6 6-4.1l25.3-67.5H501.4z"/></g><g id="mouse_1_"><path class="st5" d="M1469.1 351.5c0-1.8-1.4-3.2-3.2-3.2h-11v30.3h11c1.8 0 3.2-1.4 3.2-3.2v-23.9z"/><path d="M1750 452.6v109h7.7V457.9c0-3.5 2.2-5.2 5.5-5.2h156.6V445h-162.2c-3.8 0-7.6 3.6-7.6 7.6z"/><path class="st6" d="M1454.8 348.3v-8.4c0-3.3-2.7-6-6-6h-49v59h49c3.3 0 6-2.7 6-6v-38.6z"/><g id="_x3C_group_x3E_"><path id="XMLID_326_" class="st11" d="M1851.2 755c-.8-30.9-8.6-34.4-11-51.3-2.8-20.3 2.1-78-15.7-104-11.6-17.1-33.5-38.6-71.2-38.6-36.4 0-59.6 21.5-71.2 38.6-17.7 26.1-12.9 83.7-15.7 104-2.3 16.9-10.2 20.3-11 51.3-1.5 59.9 12.4 148.5 97.7 148.8h.4c85.3-.3 99.2-88.9 97.7-148.8z"/><path id="XMLID_330_" class="st12" d="M1832.2 845.2s-14.7-44.5-15.1-63.7 6.3-60.2 6.3-60.2 18-83.5 0-116c-24.4-44-63.2-43.5-70.2-43.5s-45.8-.6-70.2 43.5c-18 32.5 0 116 0 116s6.7 41 6.3 60.2c-.4 19.2-15.1 63.7-15.1 63.7s17.6 54.4 79 54.4 79-54.4 79-54.4z"/><path id="XMLID_324_" class="st6" d="M1824.6 701s-18.6 8.4-34.4 13.7c-15 5-30.5 7.1-35.4 7.7V561.9h-1.7v160.5c-4.8-.6-20.4-2.7-35.4-7.7-15.9-5.3-34.4-13.7-34.4-13.7l-.5 1.6s12.2 6.6 34.4 13.8c20.8 6.7 36.4 7.9 36.7 7.9.3 0 15.9-1.2 36.7-7.9 22.2-7.2 34.4-13.8 34.4-13.8l-.4-1.6z"/><g id="XMLID_323_"><path id="XMLID_325_" class="st6" d="M1836.7 769.8c-1.5-14.5 3.2-115.9-6-150.5-11.8-44.1-58.2-55.2-58.2-55.2s43.9 15.4 52.2 56.9c6.5 32.5-10.4 128.5-9.3 163.8.9 29.3 16.7 60.9 16.7 60.9s4.7-9.8 7.4-18.9c2.7-9.2 4.7-22 4.7-22s-5.9-20.5-7.5-35z"/><path id="XMLID_329_" class="st6" d="M1675.9 619.4c-9.2 34.5-4.5 136-6 150.5s-7.5 35-7.5 35 2 12.8 4.7 22 7.4 18.9 7.4 18.9 15.8-31.6 16.7-60.9c1.1-35.3-15.8-131.3-9.3-163.8 8.3-41.5 52.2-56.9 52.2-56.9s-46.5 11-58.2 55.2z"/></g><g id="XMLID_321_"><path id="XMLID_319_" d="M1759 678.1h-10c-4.1 0-7.5-3.3-7.5-7.5V613c0-4.1 3.3-7.5 7.5-7.5h10c4.1 0 7.5 3.3 7.5 7.5v57.6c0 4.2-3.4 7.5-7.5 7.5z"/><path id="XMLID_315_" class="st13" d="M1757.7 674.8h-7.5c-3.1 0-5.6-2.5-5.6-5.6v-54.7c0-3.1 2.5-5.6 5.6-5.6h7.5c3.1 0 5.6 2.5 5.6 5.6v54.7c.1 3-2.5 5.6-5.6 5.6z"/></g></g><path d="M1469.1 359.7h450.7v7.5h-450.7z"/></g><circle id="circle-mouse" class="st14" cx="1755.5" cy="805.1" r="30"/><path id="circle-mouse-plus" class="st15" d="M1768.5 804.1h-12v-12h-2v12h-12v2h12v12h2v-12h12z"/><circle id="circle-laptop" class="st14" cx="959.9" cy="789.9" r="30"/><path id="circle-laptop-plus" class="st15" d="M972.9 788.9h-12v-12h-2v12h-12v2h12v12h2v-12h12z"/><circle id="circle-pen" class="st14" cx="1535" cy="658.7" r="30"/><path id="circle-pen-plus" class="st15" d="M1548 657.7h-12v-12h-2v12h-12v2h12v12h2v-12h12z"/><circle id="circle-sketchbook" class="st14" cx="305.6" cy="540.9" r="30"/><path id="circle-sketchbook-plus" class="st15" d="M318.6 539.9h-12v-12h-2v12h-12v2h12v12h2v-12h12z"/><g id="pen-popover"><path class="st16" d="M1356.9 325.8v280.4h155.5l22.5 22.5 22.4-22.5h150.5V325.8z"/><path class="st17" d="M1368.1 441.5h328.5v128.9h-328.5z"/><text transform="translate(1398.573 456.417)" class="st18 st19">Drawing directly on the screen</text><text transform="translate(1427.473 481.617)" class="st18 st19">has many advantages. If</text><text transform="translate(1403.473 506.817)" class="st18 st19">there are no writing materials</text><text transform="translate(1406.873 532.017)" class="st18 st19">are not available I can still be</text><text transform="translate(1482.273 557.217)" class="st18 st19">productive.</text><path class="st17" d="M1399.7 353.6H1665v77.2h-265.3z"/><text transform="translate(1440.357 374.928)" class="st18 st20">Digitizer Pen &amp;</text><text transform="translate(1494.757 410.928)" class="st18 st20">Pencil</text></g><g id="laptop-popover"><path class="st16" d="M773.4 505.9v231.6h164l22.4 22.4 22.5-22.4h142V505.9z"/><path class="st17" d="M784.6 601.6h328.5v113.9H784.6z"/><text transform="translate(802.684 616.51)" class="st18 st19">Once the final design is approved</text><text transform="translate(824.384 641.71)" class="st18 st19">then a detailed layout with a</text><text transform="translate(799.884 666.91)" class="st18 st19">graphical editor like photoshop or</text><text transform="translate(869.784 692.11)" class="st18 st19">a preferred editor.</text><path class="st17" d="M816.1 532.7h265.3v49.9H816.1z"/><text id="title_2_" transform="translate(904.231 554.021)" class="st18 st20">Laptop</text></g><g id="sketchbook-popover"><path class="st16" d="M358 398.4v121.4l-22.4 22.4 22.4 22.5V686h350.9V398.4z"/><path class="st17" d="M369.2 494.2h328.5v156.9H369.2z"/><text transform="translate(387.64 509.06)" class="st18 st19">The quickest way to get out ideas</text><text transform="translate(396.54 534.26)" class="st18 st19">is with pen and paper. Whether</text><text transform="translate(399.94 559.46)" class="st18 st19">its a webpage layout or a logo,</text><text transform="translate(385.94 584.66)" class="st18 st19">sketching out out a few variations</text><text transform="translate(391.74 609.86)" class="st18 st19">can speed up the developement</text><text transform="translate(497.84 635.06)" class="st18 st19">process.</text><path class="st17" d="M400.8 425.3h265.3v49.9H400.8z"/><text id="title_3_" transform="translate(459.447 446.572)" class="st18 st20">Sketchbook</text></g><g id="mouse-popover_1_"><path class="st16" d="M1701.9 781.5v-90.6H1351v228.5h350.9v-90.6l23.6-23.7z"/><path class="st17" d="M1369.7 789.4h314.4v113.9h-314.4z"/><text transform="translate(1405.987 804.358)" class="st18 st19">As accurate as a track pad is</text><text transform="translate(1391.287 829.558)" class="st18 st19">when working in photoshop or</text><text transform="translate(1401.887 854.758)" class="st18 st19">illustrator I need a mouse for</text><text transform="translate(1425.087 879.958)" class="st18 st19">zooming and selection.</text><path class="st17" d="M1393.8 719.6h265.3v49.9h-265.3z"/><text id="title_4_" transform="translate(1484.41 740.862)" class="st18 st20">Mouse</text></g></svg>