<svg id="Layer_2" xmlns="http://www.w3.org/2000/svg" viewBox="0 0 35 52"><style>.st0{fill:none;stroke:#fff;stroke-width:2;stroke-miterlimit:10}</style><g id="XMLID_2_"><circle id="XMLID_9_" class="st0" cx="19.8" cy="19.6" r="9"/><g id="XMLID_6_"><path id="XMLID_8_" class="st0" d="M31.1 27.4c-.9 0-1.6.4-2.1 1-2.4 2.5-5.7 4.1-9.4 4.1-7.1 0-12.9-5.8-12.9-12.9 0-7.1 5.8-12.9 12.9-12.9 3.5 0 6.6 1.4 8.9 3.6.5.6 1.3 1 2.1 1 1.6 0 2.8-1.3 2.8-2.8 0-.8-.3-1.5-.8-2-3.3-3.4-8-5.5-13-5.5C9.3 1 1 9.3 1 19.5v28.4c0-.7.2-2.2 1.1-3.7.7-1.1 2.1-2.5 3.5-3.5C10.2 37.5 15 38 19.5 38c5.3 0 10.1-2.2 13.5-5.8.5-.5.9-1.2.9-2 0-1.5-1.2-2.8-2.8-2.8z"/><path id="XMLID_7_" class="st0" d="M1 48.4v-.5.5z"/></g><path id="XMLID_5_" class="st0" d="M6.6 6.4V4.6c0-1.5-1.2-2.8-2.8-2.8C2.3 1.8 1 3 1 4.6v43.7C1 49.8 2.3 51 3.8 51c1.5 0 2.8-1.2 2.8-2.8v-8"/><path id="XMLID_4_" class="st0" d="M31.6 27.6c1.5-2.2 2.4-4.9 2.4-7.8 0-3.4-1.2-6.5-3.1-8.9"/></g></svg>